<svg width="35" height="35" viewBox="0 0 35 35" fill="none" xmlns="http://www.w3.org/2000/svg">
<circle cx="17.5" cy="17.5" r="17.5" fill="#00733F"/>
<path d="M26.772 15.156L25.404 11.051C25.2056 10.4535 24.8238 9.9337 24.3131 9.56551C23.8024 9.19732 23.1886 8.99944 22.559 9H13.441C12.8114 8.99944 12.1976 9.19732 11.6869 9.56551C11.1762 9.9337 10.7944 10.4535 10.596 11.051L9.228 15.156C8.86461 15.3085 8.55428 15.5648 8.33584 15.8928C8.11741 16.2208 8.00059 16.6059 8 17V22C8 22.753 8.423 23.402 9.039 23.743C9.026 23.809 9 23.869 9 23.938V26C9 26.2652 9.10536 26.5196 9.29289 26.7071C9.48043 26.8946 9.73478 27 10 27H11C11.2652 27 11.5196 26.8946 11.7071 26.7071C11.8946 26.5196 12 26.2652 12 26V24H24V26C24 26.2652 24.1054 26.5196 24.2929 26.7071C24.4804 26.8946 24.7348 27 25 27H26C26.2652 27 26.5196 26.8946 26.7071 26.7071C26.8946 26.5196 27 26.2652 27 26V23.938C27 23.869 26.974 23.808 26.961 23.743C27.2744 23.5721 27.5362 23.3202 27.7189 23.0136C27.9017 22.707 27.9988 22.357 28 22V17C28 16.171 27.492 15.459 26.772 15.156ZM10 22V17H26L26.002 22H10ZM13.441 11H22.558C22.989 11 23.371 11.274 23.507 11.684L24.613 15H11.387L12.492 11.684C12.5583 11.4848 12.6857 11.3115 12.856 11.1888C13.0264 11.066 13.231 11 13.441 11Z" fill="white"/>
<path d="M12.5 21C13.3284 21 14 20.3284 14 19.5C14 18.6716 13.3284 18 12.5 18C11.6716 18 11 18.6716 11 19.5C11 20.3284 11.6716 21 12.5 21Z" fill="white"/>
<path d="M23.5 21C24.3284 21 25 20.3284 25 19.5C25 18.6716 24.3284 18 23.5 18C22.6716 18 22 18.6716 22 19.5C22 20.3284 22.6716 21 23.5 21Z" fill="white"/>
</svg>
<svg width="35" height="35" viewBox="0 0 35 35" fill="none" xmlns="http://www.w3.org/2000/svg">
<circle cx="17.5" cy="17.5" r="17.5" fill="#00733F"/>
<path d="M26.772 15.156L25.404 11.051C25.2056 10.4535 24.8238 9.9337 24.3131 9.56551C23.8024 9.19732 23.1886 8.99944 22.559 9H13.441C12.8114 8.99944 12.1976 9.19732 11.6869 9.56551C11.1762 9.9337 10.7944 10.4535 10.596 11.051L9.228 15.156C8.86461 15.3085 8.55428 15.5648 8.33584 15.8928C8.11741 16.2208 8.00059 16.6059 8 17V22C8 22.753 8.423 23.402 9.039 23.743C9.026 23.809 9 23.869 9 23.938V26C9 26.2652 9.10536 26.5196 9.29289 26.7071C9.48043 26.8946 9.73478 27 10 27H11C11.2652 27 11.5196 26.8946 11.7071 26.7071C11.8946 26.5196 12 26.2652 12 26V24H24V26C24 26.2652 24.1054 26.5196 24.2929 26.7071C24.4804 26.8946 24.7348 27 25 27H26C26.2652 27 26.5196 26.8946 26.7071 26.7071C26.8946 26.5196 27 26.2652 27 26V23.938C27 23.869 26.974 23.808 26.961 23.743C27.2744 23.5721 27.5362 23.3202 27.7189 23.0136C27.9017 22.707 27.9988 22.357 28 22V17C28 16.171 27.492 15.459 26.772 15.156ZM10 22V17H26L26.002 22H10ZM13.441 11H22.558C22.989 11 23.371 11.274 23.507 11.684L24.613 15H11.387L12.492 11.684C12.5583 11.4848 12.6857 11.3115 12.856 11.1888C13.0264 11.066 13.231 11 13.441 11Z" fill="white"/>
<path d="M12.5 21C13.3284 21 14 20.3284 14 19.5C14 18.6716 13.3284 18 12.5 18C11.6716 18 11 18.6716 11 19.5C11 20.3284 11.6716 21 12.5 21Z" fill="white"/>
<path d="M23.5 21C24.3284 21 25 20.3284 25 19.5C25 18.6716 24.3284 18 23.5 18C22.6716 18 22 18.6716 22 19.5C22 20.3284 22.6716 21 23.5 21Z" fill="white"/>
</svg>
