<svg width="19" height="19" viewBox="0 0 19 19" fill="none" xmlns="http://www.w3.org/2000/svg">
<path d="M17.1575 1.23344L17.6492 1.7251C18.3267 2.40344 18.2242 3.60594 17.4184 4.41094L7.27921 14.5501L3.99421 15.7518C3.58171 15.9034 3.18004 15.7068 3.09838 15.3143C3.07078 15.1719 3.08377 15.0246 3.13588 14.8893L4.36088 11.5759L14.4717 1.46427C15.2775 0.659269 16.48 0.555936 17.1575 1.23427V1.23344ZM6.83671 2.24177C6.94615 2.24177 7.05451 2.26332 7.15561 2.3052C7.25672 2.34708 7.34858 2.40846 7.42597 2.48585C7.50335 2.56323 7.56473 2.65509 7.60661 2.7562C7.64849 2.8573 7.67004 2.96567 7.67004 3.0751C7.67004 3.18454 7.64849 3.2929 7.60661 3.39401C7.56473 3.49511 7.50335 3.58698 7.42597 3.66436C7.34858 3.74174 7.25672 3.80312 7.15561 3.845C7.05451 3.88688 6.94615 3.90844 6.83671 3.90844H3.50338C3.06135 3.90844 2.63743 4.08403 2.32487 4.39659C2.01231 4.70915 1.83671 5.13307 1.83671 5.5751V15.5751C1.83671 16.0171 2.01231 16.4411 2.32487 16.7536C2.63743 17.0662 3.06135 17.2418 3.50338 17.2418H13.5034C13.9454 17.2418 14.3693 17.0662 14.6819 16.7536C14.9944 16.4411 15.17 16.0171 15.17 15.5751V12.2418C15.17 12.0208 15.2578 11.8088 15.4141 11.6525C15.5704 11.4962 15.7824 11.4084 16.0034 11.4084C16.2244 11.4084 16.4364 11.4962 16.5926 11.6525C16.7489 11.8088 16.8367 12.0208 16.8367 12.2418V15.5751C16.8367 16.4592 16.4855 17.307 15.8604 17.9321C15.2353 18.5572 14.3874 18.9084 13.5034 18.9084H3.50338C2.61932 18.9084 1.77148 18.5572 1.14635 17.9321C0.521233 17.307 0.170044 16.4592 0.170044 15.5751V5.5751C0.170044 4.69105 0.521233 3.8432 1.14635 3.21808C1.77148 2.59296 2.61932 2.24177 3.50338 2.24177H6.83671Z" fill="white"/>
</svg>
