<svg width="44" height="44" viewBox="0 0 44 44" fill="none" xmlns="http://www.w3.org/2000/svg">
<g clip-path="url(#clip0)">
<path d="M16.3179 27.977L18.4825 15.8008H21.8648L19.7678 27.977H16.3179Z" fill="#3C58BF"/>
<path d="M16.3179 27.977L19.0913 15.8008H21.8648L19.7678 27.977H16.3179Z" fill="#293688"/>
<path d="M32.0117 15.9361C31.3352 15.6655 30.2529 15.3949 28.9 15.3949C25.5177 15.3949 23.0824 17.0861 23.0824 19.5213C23.0824 21.3478 24.7736 22.2948 26.1265 22.9036C27.4794 23.5124 27.8853 23.9183 27.8853 24.4595C27.8853 25.2712 26.8029 25.6771 25.8559 25.6771C24.503 25.6771 23.7589 25.4741 22.6089 25.0006L22.1354 24.7977L21.6619 27.5712C22.4736 27.9094 23.9618 28.2476 25.5177 28.2476C29.1029 28.2476 31.4705 26.5565 31.4705 23.9859C31.4705 22.5654 30.5911 21.483 28.5617 20.6036C27.3441 19.9948 26.6 19.6566 26.6 19.0478C26.6 18.5066 27.2088 17.9655 28.5617 17.9655C29.7117 17.9655 30.5235 18.1684 31.1323 18.439L31.4705 18.5743L32.0117 15.9361Z" fill="#3C58BF"/>
<path d="M32.0117 15.9361C31.3352 15.6655 30.2529 15.3949 28.9 15.3949C25.5177 15.3949 23.6912 17.0861 23.6912 19.5213C23.6912 21.3478 24.7736 22.2948 26.1265 22.9036C27.4794 23.5124 27.8853 23.9183 27.8853 24.4595C27.8853 25.2712 26.8029 25.6771 25.8559 25.6771C24.503 25.6771 23.7589 25.4741 22.6089 25.0006L22.1354 24.7977L21.6619 27.5712C22.4736 27.9094 23.9618 28.2476 25.5177 28.2476C29.1029 28.2476 31.4705 26.5565 31.4705 23.9859C31.4705 22.5654 30.5911 21.483 28.5617 20.6036C27.3441 19.9948 26.6 19.6566 26.6 19.0478C26.6 18.5066 27.2088 17.9655 28.5617 17.9655C29.7117 17.9655 30.5235 18.1684 31.1323 18.439L31.4705 18.5743L32.0117 15.9361Z" fill="#293688"/>
<path d="M37.829 15.8008C37.0173 15.8008 36.4085 15.8685 36.0702 16.6802L30.9968 27.977H34.6497L35.3261 25.9477H39.6555L40.0613 27.977H43.3083L40.4672 15.8008H37.829ZM36.2732 23.9183C36.4761 23.3095 37.6261 20.3331 37.6261 20.3331C37.6261 20.3331 37.8967 19.589 38.0996 19.1155L38.3026 20.2654C38.3026 20.2654 38.979 23.3095 39.1143 23.9859H36.2732V23.9183Z" fill="#3C58BF"/>
<path d="M38.6408 15.8008C37.829 15.8008 37.2202 15.8685 36.882 16.6802L30.9968 27.977H34.6497L35.3261 25.9477H39.6555L40.0613 27.977H43.3083L40.4672 15.8008H38.6408ZM36.2732 23.9183C36.5438 23.2418 37.6261 20.3331 37.6261 20.3331C37.6261 20.3331 37.8967 19.589 38.0996 19.1155L38.3026 20.2654C38.3026 20.2654 38.979 23.3095 39.1143 23.9859H36.2732V23.9183Z" fill="#293688"/>
<path d="M10.0944 24.3242L9.7562 22.5654C9.14739 20.536 7.18566 18.3037 5.021 17.2214L8.06505 28.0447H11.7179L17.1972 15.8684H13.5444L10.0944 24.3242Z" fill="#3C58BF"/>
<path d="M10.0944 24.3242L9.7562 22.5654C9.14739 20.536 7.18566 18.3037 5.021 17.2214L8.06505 28.0447H11.7179L17.1972 15.8684H14.2208L10.0944 24.3242Z" fill="#293688"/>
<path d="M0.69165 15.8008L1.30046 15.9361C5.62979 16.9508 8.6062 19.5213 9.75618 22.5654L8.53856 16.8155C8.33562 16.0037 7.72681 15.8008 6.98271 15.8008H0.69165Z" fill="#FFBC00"/>
<path d="M0.69165 15.8008C5.02098 16.8155 8.6062 19.4537 9.75618 22.4977L8.6062 17.6949C8.40327 16.8831 7.72681 16.4096 6.98271 16.4096L0.69165 15.8008Z" fill="#F7981D"/>
<path d="M0.69165 15.8008C5.02098 16.8155 8.6062 19.4537 9.75618 22.4977L8.94443 19.8596C8.74149 19.0478 8.47091 18.2361 7.52387 17.8978L0.69165 15.8008Z" fill="#ED7C00"/>
<path d="M13.4767 23.9183L11.1767 21.6183L10.0944 24.1889L9.82382 22.4977C9.21501 20.4684 7.25329 18.236 5.08862 17.1537L8.13268 27.977H11.7856L13.4767 23.9183Z" fill="#051244"/>
<path d="M19.7678 27.977L16.859 25.0006L16.3179 27.977H19.7678Z" fill="#051244"/>
<path d="M27.547 23.783C27.8176 24.0536 27.9529 24.2565 27.8853 24.5271C27.8853 25.3388 26.8029 25.7447 25.8559 25.7447C24.503 25.7447 23.7589 25.5418 22.6089 25.0683L22.1354 24.8653L21.6619 27.6388C22.4736 27.977 23.9618 28.3153 25.5177 28.3153C27.6823 28.3153 29.4411 27.7064 30.4558 26.6241L27.547 23.783Z" fill="#051244"/>
<path d="M31.4705 27.977H34.6498L35.3263 25.9477H39.6556L40.0615 27.977H43.3085L42.1585 23.0389L38.0997 19.1154L38.3027 20.1978C38.3027 20.1978 38.9791 23.2418 39.1144 23.9183H36.2733C36.5439 23.2418 37.6262 20.3331 37.6262 20.3331C37.6262 20.3331 37.8968 19.589 38.0997 19.1154" fill="#051244"/>
</g>
<defs>
<clipPath id="clip0">
<rect x="0.69165" y="0.546692" width="42.6168" height="42.6168" fill="white"/>
</clipPath>
</defs>
</svg>
