<svg width="19" height="19" viewBox="0 0 19 19" fill="none" xmlns="http://www.w3.org/2000/svg">
<path d="M17.1574 1.23344L17.6491 1.7251C18.3266 2.40344 18.2241 3.60594 17.4183 4.41094L7.27909 14.5501L3.99409 15.7518C3.58159 15.9034 3.17992 15.7068 3.09825 15.3143C3.07066 15.1719 3.08365 15.0246 3.13575 14.8893L4.36075 11.5759L14.4716 1.46427C15.2774 0.659269 16.4799 0.555936 17.1574 1.23427V1.23344ZM6.83659 2.24177C6.94602 2.24177 7.05439 2.26332 7.15549 2.3052C7.25659 2.34708 7.34846 2.40846 7.42584 2.48585C7.50322 2.56323 7.56461 2.65509 7.60649 2.7562C7.64837 2.8573 7.66992 2.96567 7.66992 3.0751C7.66992 3.18454 7.64837 3.2929 7.60649 3.39401C7.56461 3.49511 7.50322 3.58698 7.42584 3.66436C7.34846 3.74174 7.25659 3.80312 7.15549 3.845C7.05439 3.88688 6.94602 3.90844 6.83659 3.90844H3.50325C3.06123 3.90844 2.6373 4.08403 2.32474 4.39659C2.01218 4.70915 1.83659 5.13307 1.83659 5.5751V15.5751C1.83659 16.0171 2.01218 16.4411 2.32474 16.7536C2.6373 17.0662 3.06123 17.2418 3.50325 17.2418H13.5033C13.9453 17.2418 14.3692 17.0662 14.6818 16.7536C14.9943 16.4411 15.1699 16.0171 15.1699 15.5751V12.2418C15.1699 12.0208 15.2577 11.8088 15.414 11.6525C15.5703 11.4962 15.7822 11.4084 16.0033 11.4084C16.2243 11.4084 16.4362 11.4962 16.5925 11.6525C16.7488 11.8088 16.8366 12.0208 16.8366 12.2418V15.5751C16.8366 16.4592 16.4854 17.307 15.8603 17.9321C15.2352 18.5572 14.3873 18.9084 13.5033 18.9084H3.50325C2.6192 18.9084 1.77135 18.5572 1.14623 17.9321C0.521111 17.307 0.169922 16.4592 0.169922 15.5751V5.5751C0.169922 4.69105 0.521111 3.8432 1.14623 3.21808C1.77135 2.59296 2.6192 2.24177 3.50325 2.24177H6.83659Z" fill="black"/>
</svg>
