<svg width="14" height="20" viewBox="0 0 14 20" fill="none" xmlns="http://www.w3.org/2000/svg">
<path d="M7.6333 1.33325C7.42497 1.33325 7.2083 1.33325 6.99997 1.33325C6.79164 1.33325 6.57497 1.33325 6.36664 1.33325C2.19997 1.74159 -0.0333634 6.44992 1.94164 10.1166L6.3583 18.3333C6.4198 18.4502 6.51208 18.5481 6.62517 18.6164C6.73825 18.6847 6.86786 18.7208 6.99997 18.7208C7.13208 18.7208 7.26168 18.6847 7.37477 18.6164C7.48786 18.5481 7.58014 18.4502 7.64164 18.3333L12.0583 10.1416C14.0333 6.44992 11.775 1.74159 7.6333 1.33325Z" stroke="#333333" stroke-width="1.5" stroke-linecap="round" stroke-linejoin="bevel"/>
<path d="M9.08329 7.08333C9.08329 5.93274 8.15055 5 6.99996 5C5.84937 5 4.91663 5.93274 4.91663 7.08333C4.91663 8.23393 5.84937 9.16667 6.99996 9.16667C8.15055 9.16667 9.08329 8.23393 9.08329 7.08333Z" stroke="#333333" stroke-width="1.5" stroke-linecap="round" stroke-linejoin="bevel"/>
</svg>
