<svg width="22" height="20" viewBox="0 0 22 20" fill="none" xmlns="http://www.w3.org/2000/svg">
<path d="M19 4.87366H3C1.89543 4.87366 1 5.76909 1 6.87366V16.8737C1 17.9782 1.89543 18.8737 3 18.8737H19C20.1046 18.8737 21 17.9782 21 16.8737V6.87366C21 5.76909 20.1046 4.87366 19 4.87366Z" stroke="#00733F" stroke-width="1.5" stroke-linecap="round" stroke-linejoin="bevel"/>
<path d="M6 4.71376V2.97376C6 2.44332 6.21071 1.93461 6.58579 1.55954C6.96086 1.18447 7.46957 0.973755 8 0.973755H14C14.5304 0.973755 15.0391 1.18447 15.4142 1.55954C15.7893 1.93461 16 2.44332 16 2.97376V4.71376" stroke="#00733F" stroke-width="1.5" stroke-linecap="round" stroke-linejoin="bevel"/>
</svg>
