<svg width="26" height="26" viewBox="0 0 26 26" fill="none" xmlns="http://www.w3.org/2000/svg">
<path d="M10.5308 0.315041C10.5308 0.315041 11.0741 0 12.7991 0C14.6432 0 15.2228 0.315041 15.2228 0.315041L14.9582 5.31089H10.7969L10.5308 0.315041Z" fill="url(#paint0_linear)"/>
<path d="M10.7969 5.31086C10.7969 5.31086 10.178 0.315002 10.5323 0.315002C10.7577 0.315002 10.9103 3.60823 10.7969 5.31086Z" fill="#09293D"/>
<path d="M14.9596 5.31086C14.9596 5.31086 15.4511 0.315002 15.2242 0.315002C14.9974 0.315002 14.8462 3.60823 14.9596 5.31086Z" fill="#09293D"/>
<path d="M11.2923 5.31083H11.4436C11.5234 2.54267 11.3119 0.816241 11.1999 0.12175C11.1467 0.131551 11.0977 0.141352 11.0515 0.151154C11.1621 0.840044 11.3722 2.55387 11.2923 5.31083Z" fill="url(#paint1_linear)"/>
<path d="M14.6027 0.138546C14.5565 0.130144 14.5061 0.121743 14.4543 0.113342C14.3801 0.669215 14.2022 2.35503 14.2638 5.31222H14.4151C14.3535 2.36904 14.5299 0.691618 14.6027 0.138546Z" fill="url(#paint2_linear)"/>
<path d="M4.52393 3.23865C4.52393 3.23865 4.83617 2.69398 6.33016 1.83146C7.92777 0.910143 8.58726 0.893341 8.58726 0.893341L10.8556 5.35152L7.25148 7.4336L4.52393 3.23865Z" fill="url(#paint3_linear)"/>
<path d="M7.25162 7.43366C7.25162 7.43366 4.21882 3.41654 4.52406 3.24012C4.72008 3.1253 6.49832 5.90186 7.25162 7.43366Z" fill="#09293D"/>
<path d="M10.857 5.35153C10.857 5.35153 8.7861 0.778531 8.58867 0.893346C8.39124 1.00676 9.90625 3.93314 10.857 5.35153Z" fill="#09293D"/>
<path d="M7.68147 7.1859L7.81309 7.11029C6.49831 4.67257 5.45098 3.28359 5.00712 2.73752C4.96651 2.77252 4.92731 2.80613 4.8923 2.83693C5.33336 3.3774 6.3723 4.75798 7.68147 7.1859Z" fill="url(#paint4_linear)"/>
<path d="M7.9628 1.05019C7.91799 1.06559 7.87038 1.08379 7.81998 1.10199C8.0342 1.62006 8.72309 3.17006 10.2549 5.69879L10.3865 5.62318C8.86171 3.10565 8.17562 1.56545 7.9628 1.05019Z" fill="url(#paint5_linear)"/>
<path d="M0.765747 8.80588C0.765747 8.80588 0.764347 8.1786 1.62686 6.6832C2.54958 5.08559 3.11245 4.74115 3.11245 4.74115L7.306 7.46871L5.22533 11.0742L0.765747 8.80588Z" fill="url(#paint6_linear)"/>
<path d="M5.22547 11.0739C5.22547 11.0739 0.589463 9.11085 0.767286 8.80561C0.880701 8.60959 3.80708 10.1246 5.22547 11.0739Z" fill="#09293D"/>
<path d="M7.3075 7.46997C7.3075 7.46997 3.22737 4.54499 3.11396 4.74241C2.99914 4.93844 5.7757 6.71527 7.3075 7.46997Z" fill="#09293D"/>
<path d="M5.47328 10.6457L5.54889 10.5141C3.19239 9.06069 1.59058 8.3816 0.93249 8.13097C0.914288 8.18137 0.897486 8.22898 0.883484 8.27378C1.53597 8.52162 3.12518 9.19651 5.47328 10.6457Z" fill="url(#paint7_linear)"/>
<path d="M2.64901 5.19061C2.6182 5.22702 2.586 5.26622 2.55099 5.30683C2.99625 5.64847 4.36703 6.6454 6.95877 8.07079L7.03438 7.93917C4.45524 6.52219 3.09147 5.53086 2.64901 5.19061Z" fill="url(#paint8_linear)"/>
<path d="M0.315041 15.4693C0.315041 15.4693 0 14.926 0 13.201C0 11.3556 0.315041 10.7759 0.315041 10.7759L5.31089 11.0405V15.2033L0.315041 15.4693Z" fill="url(#paint9_linear)"/>
<path d="M5.31086 15.2032C5.31086 15.2032 0.315002 15.8221 0.315002 15.4692C0.315002 15.241 3.60823 15.0898 5.31086 15.2032Z" fill="#09293D"/>
<path d="M5.31086 11.0404C5.31086 11.0404 0.315002 10.5475 0.315002 10.7758C0.315002 11.0026 3.60823 11.1538 5.31086 11.0404Z" fill="#09293D"/>
<path d="M5.31081 14.7075V14.5563C2.54265 14.4765 0.816225 14.6879 0.121735 14.7999C0.131536 14.8531 0.141337 14.9035 0.151138 14.9483C0.840029 14.8363 2.55385 14.6263 5.31081 14.7075Z" fill="url(#paint10_linear)"/>
<path d="M0.138546 11.396C0.130144 11.4422 0.121743 11.4926 0.113342 11.5458C0.669215 11.6201 2.35503 11.7979 5.31222 11.7363V11.585C2.36904 11.6453 0.691618 11.4688 0.138546 11.396Z" fill="url(#paint11_linear)"/>
<path d="M3.23861 21.4759C3.23861 21.4759 2.69394 21.1636 1.83143 19.6696C0.908709 18.072 0.891907 17.4125 0.891907 17.4125L5.35149 15.1442L7.43357 18.7497L3.23861 21.4759Z" fill="url(#paint12_linear)"/>
<path d="M7.43366 18.7486C7.43366 18.7486 3.41654 21.7813 3.24012 21.4761C3.1253 21.2787 5.90186 19.5004 7.43366 18.7486Z" fill="#09293D"/>
<path d="M5.35167 15.1431C5.35167 15.1431 0.778675 17.214 0.89209 17.4114C1.0069 17.6074 3.93329 16.0924 5.35167 15.1431Z" fill="#09293D"/>
<path d="M7.1859 18.3185L7.11029 18.1869C4.67257 19.5017 3.28359 20.5476 2.73752 20.9929C2.77252 21.0349 2.80613 21.0727 2.83693 21.1077C3.3774 20.6666 4.75658 19.6277 7.1859 18.3185Z" fill="url(#paint13_linear)"/>
<path d="M1.0502 18.0373C1.0656 18.0821 1.08381 18.1297 1.10201 18.1801C1.62008 17.9659 3.17008 17.277 5.70021 15.7452L5.6246 15.6135C3.10567 17.1383 1.56547 17.8244 1.0502 18.0373Z" fill="url(#paint14_linear)"/>
<path d="M8.80588 25.2327C8.80588 25.2327 8.1786 25.2341 6.6832 24.3716C5.08559 23.4489 4.74115 22.886 4.74115 22.886L7.46871 18.6925L11.0742 20.7745L8.80588 25.2327Z" fill="url(#paint15_linear)"/>
<path d="M11.0739 20.7745C11.0739 20.7745 9.11087 25.4105 8.80563 25.2326C8.6096 25.1192 10.1246 22.1914 11.0739 20.7745Z" fill="#09293D"/>
<path d="M7.46997 18.6925C7.46997 18.6925 4.54499 22.7726 4.74241 22.886C4.93844 22.9994 6.71527 20.2243 7.46997 18.6925Z" fill="#09293D"/>
<path d="M10.6456 20.5266L10.5139 20.451C9.06055 22.8075 8.38146 24.4094 8.12943 25.0674C8.18123 25.0856 8.22884 25.1024 8.27364 25.1164C8.52148 24.4626 9.19636 22.8734 10.6456 20.5266Z" fill="#09293D"/>
<path d="M5.19061 23.3495C5.22702 23.3803 5.26622 23.4125 5.30683 23.4475C5.64847 23.0022 6.6468 21.6314 8.07079 19.0397L7.94057 18.9641C6.52219 21.5432 5.53086 22.907 5.19061 23.3495Z" fill="url(#paint16_linear)"/>
<path d="M15.4679 25.6835C15.4679 25.6835 14.9246 25.9986 13.1996 25.9986C11.3556 25.9986 10.7759 25.6835 10.7759 25.6835L11.0405 20.6877H15.2033L15.4679 25.6835Z" fill="url(#paint17_linear)"/>
<path d="M15.2031 20.6877C15.2031 20.6877 15.8206 25.6835 15.4677 25.6835C15.2409 25.6835 15.0897 22.3917 15.2031 20.6877Z" fill="#09293D"/>
<path d="M11.0404 20.6877C11.0404 20.6877 10.5475 25.6835 10.7758 25.6835C11.0026 25.6835 11.1538 22.3917 11.0404 20.6877Z" fill="#09293D"/>
<path d="M14.7075 20.6892H14.5563C14.4765 23.4574 14.6879 25.1838 14.7999 25.8783C14.8531 25.8685 14.9035 25.8587 14.9483 25.8489C14.8363 25.16 14.6263 23.4462 14.7075 20.6892Z" fill="url(#paint18_linear)"/>
<path d="M11.396 25.8614C11.4436 25.8698 11.4926 25.8782 11.5458 25.8866C11.6201 25.3307 11.7979 23.6449 11.7363 20.6877H11.585C11.6453 23.6309 11.4688 25.3083 11.396 25.8614Z" fill="url(#paint19_linear)"/>
<path d="M21.4759 22.7599C21.4759 22.7599 21.1636 23.3045 19.6697 24.1671C18.072 25.0884 17.4126 25.1066 17.4126 25.1066L15.1443 20.647L18.7497 18.5663L21.4759 22.7599Z" fill="url(#paint20_linear)"/>
<path d="M18.7486 18.5663C18.7486 18.5663 21.7814 22.5835 21.4761 22.7599C21.2787 22.8733 19.5005 20.0981 18.7486 18.5663Z" fill="#09293D"/>
<path d="M15.1431 20.6472C15.1431 20.6472 17.214 25.2202 17.4114 25.1067C17.6074 24.9933 16.0924 22.0655 15.1431 20.6472Z" fill="#09293D"/>
<path d="M18.3187 18.8142L18.1885 18.8898C19.5032 21.3275 20.5492 22.7165 20.9944 23.2626C21.0364 23.2276 21.0743 23.1954 21.1079 23.1632C20.6668 22.6227 19.6279 21.2421 18.3187 18.8142Z" fill="url(#paint21_linear)"/>
<path d="M18.0371 24.9499C18.0819 24.9345 18.1295 24.9163 18.1799 24.8981C17.9657 24.38 17.2768 22.83 15.745 20.2999L15.6148 20.3755C17.1382 22.8944 17.8243 24.4332 18.0371 24.9499Z" fill="url(#paint22_linear)"/>
<path d="M25.2327 17.193C25.2327 17.193 25.2341 17.8203 24.3716 19.3157C23.4489 20.9133 22.886 21.2577 22.886 21.2577L18.6925 18.5302L20.7745 14.9247L25.2327 17.193Z" fill="url(#paint23_linear)"/>
<path d="M20.7744 14.9247C20.7744 14.9247 25.4105 16.8878 25.2326 17.193C25.1192 17.3904 22.1914 15.8754 20.7744 14.9247Z" fill="#09293D"/>
<path d="M18.6925 18.5301C18.6925 18.5301 22.7726 21.455 22.886 21.2576C22.9994 21.0602 20.2243 19.2834 18.6925 18.5301Z" fill="#09293D"/>
<path d="M20.5267 15.3543L20.451 15.4845C22.8076 16.9379 24.4094 17.617 25.0675 17.8677C25.0857 17.8159 25.1025 17.7696 25.1165 17.7248C24.4626 17.477 22.8734 16.8021 20.5267 15.3543Z" fill="url(#paint24_linear)"/>
<path d="M23.3495 20.8081C23.3803 20.7717 23.4125 20.7325 23.4475 20.6918C23.0022 20.3488 21.6315 19.3519 19.0397 17.9279L18.9641 18.0595C21.5432 19.4779 22.9084 20.4692 23.3495 20.8081Z" fill="url(#paint25_linear)"/>
<path d="M25.6835 10.5308C25.6835 10.5308 25.9986 11.0741 25.9986 12.8005C25.9986 14.6445 25.6835 15.2242 25.6835 15.2242L20.6877 14.9596V10.7968L25.6835 10.5308Z" fill="url(#paint26_linear)"/>
<path d="M20.6892 10.7967C20.6892 10.7967 25.6851 10.1778 25.6851 10.5307C25.6837 10.7589 22.3919 10.9101 20.6892 10.7967Z" fill="#09293D"/>
<path d="M20.6877 14.9596C20.6877 14.9596 25.6835 15.4525 25.6835 15.2242C25.6835 14.9974 22.3917 14.8462 20.6877 14.9596Z" fill="#09293D"/>
<path d="M20.6892 11.2923V11.4436C23.4574 11.5234 25.1838 11.3119 25.8783 11.1999C25.8685 11.1467 25.8587 11.0977 25.8489 11.0515C25.16 11.1621 23.4462 11.3721 20.6892 11.2923Z" fill="url(#paint27_linear)"/>
<path d="M25.8614 14.6027C25.8698 14.5565 25.8782 14.5061 25.8866 14.4542C25.3307 14.38 23.6449 14.2022 20.6877 14.2638V14.415C23.6309 14.3534 25.3083 14.5299 25.8614 14.6027Z" fill="url(#paint28_linear)"/>
<path d="M22.7599 4.52394C22.7599 4.52394 23.3045 4.83618 24.167 6.33018C25.0884 7.92778 25.1066 8.58727 25.1066 8.58727L20.647 10.8556L18.5663 7.2515L22.7599 4.52394Z" fill="url(#paint29_linear)"/>
<path d="M18.5663 7.25162C18.5663 7.25162 22.5834 4.21882 22.7599 4.52406C22.8733 4.72148 20.0981 6.49832 18.5663 7.25162Z" fill="#09293D"/>
<path d="M20.6472 10.857C20.6472 10.857 25.2202 8.78477 25.1067 8.58875C24.9933 8.39132 22.0655 9.90772 20.6472 10.857Z" fill="#09293D"/>
<path d="M18.8142 7.68131L18.8898 7.81153C21.3261 6.49676 22.7151 5.44942 23.2626 5.00556C23.2276 4.96356 23.1954 4.92575 23.1632 4.89075C22.6213 5.3332 21.2421 6.37214 18.8142 7.68131Z" fill="url(#paint30_linear)"/>
<path d="M24.9499 7.96295C24.9345 7.91815 24.9163 7.87054 24.8981 7.82153C24.38 8.03436 22.83 8.72465 20.2999 10.2565L20.3755 10.3867C22.893 8.86187 24.4332 8.17578 24.9499 7.96295Z" fill="url(#paint31_linear)"/>
<path d="M17.193 0.765747C17.193 0.765747 17.8203 0.764347 19.3157 1.62686C20.9133 2.54958 21.2577 3.11245 21.2577 3.11245L18.5302 7.306L14.9247 5.22393L17.193 0.765747Z" fill="url(#paint32_linear)"/>
<path d="M14.9247 5.22547C14.9247 5.22547 16.8878 0.589463 17.193 0.767286C17.3904 0.880701 15.8754 3.80708 14.9247 5.22547Z" fill="#09293D"/>
<path d="M18.5301 7.3075C18.5301 7.3075 21.455 3.22737 21.2576 3.11396C21.0602 2.99914 19.2834 5.7757 18.5301 7.3075Z" fill="#09293D"/>
<path d="M15.3543 5.47328L15.4846 5.54889C16.9379 3.19239 17.617 1.59058 17.8677 0.93249C17.8173 0.914288 17.7697 0.897486 17.7249 0.883484C17.477 1.53597 16.8021 3.12518 15.3543 5.47328Z" fill="url(#paint33_linear)"/>
<path d="M20.8083 2.64901C20.7719 2.6182 20.7341 2.586 20.6921 2.55099C20.3504 2.99625 19.3521 4.36703 17.9267 6.95877L18.0583 7.03438C19.4781 4.45665 20.4695 3.09147 20.8083 2.64901Z" fill="url(#paint34_linear)"/>
<path opacity="0.0625" d="M21.4843 10.7324C21.1762 9.78447 21.5543 8.4795 20.9802 7.6912C20.4005 6.8945 19.0382 6.85249 18.2415 6.27281C17.4532 5.69874 16.9953 4.41197 16.0474 4.10533C15.1331 3.80849 14.0115 4.57019 12.9978 4.57019C11.984 4.57019 10.8625 3.80849 9.94818 4.10533C9.00306 4.41197 8.5452 5.69874 7.75689 6.27141C6.96019 6.85109 5.59781 6.8931 5.01813 7.6898C4.44406 8.4781 4.82071 9.78447 4.51407 10.7324C4.21723 11.6467 3.13489 12.4756 3.13489 13.4894C3.13489 14.5031 4.21723 15.332 4.51407 16.2463C4.82071 17.1942 4.44406 18.4992 5.01813 19.2875C5.59781 20.0842 6.96019 20.1262 7.75689 20.7059C8.5452 21.28 9.00306 22.5653 9.95098 22.8734C10.8653 23.1702 11.9868 22.4085 13.0006 22.4085C14.0129 22.4085 15.1359 23.1702 16.0502 22.8734C16.9981 22.5653 17.4546 21.28 18.2443 20.7059C19.041 20.1262 20.4033 20.0842 20.983 19.2875C21.5571 18.4992 21.179 17.1928 21.4871 16.2449C21.7839 15.3306 22.8663 14.5017 22.8663 13.488C22.8649 12.4756 21.7811 11.6467 21.4843 10.7324Z" fill="#F1F1F1"/>
<path opacity="0.125" d="M21.4704 10.6947C21.1624 9.74677 21.5404 8.4418 20.9663 7.6535C20.3867 6.85679 19.0243 6.81479 18.2276 6.23511C17.4393 5.66103 16.9814 4.37567 16.0335 4.06763C15.1192 3.77079 13.9976 4.53249 12.9839 4.53249C11.9702 4.53249 10.8486 3.77079 9.93428 4.06763C8.98636 4.37567 8.5299 5.66103 7.7402 6.23511C6.94349 6.81479 5.58112 6.85679 5.00144 7.6535C4.42737 8.4418 4.80401 9.74817 4.49737 10.6961C4.20054 11.6104 3.11819 12.4393 3.11819 13.4531C3.11819 14.4668 4.20054 15.2957 4.49737 16.21C4.80401 17.1579 4.42737 18.4629 5.00144 19.2512C5.58112 20.0479 6.94349 20.0899 7.7402 20.6696C8.5285 21.2437 8.98636 22.529 9.93428 22.8371C10.8486 23.1339 11.9702 22.3722 12.9839 22.3722C13.9962 22.3722 15.1192 23.1339 16.0335 22.8371C16.9814 22.529 17.4379 21.2437 18.2276 20.6696C19.0243 20.0899 20.3867 20.0479 20.9663 19.2512C21.5404 18.4629 21.1624 17.1565 21.4704 16.2086C21.7672 15.2943 22.8496 14.4654 22.8496 13.4517C22.8496 12.4379 21.7672 11.609 21.4704 10.6947Z" fill="#E4E4E4"/>
<path opacity="0.1875" d="M21.4549 10.6569C21.1468 9.70896 21.5249 8.40399 20.9508 7.61568C20.3711 6.81898 19.0087 6.77697 18.212 6.1973C17.4237 5.62322 16.9659 4.33646 16.018 4.02982C15.1036 3.73298 13.9821 4.49468 12.9684 4.49468C11.9546 4.49468 10.8331 3.73298 9.91875 4.02982C8.97083 4.33786 8.51437 5.62322 7.72467 6.1973C6.92796 6.77697 5.56558 6.81898 4.98591 7.61568C4.41183 8.40399 4.78848 9.71036 4.48184 10.6583C4.185 11.5726 3.10266 12.4015 3.10266 13.4152C3.10266 14.429 4.185 15.2579 4.48184 16.1722C4.78988 17.1201 4.41183 18.4251 4.98591 19.2134C5.56558 20.0101 6.92796 20.0521 7.72467 20.6318C8.51297 21.2059 8.97083 22.4912 9.91875 22.7993C10.8331 23.0961 11.9546 22.3344 12.9684 22.3344C13.9807 22.3344 15.1036 23.0961 16.018 22.7993C16.9659 22.4912 17.4223 21.2059 18.212 20.6318C19.0087 20.0521 20.3711 20.0101 20.9508 19.2134C21.5249 18.4251 21.1468 17.1187 21.4549 16.1708C21.7517 15.2565 22.834 14.4276 22.834 13.4138C22.834 12.4001 21.7517 11.5712 21.4549 10.6569Z" fill="#D6D6D6"/>
<path opacity="0.25" d="M21.441 10.6191C21.1329 9.67113 21.511 8.36616 20.9369 7.57786C20.3572 6.78115 18.9949 6.73915 18.1982 6.15947C17.4098 5.5854 16.952 4.30003 16.0041 3.99199C15.0897 3.69515 13.9682 4.45685 12.9545 4.45685C11.9407 4.45685 10.8192 3.69515 9.90487 3.99199C8.95694 4.30003 8.50048 5.5854 7.71078 6.15947C6.91408 6.73915 5.5517 6.78115 4.97202 7.57786C4.39795 8.36616 4.7746 9.67253 4.46796 10.6205C4.17112 11.5348 3.08878 12.3651 3.08878 13.3774C3.08878 14.3911 4.17112 15.2201 4.46796 16.1344C4.776 17.0823 4.39795 18.3873 4.97202 19.1756C5.5517 19.9723 6.91408 20.0143 7.71078 20.594C8.49908 21.168 8.95694 22.4534 9.90487 22.7614C10.8192 23.0583 11.9407 22.2966 12.9545 22.2966C13.9682 22.2966 15.0897 23.0583 16.0041 22.7614C16.952 22.4534 17.4084 21.168 18.1982 20.594C18.9949 20.0143 20.3572 19.9723 20.9369 19.1756C21.511 18.3873 21.1329 17.0809 21.441 16.133C21.7378 15.2187 22.8202 14.3897 22.8202 13.376C22.8202 12.3623 21.7378 11.5334 21.441 10.6191Z" fill="#C9C9C9"/>
<path opacity="0.3125" d="M21.4254 10.5797C21.1174 9.63175 21.4954 8.32678 20.9214 7.53848C20.3417 6.74177 18.9793 6.69977 18.1826 6.12009C17.3943 5.54601 16.9365 4.26065 15.9885 3.95261C15.0742 3.65577 13.9527 4.41747 12.9389 4.41747C11.9252 4.41747 10.8037 3.65577 9.88933 3.95261C8.94141 4.26065 8.48495 5.54601 7.69525 6.12009C6.89854 6.69977 5.53616 6.74177 4.95649 7.53848C4.38241 8.32678 4.75906 9.63315 4.45242 10.5811C4.15558 11.4954 3.07324 12.3257 3.07324 13.338C3.07324 14.3518 4.15558 15.1821 4.45242 16.095C4.76046 17.0429 4.38241 18.3479 4.95649 19.1362C5.53616 19.9329 6.89854 19.9749 7.69525 20.5546C8.48355 21.1287 8.94141 22.414 9.88933 22.7221C10.8037 23.0189 11.9252 22.2572 12.9389 22.2572C13.9527 22.2572 15.0742 23.0189 15.9885 22.7221C16.9365 22.414 17.3929 21.1287 18.1826 20.5546C18.9793 19.9749 20.3417 19.9329 20.9214 19.1362C21.4954 18.3479 21.1174 17.0415 21.4254 16.0936C21.7223 15.1793 22.8046 14.3504 22.8046 13.3366C22.8046 12.3243 21.7223 11.494 21.4254 10.5797Z" fill="#BBBBBB"/>
<path opacity="0.375" d="M21.4116 10.542C21.1035 9.59404 21.4816 8.28907 20.9075 7.50077C20.3278 6.70407 18.9655 6.66206 18.1688 6.08238C17.3805 5.50831 16.9226 4.22294 15.9747 3.9149C15.0604 3.61806 13.9388 4.37976 12.9251 4.37976C11.9113 4.37976 10.7898 3.61806 9.87548 3.9149C8.92755 4.22294 8.4711 5.50831 7.68139 6.08238C6.88469 6.66206 5.52231 6.70407 4.94263 7.50077C4.36856 8.28907 4.74521 9.59545 4.43857 10.5434C4.14173 11.4577 3.05939 12.288 3.05939 13.3003C3.05939 14.3141 4.14173 15.1444 4.43857 16.0573C4.74661 17.0052 4.36856 18.3102 4.94263 19.0985C5.52231 19.8952 6.88469 19.9372 7.68139 20.5169C8.4697 21.0909 8.92755 22.3763 9.87548 22.6844C10.7898 22.9812 11.9113 22.2195 12.9251 22.2195C13.9388 22.2195 15.0604 22.9812 15.9747 22.6844C16.9226 22.3763 17.3791 21.0909 18.1688 20.5169C18.9655 19.9372 20.3278 19.8952 20.9075 19.0985C21.4816 18.3102 21.1035 17.0038 21.4116 16.0559C21.7084 15.1416 22.7908 14.3113 22.7908 13.2989C22.7908 12.2866 21.7084 11.4563 21.4116 10.542Z" fill="#AEAEAE"/>
<path opacity="0.4375" d="M21.396 10.5042C21.088 9.55623 21.466 8.25126 20.892 7.46296C20.3123 6.66625 18.9499 6.62425 18.1532 6.04457C17.3649 5.4705 16.907 4.18513 15.9591 3.87709C15.0448 3.58025 13.9232 4.34195 12.9095 4.34195C11.8958 4.34195 10.7742 3.58025 9.85991 3.87709C8.91199 4.18513 8.45553 5.4705 7.66583 6.04457C6.86912 6.62425 5.50675 6.66625 4.92707 7.46296C4.35299 8.25126 4.72964 9.55763 4.423 10.5056C4.12616 11.4199 3.04382 12.2502 3.04382 13.2625C3.04382 14.2762 4.12616 15.1066 4.423 16.0195C4.73104 16.9674 4.35299 18.2724 4.92707 19.0607C5.50675 19.8574 6.86912 19.8994 7.66583 20.4791C8.45413 21.0531 8.91199 22.3385 9.85991 22.6465C10.7742 22.9434 11.8958 22.1817 12.9095 22.1817C13.9232 22.1817 15.0448 22.9434 15.9591 22.6465C16.907 22.3385 17.3635 21.0531 18.1532 20.4791C18.9499 19.8994 20.3123 19.8574 20.892 19.0607C21.466 18.2724 21.088 16.966 21.396 16.0195C21.6929 15.1052 22.7752 14.2748 22.7752 13.2625C22.7752 12.2488 21.6929 11.4185 21.396 10.5042Z" fill="#A0A0A0"/>
<path opacity="0.5" d="M21.382 10.4663C21.074 9.51842 21.4521 8.21345 20.878 7.42515C20.2983 6.62844 18.9359 6.58644 18.1392 6.00676C17.3509 5.43269 16.8931 4.14732 15.9451 3.83928C15.0308 3.54244 13.9093 4.30414 12.8955 4.30414C11.8818 4.30414 10.7603 3.54244 9.84594 3.83928C8.89801 4.14732 8.44015 5.43269 7.65185 6.00676C6.85515 6.58644 5.49277 6.62844 4.91309 7.42515C4.33902 8.21345 4.71567 9.51982 4.40903 10.4677C4.11219 11.3821 3.02985 12.2124 3.02985 13.2247C3.02985 14.2384 4.11219 15.0687 4.40903 15.9817C4.71707 16.9296 4.33902 18.2346 4.91309 19.0229C5.49277 19.8196 6.85515 19.8616 7.65185 20.4412C8.44015 21.0153 8.89801 22.3007 9.84594 22.6087C10.7603 22.9056 11.8818 22.1439 12.8955 22.1439C13.9093 22.1439 15.0308 22.9056 15.9451 22.6087C16.8931 22.3007 17.3495 21.0153 18.1392 20.4412C18.9359 19.8616 20.2983 19.8196 20.878 19.0229C21.4521 18.2346 21.074 16.9282 21.382 15.9817C21.6789 15.0673 22.7612 14.237 22.7612 13.2247C22.7612 12.211 21.6789 11.3807 21.382 10.4663Z" fill="#939393"/>
<path opacity="0.5625" d="M21.3669 10.4285C21.0589 9.48059 21.437 8.17562 20.8629 7.38732C20.2832 6.59062 18.9208 6.54861 18.1241 5.96894C17.3358 5.39486 16.878 4.10949 15.93 3.80145C15.0157 3.50461 13.8942 4.26631 12.8804 4.26631C11.8667 4.26631 10.7452 3.50461 9.83084 3.80145C8.88291 4.10949 8.42645 5.39486 7.63815 5.96894C6.84145 6.54861 5.47907 6.58922 4.90079 7.38592C4.32672 8.17422 4.70337 9.48059 4.39673 10.4285C4.09989 11.3428 3.01755 12.1731 3.01755 13.1855C3.01755 14.1992 4.09989 15.0295 4.39673 15.9424C4.70477 16.8904 4.32672 18.1953 4.90079 18.9836C5.48047 19.7803 6.84285 19.8223 7.63955 20.402C8.42786 20.9761 8.88572 22.2615 9.83364 22.5695C10.748 22.8663 11.8695 22.1046 12.8832 22.1046C13.897 22.1046 15.0185 22.8663 15.9328 22.5695C16.8808 22.2615 17.3372 20.9761 18.1269 20.402C18.9236 19.8223 20.286 19.7803 20.8657 18.9836C21.4398 18.1953 21.0631 16.889 21.3697 15.941C21.6666 15.0267 22.7489 14.1964 22.7489 13.1841C22.7461 12.1717 21.6638 11.3428 21.3669 10.4285Z" fill="#858585"/>
<path opacity="0.625" d="M21.3515 10.3908C21.0435 9.44289 21.4215 8.13792 20.8474 7.34962C20.2678 6.55291 18.9054 6.51091 18.1087 5.93123C17.3204 5.35716 16.8625 4.07179 15.9146 3.76375C15.0003 3.46691 13.8787 4.22861 12.865 4.22861C11.8513 4.22861 10.7297 3.46691 9.81539 3.76375C8.86747 4.07179 8.41101 5.35716 7.6213 5.93123C6.8246 6.51091 5.46222 6.55291 4.88254 7.34962C4.30847 8.13792 4.68512 9.44429 4.37848 10.3922C4.08164 11.3065 2.9993 12.1368 2.9993 13.1492C2.9993 14.1629 4.08164 14.9932 4.37848 15.9061C4.68652 16.8541 4.30847 18.159 4.88254 18.9473C5.46222 19.744 6.8246 19.786 7.6213 20.3657C8.40961 20.9398 8.86747 22.2252 9.81539 22.5332C10.7297 22.83 11.8513 22.0683 12.865 22.0683C13.8787 22.0683 15.0003 22.83 15.9146 22.5332C16.8625 22.2252 17.3204 20.9398 18.1087 20.3657C18.9054 19.786 20.2678 19.744 20.8474 18.9473C21.4215 18.159 21.0449 16.8527 21.3515 15.9061C21.6483 14.9918 22.7307 14.1615 22.7307 13.1492C22.7321 12.134 21.6497 11.3051 21.3515 10.3908Z" fill="#777777"/>
<path opacity="0.6875" d="M21.3374 10.353C21.0294 9.40508 21.4074 8.10011 20.8334 7.31181C20.2537 6.5151 18.8913 6.4731 18.096 5.89342C17.3077 5.31934 16.8498 4.03398 15.9019 3.72594C14.9876 3.4291 13.8661 4.1908 12.8523 4.1908C11.8386 4.1908 10.717 3.4291 9.80273 3.72594C8.8548 4.03398 8.39834 5.31934 7.61004 5.89342C6.81334 6.4731 5.45096 6.5151 4.87128 7.31181C4.29721 8.10011 4.67386 9.40648 4.36722 10.3544C4.07038 11.2687 2.98804 12.099 2.98804 13.1114C2.98804 14.1251 4.07038 14.9554 4.36722 15.8683C4.67526 16.8162 4.29721 18.1212 4.87128 18.9095C5.45096 19.7062 6.81334 19.7482 7.61004 20.3279C8.39834 20.902 8.8562 22.1874 9.80413 22.4954C10.7184 22.7922 11.84 22.0305 12.8537 22.0305C13.8675 22.0305 14.989 22.7922 15.9033 22.4954C16.8513 22.1874 17.3091 20.902 18.0974 20.3279C18.8941 19.7482 20.2565 19.7062 20.8362 18.9095C21.4102 18.1212 21.0336 16.8148 21.3402 15.8683C21.6371 14.954 22.7194 14.1237 22.7194 13.1114C22.7166 12.0962 21.6343 11.2673 21.3374 10.353Z" fill="#6A6A6A"/>
<path opacity="0.75" d="M21.322 10.3152C21.014 9.36727 21.392 8.0623 20.8179 7.27399C20.2383 6.47729 18.8759 6.43528 18.0806 5.85561C17.2923 5.28153 16.8344 3.99617 15.8865 3.68813C14.9722 3.39129 13.8506 4.15299 12.8369 4.15299C11.8232 4.15299 10.7016 3.39129 9.78729 3.68813C8.83936 3.99617 8.3829 5.28153 7.5946 5.85561C6.7979 6.43528 5.43552 6.47729 4.85584 7.27399C4.28177 8.0623 4.65842 9.36867 4.35178 10.3166C4.05494 11.2309 2.9726 12.0612 2.9726 13.0736C2.9726 14.0873 4.05494 14.9176 4.35178 15.8305C4.65982 16.7784 4.28177 18.0834 4.85584 18.8717C5.43552 19.6684 6.7979 19.7104 7.5946 20.2901C8.3829 20.8642 8.84076 22.1495 9.78729 22.4576C10.7016 22.7544 11.8232 21.9927 12.8369 21.9927C13.8506 21.9927 14.9722 22.7544 15.8865 22.4576C16.8344 22.1495 17.2923 20.8642 18.0806 20.2901C18.8773 19.7104 20.2397 19.6684 20.8193 18.8717C21.3934 18.0834 21.0168 16.777 21.3234 15.8305C21.6202 14.9162 22.7026 14.0859 22.7026 13.0736C22.7012 12.0584 21.6188 11.2281 21.322 10.3152Z" fill="#5C5C5C"/>
<path opacity="0.8125" d="M21.3079 10.2758C20.9998 9.32789 21.3779 8.02291 20.8038 7.23461C20.2241 6.43791 18.8617 6.3959 18.0664 5.81623C17.2781 5.24215 16.8203 3.95678 15.8724 3.64874C14.958 3.3519 13.8365 4.1136 12.8228 4.1136C11.809 4.1136 10.6875 3.3519 9.77315 3.64874C8.82523 3.95678 8.36877 5.24215 7.57907 5.81623C6.78236 6.3959 5.41998 6.43791 4.84031 7.23461C4.26623 8.02291 4.64288 9.32929 4.33624 10.2772C4.0394 11.1915 2.95706 12.0218 2.95706 13.0342C2.95706 14.0479 4.0394 14.8782 4.33624 15.7911C4.64428 16.7391 4.26623 18.044 4.84031 18.8323C5.41998 19.629 6.78236 19.671 7.57907 20.2507C8.36737 20.8248 8.82523 22.1102 9.77315 22.4182C10.6875 22.715 11.809 21.9533 12.8228 21.9533C13.8365 21.9533 14.958 22.715 15.8724 22.4182C16.8203 22.1102 17.2767 20.8248 18.0664 20.2507C18.8631 19.671 20.2255 19.629 20.8052 18.8323C21.3793 18.044 21.0026 16.7377 21.3093 15.7911C21.6061 14.8768 22.6884 14.0465 22.6884 13.0342C22.687 12.0204 21.6047 11.1901 21.3079 10.2758Z" fill="#4F4F4F"/>
<path opacity="0.875" d="M21.2926 10.2381C20.9859 9.29018 21.3626 7.98521 20.7885 7.19691C20.2088 6.4002 18.8464 6.3582 18.0511 5.77852C17.2628 5.20445 16.805 3.91908 15.8571 3.61104C14.9427 3.3142 13.8212 4.0759 12.8075 4.0759C11.7937 4.0759 10.6722 3.3142 9.75786 3.61104C8.80994 3.91908 8.35348 5.20445 7.56377 5.77852C6.76707 6.3582 5.40469 6.4002 4.82502 7.19691C4.25094 7.98521 4.62759 9.29158 4.31955 10.2381C4.02271 11.1524 2.94037 11.9827 2.94037 12.9951C2.94037 14.0088 4.02271 14.8391 4.31955 15.752C4.62759 16.7 4.24954 18.0049 4.82362 18.7932C5.40329 19.5899 6.76567 19.6319 7.56237 20.2116C8.35068 20.7857 8.80854 22.0711 9.75646 22.3791C10.6708 22.6759 11.7923 21.9142 12.8061 21.9142C13.8198 21.9142 14.9413 22.6759 15.8557 22.3791C16.8036 22.0711 17.26 20.7857 18.0497 20.2116C18.8464 19.6319 20.2088 19.5899 20.7885 18.7932C21.3626 18.0049 20.9859 16.6985 21.2926 15.752C21.5894 14.8377 22.6717 14.0074 22.6717 12.9951C22.6717 11.9827 21.5894 11.1524 21.2926 10.2381Z" fill="#414141"/>
<path opacity="0.9375" d="M21.2787 10.2003C20.972 9.25237 21.3487 7.9474 20.7746 7.1591C20.1949 6.36239 18.834 6.32039 18.0373 5.74071C17.249 5.16663 16.7897 3.88127 15.8432 3.57323C14.9303 3.27639 13.8073 4.03809 12.7936 4.03809C11.7798 4.03809 10.6583 3.27639 9.74397 3.57323C8.79605 3.88127 8.33819 5.16663 7.54989 5.74071C6.75318 6.32039 5.39081 6.36239 4.81113 7.1591C4.23705 7.9474 4.6137 9.25377 4.30566 10.2003C4.00882 11.1146 2.92648 11.9449 2.92648 12.9573C2.92648 13.971 4.00882 14.8013 4.30566 15.7142C4.6137 16.6621 4.23565 17.9671 4.80973 18.7554C5.38941 19.5521 6.75178 19.5941 7.54849 20.1738C8.33679 20.7479 8.79465 22.0332 9.74257 22.3413C10.6569 22.6381 11.7784 21.8764 12.7922 21.8764C13.8059 21.8764 14.9275 22.6381 15.8418 22.3413C16.7897 22.0332 17.2476 20.7479 18.0359 20.1738C18.8326 19.5941 20.1949 19.5521 20.7746 18.7554C21.3487 17.9671 20.972 16.6607 21.2787 15.7142C21.5755 14.7999 22.6579 13.9696 22.6579 12.9573C22.6579 11.9449 21.5755 11.1146 21.2787 10.2003Z" fill="#343434"/>
<path d="M21.2632 10.1625C20.9565 9.21454 21.3332 7.90957 20.7591 7.12127C20.1794 6.32456 18.8184 6.28256 18.0217 5.70288C17.2334 5.12881 16.7742 3.84344 15.8276 3.5354C14.9147 3.23856 13.7918 4.00026 12.778 4.00026C11.7643 4.00026 10.6428 3.23856 9.72844 3.5354C8.78052 3.84344 8.32406 5.12881 7.53435 5.70288C6.73765 6.28256 5.37527 6.32456 4.7956 7.12127C4.22152 7.90957 4.59817 9.21594 4.29013 10.1625C3.99329 11.0768 2.91095 11.9071 2.91095 12.9194C2.91095 13.9332 3.99329 14.7635 4.29013 15.6764C4.59817 16.6243 4.22012 17.9293 4.7942 18.7176C5.37387 19.5143 6.73625 19.5563 7.53295 20.136C8.32126 20.71 8.77912 21.9954 9.72704 22.3035C10.6414 22.6003 11.7629 21.8386 12.7766 21.8386C13.7904 21.8386 14.9119 22.6003 15.8262 22.3035C16.7742 21.9954 17.232 20.71 18.0203 20.136C18.817 19.5563 20.1794 19.5143 20.7591 18.7176C21.3332 17.9293 20.9565 16.6229 21.2632 15.6764C21.56 14.7621 22.6423 13.9318 22.6423 12.9194C22.6423 11.9071 21.56 11.0768 21.2632 10.1625Z" fill="#262626"/>
<path d="M22.6423 12.9194C22.6423 13.9332 21.56 14.7635 21.2632 15.6764C20.9565 16.6243 21.3332 17.9293 20.7591 18.7176C20.1794 19.5143 18.8184 19.5563 18.0203 20.136C17.232 20.71 16.7742 21.9954 15.8262 22.3035C14.9133 22.6003 13.7904 21.8386 12.7766 21.8386C11.7629 21.8386 10.6414 22.6003 9.72704 22.3035C8.77912 21.9954 8.32266 20.71 7.53295 20.136C6.73625 19.5563 5.37387 19.5143 4.7942 18.7176C4.22012 17.9293 4.59817 16.6229 4.29013 15.6764C3.99329 14.7621 2.91095 13.9318 2.91095 12.9194C2.91095 11.9071 3.99329 11.0768 4.29013 10.1625C4.59817 9.21454 4.22012 7.90957 4.7956 7.12127C5.37527 6.32456 6.73765 6.28256 7.53435 5.70288C8.32266 5.12881 8.78052 3.84344 9.72844 3.5354C10.6428 3.23856 11.7643 4.00026 12.778 4.00026C13.7918 4.00026 14.9133 3.23856 15.8276 3.5354C16.7756 3.84344 17.2334 5.12881 18.0217 5.70288C18.8184 6.28256 20.1794 6.32456 20.7591 7.12127C21.3332 7.90957 20.9565 9.21594 21.2632 10.1625C21.56 11.0768 22.6423 11.9071 22.6423 12.9194Z" fill="url(#paint35_linear)"/>
<path d="M21.2212 11.7404C20.9468 11.3526 20.6373 10.9115 20.4763 10.4173C20.3097 9.9048 20.2999 9.35312 20.2901 8.86446C20.2803 8.34499 20.2705 7.85493 20.0899 7.6071C19.905 7.35366 19.4388 7.19264 18.9445 7.02322C18.4853 6.865 17.9658 6.68578 17.5331 6.37073C17.1061 6.05989 16.7798 5.62444 16.49 5.23799C16.175 4.81793 15.8767 4.42028 15.5715 4.32087C15.5127 4.30266 15.4441 4.29286 15.3642 4.29286C15.0842 4.29286 14.7216 4.40348 14.3365 4.51969C13.8633 4.66391 13.3284 4.82633 12.7781 4.82633C12.2264 4.82633 11.6916 4.66391 11.2183 4.51969C10.8347 4.40348 10.472 4.29286 10.192 4.29286C10.1108 4.29286 10.0436 4.30266 9.98474 4.32087C9.6781 4.42028 9.38127 4.81793 9.06482 5.23939C8.77639 5.62444 8.44874 6.05989 8.02169 6.37073C7.58903 6.68578 7.06956 6.8636 6.6103 7.02182C6.11744 7.19124 5.64978 7.35226 5.46495 7.6057C5.28433 7.85353 5.27453 8.34359 5.26473 8.86446C5.25493 9.35172 5.24513 9.9034 5.0785 10.4159C4.91888 10.9101 4.60804 11.3512 4.33361 11.739C4.04237 12.1535 3.73993 12.5819 3.73993 12.9166C3.73993 13.2512 4.04237 13.6797 4.33501 14.0955C4.60804 14.4834 4.91888 14.9245 5.0785 15.4187C5.24513 15.9312 5.25633 16.4843 5.26473 16.9729C5.27453 17.491 5.28433 17.9825 5.46495 18.2303C5.64978 18.4837 6.11604 18.6447 6.6103 18.8156C7.06956 18.9738 7.58903 19.153 8.02169 19.4666C8.44874 19.7775 8.77639 20.2143 9.06482 20.5994C9.37987 21.0194 9.6781 21.4171 9.98474 21.5165C10.0436 21.5361 10.1108 21.5445 10.192 21.5445C10.472 21.5445 10.8347 21.4339 11.2197 21.3177C11.6916 21.1735 12.2278 21.011 12.7781 21.011C13.3298 21.011 13.8661 21.1735 14.3393 21.3177C14.723 21.4339 15.0856 21.5445 15.3656 21.5445C15.4469 21.5445 15.5141 21.5361 15.5729 21.5165C15.8795 21.4171 16.1778 21.0194 16.4942 20.598C16.7826 20.2129 17.1089 19.7775 17.5359 19.4666C17.9686 19.1516 18.4881 18.9738 18.9473 18.8142C19.4416 18.6447 19.9078 18.4837 20.0927 18.2303C20.2733 17.9825 20.2831 17.4924 20.2929 16.9729C20.3027 16.4857 20.3125 15.934 20.4791 15.4201C20.6401 14.9259 20.951 14.4848 21.224 14.0955C21.5167 13.6811 21.8177 13.2526 21.8177 12.918C21.8149 12.5847 21.5138 12.1563 21.2212 11.7404ZM21.021 14.0689C20.7536 14.4484 20.4511 14.8782 20.2929 15.3613C20.1305 15.8626 20.1207 16.4016 20.1109 16.8777C20.1011 17.3846 20.0913 17.8634 19.9162 18.1057C19.7356 18.3535 19.2806 18.5103 18.7989 18.6755C18.3508 18.831 17.8426 19.0046 17.4211 19.3126C17.0039 19.6151 16.686 20.0407 16.4032 20.416C16.0951 20.8276 15.8039 21.2155 15.5043 21.3121C15.4469 21.3303 15.381 21.3401 15.3026 21.3401C15.0296 21.3401 14.6754 21.2323 14.3001 21.1189C13.838 20.9788 13.3158 20.8192 12.7767 20.8192C12.239 20.8192 11.7154 20.9774 11.2547 21.1189C10.8795 21.2323 10.5252 21.3401 10.2522 21.3401C10.1738 21.3401 10.108 21.3303 10.0506 21.3121C9.75231 21.2155 9.46108 20.8276 9.15304 20.4174C8.8716 20.0407 8.55236 19.6151 8.1351 19.3126C7.71225 19.006 7.20538 18.831 6.75732 18.6769C6.27426 18.5103 5.8192 18.3535 5.63858 18.1057C5.46215 17.8634 5.45375 17.3846 5.44395 16.8791C5.43415 16.403 5.42435 15.864 5.26193 15.3627C5.10511 14.881 4.80267 14.4512 4.53523 14.0717C4.2496 13.6657 3.95416 13.2484 3.95416 12.9208C3.95416 12.5945 4.2496 12.1759 4.53383 11.7712C4.80127 11.3918 5.10511 10.9619 5.26193 10.4789C5.42435 9.9776 5.43415 9.43993 5.44395 8.96387C5.45375 8.45561 5.46215 7.97814 5.63858 7.73451C5.8192 7.48668 6.27426 7.32986 6.75592 7.16324C7.20398 7.00922 7.71225 6.83419 8.1337 6.52755C8.55096 6.22371 8.8702 5.79806 9.15164 5.42281C9.45968 5.01116 9.75091 4.62331 10.0492 4.52669C10.1066 4.50849 10.1724 4.49869 10.2522 4.49869C10.5252 4.49869 10.8795 4.6065 11.2547 4.71992C11.7154 4.85994 12.239 5.01956 12.7767 5.01956C13.3144 5.01956 13.838 4.85994 14.2987 4.71992C14.674 4.6051 15.0282 4.49869 15.3026 4.49869C15.381 4.49869 15.4483 4.50849 15.5043 4.52669C15.8025 4.62331 16.0937 5.01116 16.4018 5.42141C16.6832 5.79806 17.0025 6.22371 17.4197 6.52755C17.8426 6.83419 18.3494 7.00922 18.7975 7.16324C19.2806 7.32986 19.7342 7.48528 19.9148 7.73451C20.0913 7.97674 20.1011 8.45561 20.1095 8.96107C20.1179 9.43713 20.1291 9.97621 20.2915 10.4775C20.4483 10.9605 20.7508 11.3904 21.0182 11.7684C21.3038 12.1745 21.5993 12.5931 21.5993 12.9194C21.6007 13.247 21.3052 13.6657 21.021 14.0689Z" fill="url(#paint36_linear)"/>
<path d="M21.2212 11.7404C20.9468 11.3526 20.6373 10.9115 20.4763 10.4173C20.3097 9.9048 20.2999 9.35312 20.2901 8.86446C20.2803 8.34499 20.2705 7.85493 20.0899 7.6071C19.905 7.35366 19.4388 7.19264 18.9445 7.02322C18.4853 6.865 17.9658 6.68578 17.5331 6.37073C17.1061 6.05989 16.7798 5.62444 16.49 5.23799C16.175 4.81793 15.8767 4.42028 15.5715 4.32087C15.5127 4.30266 15.4441 4.29286 15.3642 4.29286C15.0842 4.29286 14.7216 4.40348 14.3365 4.51969C13.8633 4.66391 13.3284 4.82633 12.7781 4.82633C12.2264 4.82633 11.6916 4.66391 11.2183 4.51969C10.8347 4.40348 10.472 4.29286 10.192 4.29286C10.1108 4.29286 10.0436 4.30266 9.98474 4.32087C9.6781 4.42028 9.38127 4.81793 9.06482 5.23939C8.77639 5.62444 8.44874 6.05989 8.02169 6.37073C7.58903 6.68578 7.06956 6.8636 6.6103 7.02182C6.11744 7.19124 5.64978 7.35226 5.46495 7.6057C5.28433 7.85353 5.27453 8.34359 5.26473 8.86446C5.25493 9.35172 5.24513 9.9034 5.0785 10.4159C4.91888 10.9101 4.60804 11.3512 4.33361 11.739C4.04237 12.1535 3.73993 12.5819 3.73993 12.9166C3.73993 13.2512 4.04237 13.6797 4.33501 14.0955C4.60804 14.4834 4.91888 14.9245 5.0785 15.4187C5.24513 15.9312 5.25633 16.4843 5.26473 16.9729C5.27453 17.491 5.28433 17.9825 5.46495 18.2303C5.64978 18.4837 6.11604 18.6447 6.6103 18.8156C7.06956 18.9738 7.58903 19.153 8.02169 19.4666C8.44874 19.7775 8.77639 20.2143 9.06482 20.5994C9.37987 21.0194 9.6781 21.4171 9.98474 21.5165C10.0436 21.5361 10.1108 21.5445 10.192 21.5445C10.472 21.5445 10.8347 21.4339 11.2197 21.3177C11.6916 21.1735 12.2278 21.011 12.7781 21.011C13.3298 21.011 13.8661 21.1735 14.3393 21.3177C14.723 21.4339 15.0856 21.5445 15.3656 21.5445C15.4469 21.5445 15.5141 21.5361 15.5729 21.5165C15.8795 21.4171 16.1778 21.0194 16.4942 20.598C16.7826 20.2129 17.1089 19.7775 17.5359 19.4666C17.9686 19.1516 18.4881 18.9738 18.9473 18.8142C19.4416 18.6447 19.9078 18.4837 20.0927 18.2303C20.2733 17.9825 20.2831 17.4924 20.2929 16.9729C20.3027 16.4857 20.3125 15.934 20.4791 15.4201C20.6401 14.9259 20.951 14.4848 21.224 14.0955C21.5167 13.6811 21.8177 13.2526 21.8177 12.918C21.8149 12.5847 21.5138 12.1563 21.2212 11.7404ZM21.021 14.0689C20.7536 14.4484 20.4511 14.8782 20.2929 15.3613C20.1305 15.8626 20.1207 16.4016 20.1109 16.8777C20.1011 17.3846 20.0913 17.8634 19.9162 18.1057C19.7356 18.3535 19.2806 18.5103 18.7989 18.6755C18.3508 18.831 17.8426 19.0046 17.4211 19.3126C17.0039 19.6151 16.686 20.0407 16.4032 20.416C16.0951 20.8276 15.8039 21.2155 15.5043 21.3121C15.4469 21.3303 15.381 21.3401 15.3026 21.3401C15.0296 21.3401 14.6754 21.2323 14.3001 21.1189C13.838 20.9788 13.3158 20.8192 12.7767 20.8192C12.239 20.8192 11.7154 20.9774 11.2547 21.1189C10.8795 21.2323 10.5252 21.3401 10.2522 21.3401C10.1738 21.3401 10.108 21.3303 10.0506 21.3121C9.75231 21.2155 9.46108 20.8276 9.15304 20.4174C8.8716 20.0407 8.55236 19.6151 8.1351 19.3126C7.71225 19.006 7.20538 18.831 6.75732 18.6769C6.27426 18.5103 5.8192 18.3535 5.63858 18.1057C5.46215 17.8634 5.45375 17.3846 5.44395 16.8791C5.43415 16.403 5.42435 15.864 5.26193 15.3627C5.10511 14.881 4.80267 14.4512 4.53523 14.0717C4.2496 13.6657 3.95416 13.2484 3.95416 12.9208C3.95416 12.5945 4.2496 12.1759 4.53383 11.7712C4.80127 11.3918 5.10511 10.9619 5.26193 10.4789C5.42435 9.9776 5.43415 9.43993 5.44395 8.96387C5.45375 8.45561 5.46215 7.97814 5.63858 7.73451C5.8192 7.48668 6.27426 7.32986 6.75592 7.16324C7.20398 7.00922 7.71225 6.83419 8.1337 6.52755C8.55096 6.22371 8.8702 5.79806 9.15164 5.42281C9.45968 5.01116 9.75091 4.62331 10.0492 4.52669C10.1066 4.50849 10.1724 4.49869 10.2522 4.49869C10.5252 4.49869 10.8795 4.6065 11.2547 4.71992C11.7154 4.85994 12.239 5.01956 12.7767 5.01956C13.3144 5.01956 13.838 4.85994 14.2987 4.71992C14.674 4.6051 15.0282 4.49869 15.3026 4.49869C15.381 4.49869 15.4483 4.50849 15.5043 4.52669C15.8025 4.62331 16.0937 5.01116 16.4018 5.42141C16.6832 5.79806 17.0025 6.22371 17.4197 6.52755C17.8426 6.83419 18.3494 7.00922 18.7975 7.16324C19.2806 7.32986 19.7342 7.48528 19.9148 7.73451C20.0913 7.97674 20.1011 8.45561 20.1095 8.96107C20.1179 9.43713 20.1291 9.97621 20.2915 10.4775C20.4483 10.9605 20.7508 11.3904 21.0182 11.7684C21.3038 12.1745 21.5993 12.5931 21.5993 12.9194C21.6007 13.247 21.3052 13.6657 21.021 14.0689Z" fill="#DBA458"/>
<path d="M21.0195 11.7683C20.752 11.3889 20.4496 10.959 20.2928 10.4773C20.1304 9.97607 20.1206 9.437 20.1108 8.96093C20.101 8.45407 20.0912 7.97661 19.9161 7.73437C19.7355 7.48654 19.2804 7.32972 18.7988 7.1631C18.3507 7.00908 17.8439 6.83406 17.421 6.52742C17.0038 6.22358 16.6845 5.79792 16.4031 5.42127C16.095 5.01102 15.8038 4.62317 15.5056 4.52655C15.4481 4.50835 15.3823 4.49855 15.3039 4.49855C15.0309 4.49855 14.6766 4.60636 14.3 4.71978C13.8393 4.8598 13.3157 5.01942 12.778 5.01942C12.2403 5.01942 11.7167 4.8598 11.256 4.71978C10.8808 4.60496 10.5265 4.49855 10.2535 4.49855C10.1751 4.49855 10.1078 4.50835 10.0504 4.52655C9.7522 4.62317 9.46097 5.01242 9.15293 5.42267C8.87149 5.79792 8.55225 6.22358 8.13499 6.52742C7.71214 6.83406 7.20527 7.00908 6.75721 7.1631C6.27555 7.32972 5.82049 7.48514 5.63986 7.73437C5.46344 7.97661 5.45504 8.45547 5.44524 8.96373C5.43544 9.4384 5.42564 9.97747 5.26322 10.4787C5.1064 10.9604 4.80256 11.3917 4.53512 11.7711C4.24948 12.1758 3.95544 12.5944 3.95544 12.9207C3.95544 13.2483 4.25088 13.6669 4.53652 14.0716C4.80256 14.4511 5.1064 14.8809 5.26322 15.3626C5.42564 15.8638 5.43544 16.4029 5.44524 16.879C5.45504 17.3858 5.46344 17.8633 5.63986 18.1055C5.82049 18.3534 6.27555 18.5102 6.75861 18.6768C7.20667 18.8308 7.71354 19.0058 8.13639 19.3125C8.55365 19.6149 8.87289 20.042 9.15432 20.4172C9.46236 20.8275 9.7536 21.2153 10.0518 21.312C10.1093 21.3302 10.1751 21.34 10.2535 21.34C10.5279 21.34 10.8822 21.2321 11.256 21.1187C11.7167 20.9787 12.2403 20.8191 12.778 20.8191C13.3157 20.8191 13.8393 20.9773 14.3014 21.1187C14.6766 21.2335 15.0295 21.34 15.3039 21.34C15.3823 21.34 15.4495 21.3302 15.5056 21.312C15.8052 21.2153 16.095 20.8261 16.4045 20.4158C16.6859 20.0406 17.0052 19.6149 17.4224 19.3125C17.8439 19.0058 18.3521 18.8308 18.8002 18.6754C19.2819 18.5102 19.7369 18.3534 19.9175 18.1055C20.094 17.8633 20.1038 17.3844 20.1122 16.8776C20.1206 16.4029 20.1318 15.8624 20.2942 15.3612C20.451 14.8781 20.7534 14.4483 21.0223 14.0688C21.3065 13.6642 21.602 13.2455 21.602 12.9193C21.6006 12.593 21.3051 12.1744 21.0195 11.7683Z" fill="url(#paint37_linear)"/>
<path d="M21.7041 11.4016C21.4422 11.0291 21.172 10.6455 21.0376 10.2352C20.8989 9.80534 20.8891 9.32228 20.8807 8.85322C20.8681 8.23854 20.8569 7.65746 20.5671 7.25981C20.2731 6.85516 19.7214 6.66613 19.1375 6.46451C18.6965 6.31329 18.2428 6.15647 17.8816 5.89323C17.5259 5.6342 17.2403 5.25335 16.963 4.8851C16.5906 4.38804 16.2377 3.91757 15.7533 3.76075C15.6343 3.72155 15.5068 3.70335 15.364 3.70335C14.9958 3.70335 14.5925 3.82656 14.1641 3.95538C13.709 4.094 13.2399 4.23542 12.7765 4.23542C12.313 4.23542 11.8426 4.0926 11.3889 3.95398C10.9618 3.82376 10.5586 3.70055 10.1903 3.70055C10.0475 3.70055 9.91871 3.71875 9.8011 3.75795C9.31803 3.91477 8.96519 4.38524 8.59134 4.8823C8.3141 5.25055 8.02847 5.6328 7.67282 5.89043C7.31157 6.15367 6.85651 6.31049 6.41685 6.46171C5.83158 6.66333 5.27991 6.85236 4.98727 7.25701C4.69603 7.65606 4.68623 8.23574 4.67363 8.85182C4.66523 9.31948 4.65542 9.80394 4.51541 10.2338C4.38239 10.6441 4.11075 11.0277 3.84892 11.4002C3.50447 11.8902 3.14603 12.3971 3.14603 12.918C3.14603 13.4402 3.50307 13.9471 3.84892 14.4372C4.11075 14.8082 4.38239 15.1932 4.51541 15.6035C4.65402 16.0334 4.66383 16.5178 4.67363 16.9855C4.68483 17.6002 4.69603 18.1812 4.98587 18.5789C5.27991 18.9835 5.83158 19.1726 6.41685 19.3742C6.85651 19.5254 7.31157 19.6822 7.67282 19.9455C8.02707 20.2031 8.3141 20.584 8.59134 20.9536C8.96379 21.4521 9.31663 21.9211 9.8011 22.0794C9.92011 22.1172 10.0475 22.1368 10.1903 22.1368C10.5586 22.1368 10.9618 22.0135 11.3903 21.8833C11.844 21.7447 12.3144 21.6033 12.7779 21.6033C13.2413 21.6033 13.7118 21.7461 14.1655 21.8833C14.5925 22.0135 14.9958 22.1368 15.364 22.1368C15.5082 22.1368 15.6343 22.1172 15.7533 22.0794C16.2377 21.9225 16.5906 21.4521 16.9644 20.9522C17.2403 20.584 17.5259 20.2031 17.8816 19.9455C18.2428 19.6836 18.6965 19.5268 19.1375 19.3742C19.7214 19.174 20.2731 18.9835 20.5671 18.5789C20.8569 18.1798 20.8681 17.6002 20.8807 16.9855C20.8891 16.5164 20.8975 16.0334 21.0376 15.6035C21.1706 15.1932 21.4422 14.8096 21.7041 14.4372C22.0499 13.9471 22.4055 13.4402 22.4055 12.9194C22.4069 12.3971 22.0499 11.8916 21.7041 11.4016ZM21.221 14.0969C20.9466 14.4862 20.6357 14.9258 20.4761 15.4215C20.3095 15.9353 20.2997 16.487 20.2899 16.9743C20.2801 17.4938 20.2703 17.9838 20.0896 18.2316C19.9048 18.4851 19.4386 18.6461 18.9443 18.8155C18.485 18.9737 17.9656 19.153 17.5329 19.468C17.1059 19.7788 16.7796 20.2143 16.4912 20.5994C16.1761 21.0208 15.8765 21.4185 15.5699 21.5179C15.511 21.5375 15.4438 21.5459 15.3626 21.5459C15.0826 21.5459 14.7199 21.4353 14.3363 21.319C13.863 21.1748 13.3268 21.0124 12.7751 21.0124C12.2234 21.0124 11.6885 21.1748 11.2167 21.319C10.8316 21.4353 10.469 21.5459 10.1889 21.5459C10.1077 21.5459 10.0405 21.5361 9.98172 21.5179C9.67508 21.4185 9.37824 21.0208 9.0618 20.6008C8.77336 20.2157 8.44572 19.7788 8.01866 19.468C7.58601 19.153 7.06654 18.9751 6.60728 18.8169C6.11301 18.6475 5.64675 18.4865 5.46193 18.2316C5.28131 17.9838 5.2715 17.4938 5.2617 16.9743C5.2519 16.4856 5.2421 15.9339 5.07548 15.4201C4.91586 14.9258 4.60502 14.4862 4.33198 14.0969C4.03934 13.6811 3.7369 13.2526 3.7369 12.918C3.7369 12.5833 4.03934 12.1549 4.33058 11.7404C4.60502 11.3511 4.91446 10.9115 5.07548 10.4172C5.2421 9.90476 5.2533 9.35169 5.2617 8.86582C5.2715 8.34635 5.28131 7.85489 5.46193 7.60706C5.64675 7.35362 6.11301 7.1926 6.60728 7.02318C7.06654 6.86496 7.58601 6.68574 8.01866 6.3721C8.44572 6.06125 8.77336 5.6244 9.0618 5.24075C9.37684 4.81929 9.67508 4.42164 9.98172 4.32223C10.0405 4.30403 10.1077 4.29422 10.1889 4.29422C10.469 4.29422 10.8316 4.40484 11.2153 4.52105C11.6885 4.66527 12.2234 4.82769 12.7751 4.82769C13.3268 4.82769 13.8616 4.66527 14.3335 4.52105C14.7185 4.40344 15.0812 4.29422 15.3612 4.29422C15.4424 4.29422 15.5096 4.30403 15.5685 4.32223C15.8737 4.42164 16.1719 4.81929 16.487 5.23935C16.7768 5.6244 17.1031 6.06125 17.5301 6.3721C17.9628 6.68714 18.4822 6.86636 18.9415 7.02458C19.4358 7.194 19.902 7.35502 20.0868 7.60846C20.2675 7.85629 20.2773 8.34635 20.2871 8.86582C20.2969 9.35449 20.3067 9.90616 20.4733 10.4186C20.6343 10.9129 20.9452 11.3539 21.2182 11.7418C21.5108 12.1577 21.8119 12.5861 21.8119 12.9208C21.8147 13.254 21.5136 13.6825 21.221 14.0969Z" fill="url(#paint38_linear)"/>
<path d="M12.757 8.55103L12.9152 8.87027L13.2667 8.92067L13.0118 9.16851L13.072 9.51995L12.757 9.35333L12.4419 9.51995L12.5022 9.16851L12.2487 8.92067L12.6002 8.87027L12.757 8.55103Z" fill="#CA7529"/>
<path d="M14.5366 8.94997L14.5422 9.2538L14.797 9.42043L14.51 9.51984L14.4302 9.81248L14.2467 9.57165L13.9429 9.58565L14.1165 9.33642L14.0087 9.05218L14.2999 9.13899L14.5366 8.94997Z" fill="#CA7529"/>
<path d="M15.9423 10.031L15.8387 10.2676L15.9746 10.4874L15.7169 10.4622L15.5489 10.6596L15.4943 10.4062L15.2549 10.3082L15.4789 10.178L15.4985 9.91895L15.6917 10.0926L15.9423 10.031Z" fill="#CA7529"/>
<path d="M10.9787 8.94997L10.9717 9.2538L10.7182 9.42043L11.0053 9.51984L11.0851 9.81248L11.2685 9.57165L11.5723 9.58565L11.3987 9.33642L11.5065 9.05218L11.2153 9.13899L10.9787 8.94997Z" fill="#CA7529"/>
<path d="M9.57151 10.031L9.67653 10.2676L9.54071 10.4874L9.79834 10.4622L9.96497 10.6596L10.021 10.4062L10.2604 10.3082L10.0364 10.178L10.0168 9.91895L9.82355 10.0926L9.57151 10.031Z" fill="#CA7529"/>
<path d="M12.7346 8.50452L12.89 8.82236L13.2414 8.87416L12.988 9.122L13.0482 9.47204L12.7346 9.30682L12.4195 9.47204L12.4797 9.122L12.2249 8.87416L12.5763 8.82236L12.7346 8.50452Z" fill="url(#paint39_linear)"/>
<path d="M14.5127 8.9023L14.5183 9.20614L14.7732 9.37276L14.4861 9.47217L14.4063 9.76621L14.2229 9.52398L13.9191 9.53798L14.0927 9.28875L13.9849 9.00451L14.2761 9.09272L14.5127 8.9023Z" fill="url(#paint40_linear)"/>
<path d="M15.9199 9.98305L15.8149 10.2197L15.9507 10.4395L15.6931 10.4143L15.5265 10.6117L15.4705 10.3597L15.231 10.2603L15.455 10.1301L15.4747 9.87244L15.6679 10.0447L15.9199 9.98305Z" fill="url(#paint41_linear)"/>
<path d="M10.9548 8.9023L10.9492 9.20614L10.6944 9.37276L10.9814 9.47217L11.0612 9.76621L11.2446 9.52398L11.5485 9.53798L11.3763 9.28875L11.4827 9.00451L11.1914 9.09272L10.9548 8.9023Z" fill="url(#paint42_linear)"/>
<path d="M9.54908 9.98305L9.65269 10.2197L9.51688 10.4395L9.77451 10.4143L9.94113 10.6117L9.99714 10.3597L10.2366 10.2603L10.0125 10.1301L9.99294 9.87244L9.79971 10.0447L9.54908 9.98305Z" fill="url(#paint43_linear)"/>
<path d="M12.4754 9.14294L12.4194 9.47199L12.4544 9.45378L12.502 9.16815L12.4754 9.14294Z" fill="#CA7529"/>
<path d="M12.757 8.55212L12.7346 8.50452L12.5763 8.82236L12.2249 8.87417L12.2711 8.91757L12.6001 8.86996L12.757 8.55212Z" fill="#CA7529"/>
<path d="M13.2035 8.91197L13.2413 8.87416L12.8913 8.82236L12.9151 8.86996L13.2035 8.91197Z" fill="#CA7529"/>
<path d="M14.0087 9.05212L14.2999 9.13893L14.5142 8.96671L14.5128 8.9023L14.2761 9.09272L13.9849 9.00451L14.0927 9.28875L13.9191 9.53798L13.9779 9.53518L14.1165 9.33635L14.0087 9.05212Z" fill="#CA7529"/>
<path d="M14.7423 9.38396L14.7731 9.37276L14.5421 9.22014V9.25374L14.7423 9.38396Z" fill="#CA7529"/>
<path d="M15.9452 10.4397H15.9508L15.8416 10.2619L15.8388 10.2675L15.9452 10.4397Z" fill="#CA7529"/>
<path d="M15.4985 9.91864L15.6917 10.0923L15.8933 10.0433L15.9199 9.98305L15.6679 10.0447L15.4746 9.87244L15.455 10.1301L15.231 10.2603L15.2926 10.2855L15.4789 10.1777L15.4985 9.91864Z" fill="#CA7529"/>
<path d="M15.4803 10.4004L15.5266 10.6118L15.5364 10.5992L15.4943 10.406L15.4803 10.4004Z" fill="#CA7529"/>
<path d="M10.9927 9.51532L11.0613 9.76595L11.0697 9.75475L11.0053 9.51952L10.9927 9.51532Z" fill="#CA7529"/>
<path d="M11.5388 9.53794H11.5486L11.4016 9.32791L11.3988 9.33631L11.5388 9.53794Z" fill="#CA7529"/>
<path d="M10.9786 8.9499L11.2152 9.13893L11.4589 9.06612L11.4827 9.00451L11.1914 9.09272L10.9548 8.9023L10.9492 9.20614L10.6944 9.37276L10.7574 9.39516L10.9716 9.25374L10.9786 8.9499Z" fill="#CA7529"/>
<path d="M9.57148 10.0307L9.82352 10.0923L9.99854 9.93684L9.99294 9.87244L9.79971 10.0447L9.54908 9.98305L9.65269 10.2197L9.51688 10.4395L9.57288 10.4353L9.6765 10.2673L9.57148 10.0307Z" fill="#CA7529"/>
<path d="M10.203 10.2742L10.2366 10.2602L10.0336 10.1426L10.0364 10.1776L10.203 10.2742Z" fill="#CA7529"/>
<path d="M21.2449 11.7881C20.9719 11.4003 20.661 10.9592 20.5014 10.4649C20.3348 9.95246 20.325 9.39939 20.3152 8.91213C20.3054 8.39406 20.2956 7.9026 20.1149 7.65476C19.9301 7.40133 19.4639 7.24031 18.9696 7.07089C18.5117 6.91267 17.9909 6.73344 17.5582 6.4184C17.1312 6.10756 16.8049 5.6721 16.5151 5.28705C16.2 4.867 15.9004 4.46935 15.5952 4.36993C15.5363 4.35033 15.4691 4.34193 15.3879 4.34193C15.1079 4.34193 14.7452 4.45255 14.3602 4.56876C13.8869 4.71158 13.3521 4.8754 12.8018 4.8754C12.2501 4.8754 11.7152 4.71298 11.242 4.56876C10.8569 4.45115 10.4957 4.34053 10.2143 4.34053C10.133 4.34053 10.0658 4.35033 10.007 4.36853C9.70038 4.46795 9.40214 4.8656 9.0871 5.28565C8.79867 5.6707 8.47242 6.10616 8.04397 6.417C7.61131 6.73204 7.09184 6.91127 6.63258 7.06809C6.13832 7.23751 5.67206 7.39853 5.48723 7.65196C5.30661 7.8998 5.29681 8.39126 5.28701 8.91073C5.2772 9.39799 5.2674 9.94966 5.10078 10.4621C4.93976 10.9564 4.62892 11.3975 4.35588 11.7853C4.06325 12.1998 3.76221 12.6296 3.76221 12.9643C3.76221 13.2989 4.06465 13.7288 4.35728 14.1432C4.63172 14.5325 4.94116 14.9721 5.10218 15.4664C5.2688 15.9789 5.28001 16.5319 5.28841 17.0206C5.29821 17.5387 5.30801 18.0301 5.48863 18.278C5.67346 18.5328 6.13972 18.6924 6.63398 18.8632C7.09324 19.0215 7.61271 19.2007 8.04397 19.5143C8.47102 19.8252 8.79867 20.2606 9.0871 20.6457C9.40354 21.0671 9.70038 21.4634 10.007 21.5628C10.0658 21.5824 10.1344 21.5908 10.2143 21.5908C10.4957 21.5908 10.8569 21.4802 11.242 21.364C11.7138 21.2197 12.2501 21.0573 12.8018 21.0573C13.3535 21.0573 13.8883 21.2211 14.3616 21.364C14.7452 21.4802 15.1079 21.5908 15.3879 21.5908C15.4677 21.5908 15.5363 21.5824 15.5952 21.5628C15.9004 21.4634 16.2 21.0657 16.5165 20.6443C16.8049 20.2592 17.1312 19.8252 17.5582 19.5143C17.9909 19.1993 18.5103 19.0201 18.9696 18.8632C19.4639 18.6938 19.9301 18.5328 20.1149 18.278C20.2956 18.0301 20.3054 17.5401 20.3152 17.0206C20.3236 16.5333 20.3348 15.9817 20.5014 15.4678C20.661 14.9735 20.9719 14.5325 21.2463 14.1432C21.5375 13.7288 21.84 13.3003 21.84 12.9657C21.84 12.6324 21.5375 12.204 21.2449 11.7881ZM21.0447 14.1166C20.7772 14.4961 20.4748 14.9259 20.318 15.409C20.1556 15.9102 20.1443 16.4493 20.1359 16.9254C20.1261 17.4322 20.1177 17.9111 19.9413 18.1533C19.7607 18.4012 19.3056 18.558 18.824 18.7232C18.3759 18.8786 17.8677 19.0523 17.4462 19.3603C17.0289 19.6641 16.7097 20.0884 16.4283 20.4636C16.1202 20.8753 15.829 21.2631 15.5293 21.3612C15.4719 21.3794 15.4061 21.3892 15.3263 21.3892C15.0533 21.3892 14.699 21.2813 14.3252 21.1679C13.8631 21.0279 13.3409 20.8683 12.8018 20.8683C12.2641 20.8683 11.7404 21.0265 11.2798 21.1679C10.9045 21.2813 10.5503 21.3892 10.2759 21.3892C10.1974 21.3892 10.1316 21.3794 10.0742 21.3612C9.77599 21.2645 9.48476 20.8767 9.17671 20.4664C8.89528 20.0898 8.57464 19.6641 8.15738 19.3617C7.73593 19.0551 7.22766 18.88 6.781 18.726C6.29794 18.5594 5.84288 18.4026 5.66226 18.1561C5.48583 17.9139 5.47603 17.435 5.46763 16.9282C5.45923 16.4521 5.44803 15.913 5.28561 15.4118C5.12879 14.9287 4.82635 14.4989 4.55891 14.1194C4.27327 13.7134 3.97784 13.2961 3.97784 12.9685C3.97784 12.6422 4.27327 12.2236 4.55751 11.8189C4.82495 11.4395 5.12879 11.0096 5.28421 10.5265C5.44663 10.0253 5.45783 9.4876 5.46623 9.01154C5.47603 8.50327 5.48583 8.02581 5.66086 7.78218C5.84148 7.53435 6.29654 7.37753 6.7782 7.21231C7.22626 7.05829 7.73313 6.88326 8.15598 6.57662C8.57324 6.27278 8.89248 5.84713 9.17391 5.47188C9.48195 5.06162 9.77319 4.67237 10.0714 4.57576C10.1288 4.55756 10.1946 4.54776 10.2731 4.54776C10.5475 4.54776 10.9017 4.65557 11.2756 4.76899C11.7376 4.909 12.2599 5.06863 12.799 5.06863C13.3367 5.06863 13.8589 4.9104 14.321 4.77039C14.6962 4.65557 15.0505 4.54916 15.3235 4.54916C15.4019 4.54916 15.4691 4.55756 15.5265 4.57716C15.8248 4.67377 16.116 5.06162 16.4241 5.47188C16.7069 5.84853 17.0261 6.27418 17.4434 6.57662C17.8649 6.88326 18.3731 7.05829 18.8212 7.21231C19.3028 7.37893 19.7579 7.53435 19.9385 7.78218C20.1149 8.02441 20.1247 8.50327 20.1331 9.00874C20.1429 9.4848 20.1528 10.0239 20.3152 10.5251C20.472 11.0082 20.7744 11.4381 21.0419 11.8161C21.3275 12.2222 21.6229 12.6394 21.6229 12.9671C21.6243 13.2933 21.3303 13.712 21.0447 14.1166Z" fill="#CA7529"/>
<path d="M21.2449 11.7881C20.9719 11.4003 20.661 10.9592 20.5014 10.4649C20.3348 9.95246 20.325 9.39939 20.3152 8.91213C20.3054 8.39406 20.2956 7.9026 20.1149 7.65476C19.9301 7.40133 19.4639 7.24031 18.9696 7.07089C18.5117 6.91267 17.9909 6.73344 17.5582 6.4184C17.1312 6.10756 16.8049 5.6721 16.5151 5.28705C16.2 4.867 15.9004 4.46935 15.5952 4.36993C15.5363 4.35033 15.4691 4.34193 15.3879 4.34193C15.1079 4.34193 14.7452 4.45255 14.3602 4.56876C13.8869 4.71158 13.3521 4.8754 12.8018 4.8754C12.2501 4.8754 11.7152 4.71298 11.242 4.56876C10.8569 4.45115 10.4957 4.34053 10.2143 4.34053C10.133 4.34053 10.0658 4.35033 10.007 4.36853C9.70038 4.46795 9.40214 4.8656 9.0871 5.28565C8.79867 5.6707 8.47242 6.10616 8.04397 6.417C7.61131 6.73204 7.09184 6.91127 6.63258 7.06809C6.13832 7.23751 5.67206 7.39853 5.48723 7.65196C5.30661 7.8998 5.29681 8.39126 5.28701 8.91073C5.2772 9.39799 5.2674 9.94966 5.10078 10.4621C4.93976 10.9564 4.62892 11.3975 4.35588 11.7853C4.06325 12.1998 3.76221 12.6296 3.76221 12.9643C3.76221 13.2989 4.06465 13.7288 4.35728 14.1432C4.63172 14.5325 4.94116 14.9721 5.10218 15.4664C5.2688 15.9789 5.28001 16.5319 5.28841 17.0206C5.29821 17.5387 5.30801 18.0301 5.48863 18.278C5.67346 18.5328 6.13972 18.6924 6.63398 18.8632C7.09324 19.0215 7.61271 19.2007 8.04397 19.5143C8.47102 19.8252 8.79867 20.2606 9.0871 20.6457C9.40354 21.0671 9.70038 21.4634 10.007 21.5628C10.0658 21.5824 10.1344 21.5908 10.2143 21.5908C10.4957 21.5908 10.8569 21.4802 11.242 21.364C11.7138 21.2197 12.2501 21.0573 12.8018 21.0573C13.3535 21.0573 13.8883 21.2211 14.3616 21.364C14.7452 21.4802 15.1079 21.5908 15.3879 21.5908C15.4677 21.5908 15.5363 21.5824 15.5952 21.5628C15.9004 21.4634 16.2 21.0657 16.5165 20.6443C16.8049 20.2592 17.1312 19.8252 17.5582 19.5143C17.9909 19.1993 18.5103 19.0201 18.9696 18.8632C19.4639 18.6938 19.9301 18.5328 20.1149 18.278C20.2956 18.0301 20.3054 17.5401 20.3152 17.0206C20.3236 16.5333 20.3348 15.9817 20.5014 15.4678C20.661 14.9735 20.9719 14.5325 21.2463 14.1432C21.5375 13.7288 21.84 13.3003 21.84 12.9657C21.84 12.6324 21.5375 12.204 21.2449 11.7881ZM21.0447 14.1166C20.7772 14.4961 20.4748 14.9259 20.318 15.409C20.1556 15.9102 20.1443 16.4493 20.1359 16.9254C20.1261 17.4322 20.1177 17.9111 19.9413 18.1533C19.7607 18.4012 19.3056 18.558 18.824 18.7232C18.3759 18.8786 17.8677 19.0523 17.4462 19.3603C17.0289 19.6641 16.7097 20.0884 16.4283 20.4636C16.1202 20.8753 15.829 21.2631 15.5293 21.3612C15.4719 21.3794 15.4061 21.3892 15.3263 21.3892C15.0533 21.3892 14.699 21.2813 14.3252 21.1679C13.8631 21.0279 13.3409 20.8683 12.8018 20.8683C12.2641 20.8683 11.7404 21.0265 11.2798 21.1679C10.9045 21.2813 10.5503 21.3892 10.2759 21.3892C10.1974 21.3892 10.1316 21.3794 10.0742 21.3612C9.77599 21.2645 9.48476 20.8767 9.17671 20.4664C8.89528 20.0898 8.57464 19.6641 8.15738 19.3617C7.73593 19.0551 7.22766 18.88 6.781 18.726C6.29794 18.5594 5.84288 18.4026 5.66226 18.1561C5.48583 17.9139 5.47603 17.435 5.46763 16.9282C5.45923 16.4521 5.44803 15.913 5.28561 15.4118C5.12879 14.9287 4.82635 14.4989 4.55891 14.1194C4.27327 13.7134 3.97784 13.2961 3.97784 12.9685C3.97784 12.6422 4.27327 12.2236 4.55751 11.8189C4.82495 11.4395 5.12879 11.0096 5.28421 10.5265C5.44663 10.0253 5.45783 9.4876 5.46623 9.01154C5.47603 8.50327 5.48583 8.02581 5.66086 7.78218C5.84148 7.53435 6.29654 7.37753 6.7782 7.21231C7.22626 7.05829 7.73313 6.88326 8.15598 6.57662C8.57324 6.27278 8.89248 5.84713 9.17391 5.47188C9.48195 5.06162 9.77319 4.67237 10.0714 4.57576C10.1288 4.55756 10.1946 4.54776 10.2731 4.54776C10.5475 4.54776 10.9017 4.65557 11.2756 4.76899C11.7376 4.909 12.2599 5.06863 12.799 5.06863C13.3367 5.06863 13.8589 4.9104 14.321 4.77039C14.6962 4.65557 15.0505 4.54916 15.3235 4.54916C15.4019 4.54916 15.4691 4.55756 15.5265 4.57716C15.8248 4.67377 16.116 5.06162 16.4241 5.47188C16.7069 5.84853 17.0261 6.27418 17.4434 6.57662C17.8649 6.88326 18.3731 7.05829 18.8212 7.21231C19.3028 7.37893 19.7579 7.53435 19.9385 7.78218C20.1149 8.02441 20.1247 8.50327 20.1331 9.00874C20.1429 9.4848 20.1528 10.0239 20.3152 10.5251C20.472 11.0082 20.7744 11.4381 21.0419 11.8161C21.3275 12.2222 21.6229 12.6394 21.6229 12.9671C21.6243 13.2933 21.3303 13.712 21.0447 14.1166Z" fill="#CA7529"/>
<path d="M21.2212 11.7404C20.9468 11.3526 20.6373 10.9115 20.4763 10.4173C20.3097 9.9048 20.2999 9.35312 20.2901 8.86446C20.2803 8.34499 20.2705 7.85493 20.0899 7.6071C19.905 7.35366 19.4388 7.19264 18.9445 7.02322C18.4853 6.865 17.9658 6.68578 17.5331 6.37073C17.1061 6.05989 16.7798 5.62444 16.49 5.23799C16.175 4.81793 15.8767 4.42028 15.5715 4.32087C15.5127 4.30266 15.4441 4.29286 15.3642 4.29286C15.0842 4.29286 14.7216 4.40348 14.3365 4.51969C13.8633 4.66391 13.3284 4.82633 12.7781 4.82633C12.2264 4.82633 11.6916 4.66391 11.2183 4.51969C10.8347 4.40348 10.472 4.29286 10.192 4.29286C10.1108 4.29286 10.0436 4.30266 9.98474 4.32087C9.6781 4.42028 9.38127 4.81793 9.06482 5.23939C8.77639 5.62444 8.44874 6.05989 8.02169 6.37073C7.58903 6.68578 7.06956 6.8636 6.6103 7.02182C6.11744 7.19124 5.64978 7.35226 5.46495 7.6057C5.28433 7.85353 5.27453 8.34359 5.26473 8.86446C5.25493 9.35172 5.24513 9.9034 5.0785 10.4159C4.91888 10.9101 4.60804 11.3512 4.33361 11.739C4.04237 12.1535 3.73993 12.5819 3.73993 12.9166C3.73993 13.2512 4.04237 13.6797 4.33501 14.0955C4.60804 14.4834 4.91888 14.9245 5.0785 15.4187C5.24513 15.9312 5.25633 16.4843 5.26473 16.9729C5.27453 17.491 5.28433 17.9825 5.46495 18.2303C5.64978 18.4837 6.11604 18.6447 6.6103 18.8156C7.06956 18.9738 7.58903 19.153 8.02169 19.4666C8.44874 19.7775 8.77639 20.2143 9.06482 20.5994C9.37987 21.0194 9.6781 21.4171 9.98474 21.5165C10.0436 21.5361 10.1108 21.5445 10.192 21.5445C10.472 21.5445 10.8347 21.4339 11.2197 21.3177C11.6916 21.1735 12.2278 21.011 12.7781 21.011C13.3298 21.011 13.8661 21.1735 14.3393 21.3177C14.723 21.4339 15.0856 21.5445 15.3656 21.5445C15.4469 21.5445 15.5141 21.5361 15.5729 21.5165C15.8795 21.4171 16.1778 21.0194 16.4942 20.598C16.7826 20.2129 17.1089 19.7775 17.5359 19.4666C17.9686 19.1516 18.4881 18.9738 18.9473 18.8142C19.4416 18.6447 19.9078 18.4837 20.0927 18.2303C20.2733 17.9825 20.2831 17.4924 20.2929 16.9729C20.3027 16.4857 20.3125 15.934 20.4791 15.4201C20.6401 14.9259 20.951 14.4848 21.224 14.0955C21.5167 13.6811 21.8177 13.2526 21.8177 12.918C21.8149 12.5847 21.5138 12.1563 21.2212 11.7404ZM21.021 14.0689C20.7536 14.4484 20.4511 14.8782 20.2929 15.3613C20.1305 15.8626 20.1207 16.4016 20.1109 16.8777C20.1011 17.3846 20.0913 17.8634 19.9162 18.1057C19.7356 18.3535 19.2806 18.5103 18.7989 18.6755C18.3508 18.831 17.8426 19.0046 17.4211 19.3126C17.0039 19.6151 16.686 20.0407 16.4032 20.416C16.0951 20.8276 15.8039 21.2155 15.5043 21.3121C15.4469 21.3303 15.381 21.3401 15.3026 21.3401C15.0296 21.3401 14.6754 21.2323 14.3001 21.1189C13.838 20.9788 13.3158 20.8192 12.7767 20.8192C12.239 20.8192 11.7154 20.9774 11.2547 21.1189C10.8795 21.2323 10.5252 21.3401 10.2522 21.3401C10.1738 21.3401 10.108 21.3303 10.0506 21.3121C9.75231 21.2155 9.46108 20.8276 9.15304 20.4174C8.8716 20.0407 8.55236 19.6151 8.1351 19.3126C7.71225 19.006 7.20538 18.831 6.75732 18.6769C6.27426 18.5103 5.8192 18.3535 5.63858 18.1057C5.46215 17.8634 5.45375 17.3846 5.44395 16.8791C5.43415 16.403 5.42435 15.864 5.26193 15.3627C5.10511 14.881 4.80267 14.4512 4.53523 14.0717C4.2496 13.6657 3.95416 13.2484 3.95416 12.9208C3.95416 12.5945 4.2496 12.1759 4.53383 11.7712C4.80127 11.3918 5.10511 10.9619 5.26193 10.4789C5.42435 9.9776 5.43415 9.43993 5.44395 8.96387C5.45375 8.45561 5.46215 7.97814 5.63858 7.73451C5.8192 7.48668 6.27426 7.32986 6.75592 7.16324C7.20398 7.00922 7.71225 6.83419 8.1337 6.52755C8.55096 6.22371 8.8702 5.79806 9.15164 5.42281C9.45968 5.01116 9.75091 4.62331 10.0492 4.52669C10.1066 4.50849 10.1724 4.49869 10.2522 4.49869C10.5252 4.49869 10.8795 4.6065 11.2547 4.71992C11.7154 4.85994 12.239 5.01956 12.7767 5.01956C13.3144 5.01956 13.838 4.85994 14.2987 4.71992C14.674 4.6051 15.0282 4.49869 15.3026 4.49869C15.381 4.49869 15.4483 4.50849 15.5043 4.52669C15.8025 4.62331 16.0937 5.01116 16.4018 5.42141C16.6832 5.79806 17.0025 6.22371 17.4197 6.52755C17.8426 6.83419 18.3494 7.00922 18.7975 7.16324C19.2806 7.32986 19.7342 7.48528 19.9148 7.73451C20.0913 7.97674 20.1011 8.45561 20.1095 8.96107C20.1179 9.43713 20.1291 9.97621 20.2915 10.4775C20.4483 10.9605 20.7508 11.3904 21.0182 11.7684C21.3038 12.1745 21.5993 12.5931 21.5993 12.9194C21.6007 13.247 21.3052 13.6657 21.021 14.0689Z" fill="url(#paint44_linear)"/>
<path d="M21.2212 11.7404C20.9468 11.3526 20.6373 10.9115 20.4763 10.4173C20.3097 9.9048 20.2999 9.35312 20.2901 8.86446C20.2803 8.34499 20.2705 7.85493 20.0899 7.6071C19.905 7.35366 19.4388 7.19264 18.9445 7.02322C18.4853 6.865 17.9658 6.68578 17.5331 6.37073C17.1061 6.05989 16.7798 5.62444 16.49 5.23799C16.175 4.81793 15.8767 4.42028 15.5715 4.32087C15.5127 4.30266 15.4441 4.29286 15.3642 4.29286C15.0842 4.29286 14.7216 4.40348 14.3365 4.51969C13.8633 4.66391 13.3284 4.82633 12.7781 4.82633C12.2264 4.82633 11.6916 4.66391 11.2183 4.51969C10.8347 4.40348 10.472 4.29286 10.192 4.29286C10.1108 4.29286 10.0436 4.30266 9.98474 4.32087C9.6781 4.42028 9.38127 4.81793 9.06482 5.23939C8.77639 5.62444 8.44874 6.05989 8.02169 6.37073C7.58903 6.68578 7.06956 6.8636 6.6103 7.02182C6.11744 7.19124 5.64978 7.35226 5.46495 7.6057C5.28433 7.85353 5.27453 8.34359 5.26473 8.86446C5.25493 9.35172 5.24513 9.9034 5.0785 10.4159C4.91888 10.9101 4.60804 11.3512 4.33361 11.739C4.04237 12.1535 3.73993 12.5819 3.73993 12.9166C3.73993 13.2512 4.04237 13.6797 4.33501 14.0955C4.60804 14.4834 4.91888 14.9245 5.0785 15.4187C5.24513 15.9312 5.25633 16.4843 5.26473 16.9729C5.27453 17.491 5.28433 17.9825 5.46495 18.2303C5.64978 18.4837 6.11604 18.6447 6.6103 18.8156C7.06956 18.9738 7.58903 19.153 8.02169 19.4666C8.44874 19.7775 8.77639 20.2143 9.06482 20.5994C9.37987 21.0194 9.6781 21.4171 9.98474 21.5165C10.0436 21.5361 10.1108 21.5445 10.192 21.5445C10.472 21.5445 10.8347 21.4339 11.2197 21.3177C11.6916 21.1735 12.2278 21.011 12.7781 21.011C13.3298 21.011 13.8661 21.1735 14.3393 21.3177C14.723 21.4339 15.0856 21.5445 15.3656 21.5445C15.4469 21.5445 15.5141 21.5361 15.5729 21.5165C15.8795 21.4171 16.1778 21.0194 16.4942 20.598C16.7826 20.2129 17.1089 19.7775 17.5359 19.4666C17.9686 19.1516 18.4881 18.9738 18.9473 18.8142C19.4416 18.6447 19.9078 18.4837 20.0927 18.2303C20.2733 17.9825 20.2831 17.4924 20.2929 16.9729C20.3027 16.4857 20.3125 15.934 20.4791 15.4201C20.6401 14.9259 20.951 14.4848 21.224 14.0955C21.5167 13.6811 21.8177 13.2526 21.8177 12.918C21.8149 12.5847 21.5138 12.1563 21.2212 11.7404ZM21.021 14.0689C20.7536 14.4484 20.4511 14.8782 20.2929 15.3613C20.1305 15.8626 20.1207 16.4016 20.1109 16.8777C20.1011 17.3846 20.0913 17.8634 19.9162 18.1057C19.7356 18.3535 19.2806 18.5103 18.7989 18.6755C18.3508 18.831 17.8426 19.0046 17.4211 19.3126C17.0039 19.6151 16.686 20.0407 16.4032 20.416C16.0951 20.8276 15.8039 21.2155 15.5043 21.3121C15.4469 21.3303 15.381 21.3401 15.3026 21.3401C15.0296 21.3401 14.6754 21.2323 14.3001 21.1189C13.838 20.9788 13.3158 20.8192 12.7767 20.8192C12.239 20.8192 11.7154 20.9774 11.2547 21.1189C10.8795 21.2323 10.5252 21.3401 10.2522 21.3401C10.1738 21.3401 10.108 21.3303 10.0506 21.3121C9.75231 21.2155 9.46108 20.8276 9.15304 20.4174C8.8716 20.0407 8.55236 19.6151 8.1351 19.3126C7.71225 19.006 7.20538 18.831 6.75732 18.6769C6.27426 18.5103 5.8192 18.3535 5.63858 18.1057C5.46215 17.8634 5.45375 17.3846 5.44395 16.8791C5.43415 16.403 5.42435 15.864 5.26193 15.3627C5.10511 14.881 4.80267 14.4512 4.53523 14.0717C4.2496 13.6657 3.95416 13.2484 3.95416 12.9208C3.95416 12.5945 4.2496 12.1759 4.53383 11.7712C4.80127 11.3918 5.10511 10.9619 5.26193 10.4789C5.42435 9.9776 5.43415 9.43993 5.44395 8.96387C5.45375 8.45561 5.46215 7.97814 5.63858 7.73451C5.8192 7.48668 6.27426 7.32986 6.75592 7.16324C7.20398 7.00922 7.71225 6.83419 8.1337 6.52755C8.55096 6.22371 8.8702 5.79806 9.15164 5.42281C9.45968 5.01116 9.75091 4.62331 10.0492 4.52669C10.1066 4.50849 10.1724 4.49869 10.2522 4.49869C10.5252 4.49869 10.8795 4.6065 11.2547 4.71992C11.7154 4.85994 12.239 5.01956 12.7767 5.01956C13.3144 5.01956 13.838 4.85994 14.2987 4.71992C14.674 4.6051 15.0282 4.49869 15.3026 4.49869C15.381 4.49869 15.4483 4.50849 15.5043 4.52669C15.8025 4.62331 16.0937 5.01116 16.4018 5.42141C16.6832 5.79806 17.0025 6.22371 17.4197 6.52755C17.8426 6.83419 18.3494 7.00922 18.7975 7.16324C19.2806 7.32986 19.7342 7.48528 19.9148 7.73451C20.0913 7.97674 20.1011 8.45561 20.1095 8.96107C20.1179 9.43713 20.1291 9.97621 20.2915 10.4775C20.4483 10.9605 20.7508 11.3904 21.0182 11.7684C21.3038 12.1745 21.5993 12.5931 21.5993 12.9194C21.6007 13.247 21.3052 13.6657 21.021 14.0689Z" fill="#DBA458"/>
<path d="M7.03169 17.0022L6.18878 14.6149H6.74325L7.0989 15.7182C7.20672 16.0515 7.28933 16.3343 7.34393 16.5794H7.35093C7.39994 16.3567 7.49235 16.0641 7.60717 15.7266L7.97962 14.6163H8.50609L7.64077 17.0036H7.03169V17.0022Z" fill="url(#paint45_linear)"/>
<path d="M8.92061 16.2125C8.92061 16.4365 9.03263 16.6564 9.28046 16.6564C9.48769 16.6564 9.54649 16.5738 9.5927 16.4645H10.0898C10.0268 16.6844 9.83073 17.0442 9.26786 17.0442C8.67698 17.0442 8.42075 16.6032 8.42075 16.1327C8.42075 15.5698 8.70918 15.1694 9.28466 15.1694C9.90074 15.1694 10.1094 15.6146 10.1094 16.0627C10.1094 16.1229 10.1094 16.1621 10.1024 16.2139H8.92061V16.2125ZM9.6137 15.9073C9.6109 15.6986 9.52689 15.5222 9.28466 15.5222C9.04663 15.5222 8.95142 15.686 8.93181 15.9073H9.6137Z" fill="url(#paint46_linear)"/>
<path d="M10.4593 15.6958C10.4593 15.518 10.4593 15.3598 10.4565 15.21H10.9438C10.9508 15.2506 10.9564 15.4284 10.9564 15.525C11.0362 15.3206 11.2266 15.1708 11.5319 15.1694V15.6426C11.172 15.6328 10.9564 15.7308 10.9564 16.2209V17.0022H10.4593V15.6958Z" fill="url(#paint47_linear)"/>
<path d="M11.8106 14.4749H12.3062V14.9173H11.8106V14.4749ZM11.8106 15.21H12.3062V17.0022H11.8106V15.21Z" fill="url(#paint48_linear)"/>
<path d="M12.8466 17.0024V15.5826H12.5847V15.2102H12.8466V15.0533C12.8466 14.6837 13.03 14.4415 13.4179 14.4415C13.5005 14.4415 13.6041 14.4485 13.6489 14.4625V14.8545C13.6209 14.8503 13.5845 14.8461 13.5439 14.8461C13.3969 14.8461 13.3423 14.9007 13.3423 15.0912V15.2116H13.6559V15.584H13.3423V17.0038H12.8466V17.0024Z" fill="url(#paint49_linear)"/>
<path d="M13.9137 14.4749H14.4093V14.9173H13.9137V14.4749ZM13.9137 15.21H14.4093V17.0022H13.9137V15.21Z" fill="url(#paint50_linear)"/>
<path d="M15.2492 16.2125C15.2492 16.4365 15.3612 16.6564 15.6091 16.6564C15.8163 16.6564 15.8751 16.5738 15.9213 16.4645H16.4184C16.3554 16.6844 16.1593 17.0442 15.5965 17.0442C15.0056 17.0442 14.7494 16.6032 14.7494 16.1327C14.7494 15.5698 15.0378 15.1694 15.6133 15.1694C16.2294 15.1694 16.438 15.6146 16.438 16.0627C16.438 16.1229 16.438 16.1621 16.431 16.2139H15.2492V16.2125ZM15.9423 15.9073C15.9395 15.6986 15.8555 15.5222 15.6133 15.5222C15.3752 15.5222 15.28 15.686 15.2604 15.9073H15.9423Z" fill="url(#paint51_linear)"/>
<path d="M16.7784 17.0022V14.4749H17.2741V17.0022H16.7784Z" fill="url(#paint52_linear)"/>
<path d="M19.3644 14.4749V16.5107C19.3644 16.6732 19.3644 16.8398 19.3672 17.0036H18.8897C18.8799 16.9504 18.8701 16.8566 18.8673 16.816C18.7805 16.9574 18.6265 17.0442 18.359 17.0442C17.9054 17.0442 17.6169 16.6802 17.6169 16.1215C17.6169 15.5698 17.9236 15.1694 18.4304 15.1694C18.6881 15.1694 18.8267 15.2604 18.8673 15.3402V14.4749H19.3644ZM18.128 16.1075C18.128 16.4575 18.2638 16.6466 18.5075 16.6466C18.8491 16.6466 18.8883 16.3623 18.8883 16.1047C18.8883 15.798 18.8449 15.5656 18.5201 15.5656C18.2596 15.5656 18.128 15.7686 18.128 16.1075Z" fill="url(#paint53_linear)"/>
<g clip-path="url(#clip0)">
<path d="M12.6016 14.1506C13.6891 14.1506 14.5706 13.269 14.5706 12.1816C14.5706 11.0941 13.6891 10.2126 12.6016 10.2126C11.5142 10.2126 10.6326 11.0941 10.6326 12.1816C10.6326 13.269 11.5142 14.1506 12.6016 14.1506Z" fill="#44210E"/>
<path d="M13.5205 11.0002L12.1422 12.4179L11.6828 11.9453L11.2233 12.4179L12.1422 13.363L13.9799 11.4728L13.5205 11.0002Z" fill="#B97D22"/>
</g>
<defs>
<linearGradient id="paint0_linear" x1="12.8774" y1="5.31098" x2="12.8774" y2="0" gradientUnits="userSpaceOnUse">
<stop offset="0.1333" stop-color="#16649D"/>
<stop offset="0.7333" stop-color="#16649D"/>
<stop offset="0.7776" stop-color="#16609E"/>
<stop offset="0.8244" stop-color="#1553A3"/>
<stop offset="0.8723" stop-color="#153EAA"/>
<stop offset="0.9208" stop-color="#1420B4"/>
<stop offset="0.9636" stop-color="#1300BF"/>
</linearGradient>
<linearGradient id="paint1_linear" x1="11.256" y1="5.31091" x2="11.256" y2="0.121624" gradientUnits="userSpaceOnUse">
<stop stop-color="#DABA54"/>
<stop offset="0.0529" stop-color="#D0A547"/>
<stop offset="0.1343" stop-color="#C48C38"/>
<stop offset="0.208" stop-color="#BD7C2E"/>
<stop offset="0.2667" stop-color="#BA772B"/>
<stop offset="0.2999" stop-color="#BD7C2E"/>
<stop offset="0.3414" stop-color="#C48C38"/>
<stop offset="0.3873" stop-color="#D1A547"/>
<stop offset="0.4364" stop-color="#E2C95C"/>
<stop offset="0.4875" stop-color="#F8F677"/>
<stop offset="0.497" stop-color="#FDFF7D"/>
<stop offset="0.8909" stop-color="#B37219"/>
</linearGradient>
<linearGradient id="paint2_linear" x1="14.4274" y1="5.31091" x2="14.4274" y2="0.11246" gradientUnits="userSpaceOnUse">
<stop stop-color="#DABA54"/>
<stop offset="0.0529" stop-color="#D0A547"/>
<stop offset="0.1343" stop-color="#C48C38"/>
<stop offset="0.208" stop-color="#BD7C2E"/>
<stop offset="0.2667" stop-color="#BA772B"/>
<stop offset="0.2999" stop-color="#BD7C2E"/>
<stop offset="0.3414" stop-color="#C48C38"/>
<stop offset="0.3873" stop-color="#D1A547"/>
<stop offset="0.4364" stop-color="#E2C95C"/>
<stop offset="0.4875" stop-color="#F8F677"/>
<stop offset="0.497" stop-color="#FDFF7D"/>
<stop offset="0.8909" stop-color="#B37219"/>
</linearGradient>
<linearGradient id="paint3_linear" x1="9.05381" y1="6.3923" x2="6.39803" y2="1.7925" gradientUnits="userSpaceOnUse">
<stop offset="0.1333" stop-color="#16649D"/>
<stop offset="0.7333" stop-color="#16649D"/>
<stop offset="0.7776" stop-color="#16609E"/>
<stop offset="0.8244" stop-color="#1553A3"/>
<stop offset="0.8723" stop-color="#153EAA"/>
<stop offset="0.9208" stop-color="#1420B4"/>
<stop offset="0.9636" stop-color="#1300BF"/>
</linearGradient>
<linearGradient id="paint4_linear" x1="7.64986" y1="7.20348" x2="5.05488" y2="2.70898" gradientUnits="userSpaceOnUse">
<stop stop-color="#DABA54"/>
<stop offset="0.0529" stop-color="#D0A547"/>
<stop offset="0.1343" stop-color="#C48C38"/>
<stop offset="0.208" stop-color="#BD7C2E"/>
<stop offset="0.2667" stop-color="#BA772B"/>
<stop offset="0.2999" stop-color="#BD7C2E"/>
<stop offset="0.3414" stop-color="#C48C38"/>
<stop offset="0.3873" stop-color="#D1A547"/>
<stop offset="0.4364" stop-color="#E2C95C"/>
<stop offset="0.4875" stop-color="#F8F677"/>
<stop offset="0.497" stop-color="#FDFF7D"/>
<stop offset="0.8909" stop-color="#B37219"/>
</linearGradient>
<linearGradient id="paint5_linear" x1="10.3964" y1="5.61761" x2="7.79682" y2="1.11514" gradientUnits="userSpaceOnUse">
<stop stop-color="#DABA54"/>
<stop offset="0.0529" stop-color="#D0A547"/>
<stop offset="0.1343" stop-color="#C48C38"/>
<stop offset="0.208" stop-color="#BD7C2E"/>
<stop offset="0.2667" stop-color="#BA772B"/>
<stop offset="0.2999" stop-color="#BD7C2E"/>
<stop offset="0.3414" stop-color="#C48C38"/>
<stop offset="0.3873" stop-color="#D1A547"/>
<stop offset="0.4364" stop-color="#E2C95C"/>
<stop offset="0.4875" stop-color="#F8F677"/>
<stop offset="0.497" stop-color="#FDFF7D"/>
<stop offset="0.8909" stop-color="#B37219"/>
</linearGradient>
<linearGradient id="paint6_linear" x1="6.26607" y1="9.27201" x2="1.66634" y2="6.61628" gradientUnits="userSpaceOnUse">
<stop offset="0.1333" stop-color="#16649D"/>
<stop offset="0.7333" stop-color="#16649D"/>
<stop offset="0.7776" stop-color="#16609E"/>
<stop offset="0.8244" stop-color="#1553A3"/>
<stop offset="0.8723" stop-color="#153EAA"/>
<stop offset="0.9208" stop-color="#1420B4"/>
<stop offset="0.9636" stop-color="#1300BF"/>
</linearGradient>
<linearGradient id="paint7_linear" x1="5.45522" y1="10.6763" x2="0.960872" y2="8.08144" gradientUnits="userSpaceOnUse">
<stop stop-color="#DABA54"/>
<stop offset="0.0529" stop-color="#D0A547"/>
<stop offset="0.1343" stop-color="#C48C38"/>
<stop offset="0.208" stop-color="#BD7C2E"/>
<stop offset="0.2667" stop-color="#BA772B"/>
<stop offset="0.2999" stop-color="#BD7C2E"/>
<stop offset="0.3414" stop-color="#C48C38"/>
<stop offset="0.3873" stop-color="#D1A547"/>
<stop offset="0.4364" stop-color="#E2C95C"/>
<stop offset="0.4875" stop-color="#F8F677"/>
<stop offset="0.497" stop-color="#FDFF7D"/>
<stop offset="0.8909" stop-color="#B37219"/>
</linearGradient>
<linearGradient id="paint8_linear" x1="7.04092" y1="7.93008" x2="2.53816" y2="5.33033" gradientUnits="userSpaceOnUse">
<stop stop-color="#DABA54"/>
<stop offset="0.0529" stop-color="#D0A547"/>
<stop offset="0.1343" stop-color="#C48C38"/>
<stop offset="0.208" stop-color="#BD7C2E"/>
<stop offset="0.2667" stop-color="#BA772B"/>
<stop offset="0.2999" stop-color="#BD7C2E"/>
<stop offset="0.3414" stop-color="#C48C38"/>
<stop offset="0.3873" stop-color="#D1A547"/>
<stop offset="0.4364" stop-color="#E2C95C"/>
<stop offset="0.4875" stop-color="#F8F677"/>
<stop offset="0.497" stop-color="#FDFF7D"/>
<stop offset="0.8909" stop-color="#B37219"/>
</linearGradient>
<linearGradient id="paint9_linear" x1="5.31098" y1="13.1222" x2="0" y2="13.1222" gradientUnits="userSpaceOnUse">
<stop offset="0.1333" stop-color="#16649D"/>
<stop offset="0.7333" stop-color="#16649D"/>
<stop offset="0.7776" stop-color="#16609E"/>
<stop offset="0.8244" stop-color="#1553A3"/>
<stop offset="0.8723" stop-color="#153EAA"/>
<stop offset="0.9208" stop-color="#1420B4"/>
<stop offset="0.9636" stop-color="#1300BF"/>
</linearGradient>
<linearGradient id="paint10_linear" x1="5.3109" y1="14.7433" x2="0.121469" y2="14.7433" gradientUnits="userSpaceOnUse">
<stop stop-color="#DABA54"/>
<stop offset="0.0529" stop-color="#D0A547"/>
<stop offset="0.1343" stop-color="#C48C38"/>
<stop offset="0.208" stop-color="#BD7C2E"/>
<stop offset="0.2667" stop-color="#BA772B"/>
<stop offset="0.2999" stop-color="#BD7C2E"/>
<stop offset="0.3414" stop-color="#C48C38"/>
<stop offset="0.3873" stop-color="#D1A547"/>
<stop offset="0.4364" stop-color="#E2C95C"/>
<stop offset="0.4875" stop-color="#F8F677"/>
<stop offset="0.497" stop-color="#FDFF7D"/>
<stop offset="0.8909" stop-color="#B37219"/>
</linearGradient>
<linearGradient id="paint11_linear" x1="5.31091" y1="11.5718" x2="0.112306" y2="11.5718" gradientUnits="userSpaceOnUse">
<stop stop-color="#DABA54"/>
<stop offset="0.0529" stop-color="#D0A547"/>
<stop offset="0.1343" stop-color="#C48C38"/>
<stop offset="0.208" stop-color="#BD7C2E"/>
<stop offset="0.2667" stop-color="#BA772B"/>
<stop offset="0.2999" stop-color="#BD7C2E"/>
<stop offset="0.3414" stop-color="#C48C38"/>
<stop offset="0.3873" stop-color="#D1A547"/>
<stop offset="0.4364" stop-color="#E2C95C"/>
<stop offset="0.4875" stop-color="#F8F677"/>
<stop offset="0.497" stop-color="#FDFF7D"/>
<stop offset="0.8909" stop-color="#B37219"/>
</linearGradient>
<linearGradient id="paint12_linear" x1="6.39228" y1="16.9451" x2="1.79258" y2="19.6008" gradientUnits="userSpaceOnUse">
<stop offset="0.1333" stop-color="#16649D"/>
<stop offset="0.7333" stop-color="#16649D"/>
<stop offset="0.7776" stop-color="#16609E"/>
<stop offset="0.8244" stop-color="#1553A3"/>
<stop offset="0.8723" stop-color="#153EAA"/>
<stop offset="0.9208" stop-color="#1420B4"/>
<stop offset="0.9636" stop-color="#1300BF"/>
</linearGradient>
<linearGradient id="paint13_linear" x1="7.20314" y1="18.3496" x2="2.70877" y2="20.9445" gradientUnits="userSpaceOnUse">
<stop stop-color="#DABA54"/>
<stop offset="0.0529" stop-color="#D0A547"/>
<stop offset="0.1343" stop-color="#C48C38"/>
<stop offset="0.208" stop-color="#BD7C2E"/>
<stop offset="0.2667" stop-color="#BA772B"/>
<stop offset="0.2999" stop-color="#BD7C2E"/>
<stop offset="0.3414" stop-color="#C48C38"/>
<stop offset="0.3873" stop-color="#D1A547"/>
<stop offset="0.4364" stop-color="#E2C95C"/>
<stop offset="0.4875" stop-color="#F8F677"/>
<stop offset="0.497" stop-color="#FDFF7D"/>
<stop offset="0.8909" stop-color="#B37219"/>
</linearGradient>
<linearGradient id="paint14_linear" x1="5.61751" y1="15.6031" x2="1.11496" y2="18.2027" gradientUnits="userSpaceOnUse">
<stop stop-color="#DABA54"/>
<stop offset="0.0529" stop-color="#D0A547"/>
<stop offset="0.1343" stop-color="#C48C38"/>
<stop offset="0.208" stop-color="#BD7C2E"/>
<stop offset="0.2667" stop-color="#BA772B"/>
<stop offset="0.2999" stop-color="#BD7C2E"/>
<stop offset="0.3414" stop-color="#C48C38"/>
<stop offset="0.3873" stop-color="#D1A547"/>
<stop offset="0.4364" stop-color="#E2C95C"/>
<stop offset="0.4875" stop-color="#F8F677"/>
<stop offset="0.497" stop-color="#FDFF7D"/>
<stop offset="0.8909" stop-color="#B37219"/>
</linearGradient>
<linearGradient id="paint15_linear" x1="9.27197" y1="19.733" x2="6.61612" y2="24.3329" gradientUnits="userSpaceOnUse">
<stop offset="0.1333" stop-color="#16649D"/>
<stop offset="0.7333" stop-color="#16649D"/>
<stop offset="0.7776" stop-color="#16609E"/>
<stop offset="0.8244" stop-color="#1553A3"/>
<stop offset="0.8723" stop-color="#153EAA"/>
<stop offset="0.9208" stop-color="#1420B4"/>
<stop offset="0.9636" stop-color="#1300BF"/>
</linearGradient>
<linearGradient id="paint16_linear" x1="7.92987" y1="18.9582" x2="5.33015" y2="23.4609" gradientUnits="userSpaceOnUse">
<stop stop-color="#DABA54"/>
<stop offset="0.0529" stop-color="#D0A547"/>
<stop offset="0.1343" stop-color="#C48C38"/>
<stop offset="0.208" stop-color="#BD7C2E"/>
<stop offset="0.2667" stop-color="#BA772B"/>
<stop offset="0.2999" stop-color="#BD7C2E"/>
<stop offset="0.3414" stop-color="#C48C38"/>
<stop offset="0.3873" stop-color="#D1A547"/>
<stop offset="0.4364" stop-color="#E2C95C"/>
<stop offset="0.4875" stop-color="#F8F677"/>
<stop offset="0.497" stop-color="#FDFF7D"/>
<stop offset="0.8909" stop-color="#B37219"/>
</linearGradient>
<linearGradient id="paint17_linear" x1="13.1217" y1="20.6882" x2="13.1217" y2="25.9993" gradientUnits="userSpaceOnUse">
<stop offset="0.1333" stop-color="#16649D"/>
<stop offset="0.7333" stop-color="#16649D"/>
<stop offset="0.7776" stop-color="#16609E"/>
<stop offset="0.8244" stop-color="#1553A3"/>
<stop offset="0.8723" stop-color="#153EAA"/>
<stop offset="0.9208" stop-color="#1420B4"/>
<stop offset="0.9636" stop-color="#1300BF"/>
</linearGradient>
<linearGradient id="paint18_linear" x1="14.7432" y1="20.6884" x2="14.7432" y2="25.8778" gradientUnits="userSpaceOnUse">
<stop stop-color="#DABA54"/>
<stop offset="0.0529" stop-color="#D0A547"/>
<stop offset="0.1343" stop-color="#C48C38"/>
<stop offset="0.208" stop-color="#BD7C2E"/>
<stop offset="0.2667" stop-color="#BA772B"/>
<stop offset="0.2999" stop-color="#BD7C2E"/>
<stop offset="0.3414" stop-color="#C48C38"/>
<stop offset="0.3873" stop-color="#D1A547"/>
<stop offset="0.4364" stop-color="#E2C95C"/>
<stop offset="0.4875" stop-color="#F8F677"/>
<stop offset="0.497" stop-color="#FDFF7D"/>
<stop offset="0.8909" stop-color="#B37219"/>
</linearGradient>
<linearGradient id="paint19_linear" x1="11.572" y1="20.6882" x2="11.572" y2="25.8871" gradientUnits="userSpaceOnUse">
<stop stop-color="#DABA54"/>
<stop offset="0.0529" stop-color="#D0A547"/>
<stop offset="0.1343" stop-color="#C48C38"/>
<stop offset="0.208" stop-color="#BD7C2E"/>
<stop offset="0.2667" stop-color="#BA772B"/>
<stop offset="0.2999" stop-color="#BD7C2E"/>
<stop offset="0.3414" stop-color="#C48C38"/>
<stop offset="0.3873" stop-color="#D1A547"/>
<stop offset="0.4364" stop-color="#E2C95C"/>
<stop offset="0.4875" stop-color="#F8F677"/>
<stop offset="0.497" stop-color="#FDFF7D"/>
<stop offset="0.8909" stop-color="#B37219"/>
</linearGradient>
<linearGradient id="paint20_linear" x1="16.9449" y1="19.6067" x2="19.6009" y2="24.2068" gradientUnits="userSpaceOnUse">
<stop offset="0.1333" stop-color="#16649D"/>
<stop offset="0.7333" stop-color="#16649D"/>
<stop offset="0.7776" stop-color="#16609E"/>
<stop offset="0.8244" stop-color="#1553A3"/>
<stop offset="0.8723" stop-color="#153EAA"/>
<stop offset="0.9208" stop-color="#1420B4"/>
<stop offset="0.9636" stop-color="#1300BF"/>
</linearGradient>
<linearGradient id="paint21_linear" x1="18.3497" y1="18.7964" x2="20.9445" y2="23.2905" gradientUnits="userSpaceOnUse">
<stop stop-color="#DABA54"/>
<stop offset="0.0529" stop-color="#D0A547"/>
<stop offset="0.1343" stop-color="#C48C38"/>
<stop offset="0.208" stop-color="#BD7C2E"/>
<stop offset="0.2667" stop-color="#BA772B"/>
<stop offset="0.2999" stop-color="#BD7C2E"/>
<stop offset="0.3414" stop-color="#C48C38"/>
<stop offset="0.3873" stop-color="#D1A547"/>
<stop offset="0.4364" stop-color="#E2C95C"/>
<stop offset="0.4875" stop-color="#F8F677"/>
<stop offset="0.497" stop-color="#FDFF7D"/>
<stop offset="0.8909" stop-color="#B37219"/>
</linearGradient>
<linearGradient id="paint22_linear" x1="15.6028" y1="20.382" x2="18.2024" y2="24.8845" gradientUnits="userSpaceOnUse">
<stop stop-color="#DABA54"/>
<stop offset="0.0529" stop-color="#D0A547"/>
<stop offset="0.1343" stop-color="#C48C38"/>
<stop offset="0.208" stop-color="#BD7C2E"/>
<stop offset="0.2667" stop-color="#BA772B"/>
<stop offset="0.2999" stop-color="#BD7C2E"/>
<stop offset="0.3414" stop-color="#C48C38"/>
<stop offset="0.3873" stop-color="#D1A547"/>
<stop offset="0.4364" stop-color="#E2C95C"/>
<stop offset="0.4875" stop-color="#F8F677"/>
<stop offset="0.497" stop-color="#FDFF7D"/>
<stop offset="0.8909" stop-color="#B37219"/>
</linearGradient>
<linearGradient id="paint23_linear" x1="19.7328" y1="16.7276" x2="24.3329" y2="19.3835" gradientUnits="userSpaceOnUse">
<stop offset="0.1333" stop-color="#16649D"/>
<stop offset="0.7333" stop-color="#16649D"/>
<stop offset="0.7776" stop-color="#16609E"/>
<stop offset="0.8244" stop-color="#1553A3"/>
<stop offset="0.8723" stop-color="#153EAA"/>
<stop offset="0.9208" stop-color="#1420B4"/>
<stop offset="0.9636" stop-color="#1300BF"/>
</linearGradient>
<linearGradient id="paint24_linear" x1="20.5439" y1="15.3231" x2="25.0382" y2="17.9179" gradientUnits="userSpaceOnUse">
<stop stop-color="#DABA54"/>
<stop offset="0.0529" stop-color="#D0A547"/>
<stop offset="0.1343" stop-color="#C48C38"/>
<stop offset="0.208" stop-color="#BD7C2E"/>
<stop offset="0.2667" stop-color="#BA772B"/>
<stop offset="0.2999" stop-color="#BD7C2E"/>
<stop offset="0.3414" stop-color="#C48C38"/>
<stop offset="0.3873" stop-color="#D1A547"/>
<stop offset="0.4364" stop-color="#E2C95C"/>
<stop offset="0.4875" stop-color="#F8F677"/>
<stop offset="0.497" stop-color="#FDFF7D"/>
<stop offset="0.8909" stop-color="#B37219"/>
</linearGradient>
<linearGradient id="paint25_linear" x1="18.9581" y1="18.0694" x2="23.4609" y2="20.6691" gradientUnits="userSpaceOnUse">
<stop stop-color="#DABA54"/>
<stop offset="0.0529" stop-color="#D0A547"/>
<stop offset="0.1343" stop-color="#C48C38"/>
<stop offset="0.208" stop-color="#BD7C2E"/>
<stop offset="0.2667" stop-color="#BA772B"/>
<stop offset="0.2999" stop-color="#BD7C2E"/>
<stop offset="0.3414" stop-color="#C48C38"/>
<stop offset="0.3873" stop-color="#D1A547"/>
<stop offset="0.4364" stop-color="#E2C95C"/>
<stop offset="0.4875" stop-color="#F8F677"/>
<stop offset="0.497" stop-color="#FDFF7D"/>
<stop offset="0.8909" stop-color="#B37219"/>
</linearGradient>
<linearGradient id="paint26_linear" x1="20.6882" y1="12.8775" x2="25.9993" y2="12.8775" gradientUnits="userSpaceOnUse">
<stop offset="0.1333" stop-color="#16649D"/>
<stop offset="0.7333" stop-color="#16649D"/>
<stop offset="0.7776" stop-color="#16609E"/>
<stop offset="0.8244" stop-color="#1553A3"/>
<stop offset="0.8723" stop-color="#153EAA"/>
<stop offset="0.9208" stop-color="#1420B4"/>
<stop offset="0.9636" stop-color="#1300BF"/>
</linearGradient>
<linearGradient id="paint27_linear" x1="20.6887" y1="11.2559" x2="25.878" y2="11.2559" gradientUnits="userSpaceOnUse">
<stop stop-color="#DABA54"/>
<stop offset="0.0529" stop-color="#D0A547"/>
<stop offset="0.1343" stop-color="#C48C38"/>
<stop offset="0.208" stop-color="#BD7C2E"/>
<stop offset="0.2667" stop-color="#BA772B"/>
<stop offset="0.2999" stop-color="#BD7C2E"/>
<stop offset="0.3414" stop-color="#C48C38"/>
<stop offset="0.3873" stop-color="#D1A547"/>
<stop offset="0.4364" stop-color="#E2C95C"/>
<stop offset="0.4875" stop-color="#F8F677"/>
<stop offset="0.497" stop-color="#FDFF7D"/>
<stop offset="0.8909" stop-color="#B37219"/>
</linearGradient>
<linearGradient id="paint28_linear" x1="20.6882" y1="14.4274" x2="25.8871" y2="14.4274" gradientUnits="userSpaceOnUse">
<stop stop-color="#DABA54"/>
<stop offset="0.0529" stop-color="#D0A547"/>
<stop offset="0.1343" stop-color="#C48C38"/>
<stop offset="0.208" stop-color="#BD7C2E"/>
<stop offset="0.2667" stop-color="#BA772B"/>
<stop offset="0.2999" stop-color="#BD7C2E"/>
<stop offset="0.3414" stop-color="#C48C38"/>
<stop offset="0.3873" stop-color="#D1A547"/>
<stop offset="0.4364" stop-color="#E2C95C"/>
<stop offset="0.4875" stop-color="#F8F677"/>
<stop offset="0.497" stop-color="#FDFF7D"/>
<stop offset="0.8909" stop-color="#B37219"/>
</linearGradient>
<linearGradient id="paint29_linear" x1="19.6067" y1="9.05425" x2="24.2067" y2="6.39831" gradientUnits="userSpaceOnUse">
<stop offset="0.1333" stop-color="#16649D"/>
<stop offset="0.7333" stop-color="#16649D"/>
<stop offset="0.7776" stop-color="#16609E"/>
<stop offset="0.8244" stop-color="#1553A3"/>
<stop offset="0.8723" stop-color="#153EAA"/>
<stop offset="0.9208" stop-color="#1420B4"/>
<stop offset="0.9636" stop-color="#1300BF"/>
</linearGradient>
<linearGradient id="paint30_linear" x1="18.796" y1="7.64954" x2="23.2904" y2="5.05465" gradientUnits="userSpaceOnUse">
<stop stop-color="#DABA54"/>
<stop offset="0.0529" stop-color="#D0A547"/>
<stop offset="0.1343" stop-color="#C48C38"/>
<stop offset="0.208" stop-color="#BD7C2E"/>
<stop offset="0.2667" stop-color="#BA772B"/>
<stop offset="0.2999" stop-color="#BD7C2E"/>
<stop offset="0.3414" stop-color="#C48C38"/>
<stop offset="0.3873" stop-color="#D1A547"/>
<stop offset="0.4364" stop-color="#E2C95C"/>
<stop offset="0.4875" stop-color="#F8F677"/>
<stop offset="0.497" stop-color="#FDFF7D"/>
<stop offset="0.8909" stop-color="#B37219"/>
</linearGradient>
<linearGradient id="paint31_linear" x1="20.3817" y1="10.3966" x2="24.8843" y2="7.79691" gradientUnits="userSpaceOnUse">
<stop stop-color="#DABA54"/>
<stop offset="0.0529" stop-color="#D0A547"/>
<stop offset="0.1343" stop-color="#C48C38"/>
<stop offset="0.208" stop-color="#BD7C2E"/>
<stop offset="0.2667" stop-color="#BA772B"/>
<stop offset="0.2999" stop-color="#BD7C2E"/>
<stop offset="0.3414" stop-color="#C48C38"/>
<stop offset="0.3873" stop-color="#D1A547"/>
<stop offset="0.4364" stop-color="#E2C95C"/>
<stop offset="0.4875" stop-color="#F8F677"/>
<stop offset="0.497" stop-color="#FDFF7D"/>
<stop offset="0.8909" stop-color="#B37219"/>
</linearGradient>
<linearGradient id="paint32_linear" x1="16.7277" y1="6.26624" x2="19.3835" y2="1.66631" gradientUnits="userSpaceOnUse">
<stop offset="0.1333" stop-color="#16649D"/>
<stop offset="0.7333" stop-color="#16649D"/>
<stop offset="0.7776" stop-color="#16609E"/>
<stop offset="0.8244" stop-color="#1553A3"/>
<stop offset="0.8723" stop-color="#153EAA"/>
<stop offset="0.9208" stop-color="#1420B4"/>
<stop offset="0.9636" stop-color="#1300BF"/>
</linearGradient>
<linearGradient id="paint33_linear" x1="15.3231" y1="5.45524" x2="17.9179" y2="0.961074" gradientUnits="userSpaceOnUse">
<stop stop-color="#DABA54"/>
<stop offset="0.0529" stop-color="#D0A547"/>
<stop offset="0.1343" stop-color="#C48C38"/>
<stop offset="0.208" stop-color="#BD7C2E"/>
<stop offset="0.2667" stop-color="#BA772B"/>
<stop offset="0.2999" stop-color="#BD7C2E"/>
<stop offset="0.3414" stop-color="#C48C38"/>
<stop offset="0.3873" stop-color="#D1A547"/>
<stop offset="0.4364" stop-color="#E2C95C"/>
<stop offset="0.4875" stop-color="#F8F677"/>
<stop offset="0.497" stop-color="#FDFF7D"/>
<stop offset="0.8909" stop-color="#B37219"/>
</linearGradient>
<linearGradient id="paint34_linear" x1="18.0694" y1="7.04115" x2="20.6693" y2="2.53827" gradientUnits="userSpaceOnUse">
<stop stop-color="#DABA54"/>
<stop offset="0.0529" stop-color="#D0A547"/>
<stop offset="0.1343" stop-color="#C48C38"/>
<stop offset="0.208" stop-color="#BD7C2E"/>
<stop offset="0.2667" stop-color="#BA772B"/>
<stop offset="0.2999" stop-color="#BD7C2E"/>
<stop offset="0.3414" stop-color="#C48C38"/>
<stop offset="0.3873" stop-color="#D1A547"/>
<stop offset="0.4364" stop-color="#E2C95C"/>
<stop offset="0.4875" stop-color="#F8F677"/>
<stop offset="0.497" stop-color="#FDFF7D"/>
<stop offset="0.8909" stop-color="#B37219"/>
</linearGradient>
<linearGradient id="paint35_linear" x1="18.9086" y1="4.53786" x2="6.68068" y2="21.2553" gradientUnits="userSpaceOnUse">
<stop offset="0.0292" stop-color="#C8953E"/>
<stop offset="0.152" stop-color="#DFC760"/>
<stop offset="0.4795" stop-color="#B37219"/>
<stop offset="0.7485" stop-color="#E0C45C"/>
<stop offset="1" stop-color="#D3B151"/>
</linearGradient>
<linearGradient id="paint36_linear" x1="3.73965" y1="12.9196" x2="21.8155" y2="12.9196" gradientUnits="userSpaceOnUse">
<stop offset="0.0292" stop-color="#C8953E"/>
<stop offset="0.152" stop-color="#DFC760"/>
<stop offset="0.4795" stop-color="#B37219"/>
<stop offset="0.7485" stop-color="#E0C45C"/>
<stop offset="1" stop-color="#D3B151"/>
</linearGradient>
<linearGradient id="paint37_linear" x1="8.05391" y1="4.73811" x2="17.5011" y2="21.1012" gradientUnits="userSpaceOnUse">
<stop stop-color="#CB9F3D"/>
<stop offset="0.2398" stop-color="#F2E677"/>
<stop offset="0.2819" stop-color="#E8D368"/>
<stop offset="0.411" stop-color="#CB9F3D"/>
<stop offset="0.5081" stop-color="#BA7E23"/>
<stop offset="0.5614" stop-color="#B37219"/>
<stop offset="0.6193" stop-color="#B77A20"/>
<stop offset="0.7091" stop-color="#C39032"/>
<stop offset="0.8193" stop-color="#D5B450"/>
<stop offset="0.8713" stop-color="#DFC760"/>
<stop offset="0.9708" stop-color="#C8953E"/>
</linearGradient>
<linearGradient id="paint38_linear" x1="4.62886" y1="18.0116" x2="20.9263" y2="7.82788" gradientUnits="userSpaceOnUse">
<stop stop-color="#CB9F3D"/>
<stop offset="0.2398" stop-color="#FDFF87"/>
<stop offset="0.2942" stop-color="#EBDC6C"/>
<stop offset="0.3852" stop-color="#CFA843"/>
<stop offset="0.4536" stop-color="#BE872A"/>
<stop offset="0.4912" stop-color="#B87B20"/>
<stop offset="0.6901" stop-color="#B37219"/>
<stop offset="0.7475" stop-color="#B6761C"/>
<stop offset="0.8075" stop-color="#BE8326"/>
<stop offset="0.8687" stop-color="#CC9836"/>
<stop offset="0.9308" stop-color="#DFB54C"/>
<stop offset="0.993" stop-color="#F7DA68"/>
<stop offset="1" stop-color="#FADF6C"/>
</linearGradient>
<linearGradient id="paint39_linear" x1="12.7335" y1="9.47141" x2="12.7335" y2="8.504" gradientUnits="userSpaceOnUse">
<stop stop-color="#68390B"/>
<stop offset="1" stop-color="#AB6F16"/>
</linearGradient>
<linearGradient id="paint40_linear" x1="14.3459" y1="9.76566" x2="14.3459" y2="8.90218" gradientUnits="userSpaceOnUse">
<stop stop-color="#68390B"/>
<stop offset="1" stop-color="#AB6F16"/>
</linearGradient>
<linearGradient id="paint41_linear" x1="15.5907" y1="10.612" x2="15.5907" y2="9.8724" gradientUnits="userSpaceOnUse">
<stop stop-color="#68390B"/>
<stop offset="1" stop-color="#AB6F16"/>
</linearGradient>
<linearGradient id="paint42_linear" x1="11.1214" y1="9.76566" x2="11.1215" y2="8.90218" gradientUnits="userSpaceOnUse">
<stop stop-color="#68390B"/>
<stop offset="1" stop-color="#AB6F16"/>
</linearGradient>
<linearGradient id="paint43_linear" x1="9.87644" y1="10.612" x2="9.87646" y2="9.8724" gradientUnits="userSpaceOnUse">
<stop stop-color="#68390B"/>
<stop offset="1" stop-color="#AB6F16"/>
</linearGradient>
<linearGradient id="paint44_linear" x1="3.73965" y1="12.9196" x2="21.8155" y2="12.9196" gradientUnits="userSpaceOnUse">
<stop offset="0.0292" stop-color="#C8953E"/>
<stop offset="0.152" stop-color="#DFC760"/>
<stop offset="0.4795" stop-color="#B37219"/>
<stop offset="0.7485" stop-color="#E0C45C"/>
<stop offset="1" stop-color="#D3B151"/>
</linearGradient>
<linearGradient id="paint45_linear" x1="7.34742" y1="17.0022" x2="7.34742" y2="14.6147" gradientUnits="userSpaceOnUse">
<stop stop-color="#38190F"/>
<stop offset="1" stop-color="#68390B"/>
</linearGradient>
<linearGradient id="paint46_linear" x1="9.26588" y1="17.0438" x2="9.26588" y2="15.1682" gradientUnits="userSpaceOnUse">
<stop stop-color="#38190F"/>
<stop offset="1" stop-color="#68390B"/>
</linearGradient>
<linearGradient id="paint47_linear" x1="10.9932" y1="17.0022" x2="10.9932" y2="15.1682" gradientUnits="userSpaceOnUse">
<stop stop-color="#38190F"/>
<stop offset="1" stop-color="#68390B"/>
</linearGradient>
<linearGradient id="paint48_linear" x1="12.0585" y1="17.0022" x2="12.0585" y2="14.4744" gradientUnits="userSpaceOnUse">
<stop stop-color="#38190F"/>
<stop offset="1" stop-color="#68390B"/>
</linearGradient>
<linearGradient id="paint49_linear" x1="13.1207" y1="17.0024" x2="13.1207" y2="14.44" gradientUnits="userSpaceOnUse">
<stop stop-color="#38190F"/>
<stop offset="1" stop-color="#68390B"/>
</linearGradient>
<linearGradient id="paint50_linear" x1="14.1612" y1="17.0022" x2="14.1612" y2="14.4744" gradientUnits="userSpaceOnUse">
<stop stop-color="#38190F"/>
<stop offset="1" stop-color="#68390B"/>
</linearGradient>
<linearGradient id="paint51_linear" x1="15.5946" y1="17.0438" x2="15.5946" y2="15.1682" gradientUnits="userSpaceOnUse">
<stop stop-color="#38190F"/>
<stop offset="1" stop-color="#68390B"/>
</linearGradient>
<linearGradient id="paint52_linear" x1="17.026" y1="17.0022" x2="17.026" y2="14.4744" gradientUnits="userSpaceOnUse">
<stop stop-color="#38190F"/>
<stop offset="1" stop-color="#68390B"/>
</linearGradient>
<linearGradient id="paint53_linear" x1="18.4929" y1="17.0437" x2="18.4929" y2="14.4744" gradientUnits="userSpaceOnUse">
<stop stop-color="#38190F"/>
<stop offset="1" stop-color="#68390B"/>
</linearGradient>
<clipPath id="clip0">
<rect width="4.20055" height="4.20055" fill="white" transform="translate(10.5014 10.0814)"/>
</clipPath>
</defs>
</svg>
