<svg width="182" height="24" viewBox="0 0 182 24" fill="none" xmlns="http://www.w3.org/2000/svg">
<path d="M51.583 11.6826H47.7275L46.9209 14H45.123L48.8828 4.04688H50.4346L54.2012 14H52.3965L51.583 11.6826ZM48.2129 10.2881H51.0977L49.6553 6.15918L48.2129 10.2881ZM54.8643 10.2471C54.8643 9.10775 55.1286 8.19401 55.6572 7.50586C56.1859 6.81315 56.8945 6.4668 57.7832 6.4668C58.5671 6.4668 59.2005 6.74023 59.6836 7.28711V3.5H61.3447V14H59.8408L59.7588 13.2344C59.262 13.8359 58.599 14.1367 57.7695 14.1367C56.9036 14.1367 56.2018 13.7881 55.6641 13.0908C55.1309 12.3936 54.8643 11.4456 54.8643 10.2471ZM56.5254 10.3906C56.5254 11.1426 56.6689 11.7305 56.9561 12.1543C57.2477 12.5736 57.6602 12.7832 58.1934 12.7832C58.8724 12.7832 59.3691 12.4801 59.6836 11.874V8.71582C59.3783 8.12337 58.8861 7.82715 58.207 7.82715C57.6693 7.82715 57.2546 8.04134 56.9629 8.46973C56.6712 8.89355 56.5254 9.53385 56.5254 10.3906ZM62.7666 10.2471C62.7666 9.10775 63.0309 8.19401 63.5596 7.50586C64.0882 6.81315 64.7969 6.4668 65.6855 6.4668C66.4694 6.4668 67.1029 6.74023 67.5859 7.28711V3.5H69.2471V14H67.7432L67.6611 13.2344C67.1644 13.8359 66.5013 14.1367 65.6719 14.1367C64.806 14.1367 64.1042 13.7881 63.5664 13.0908C63.0332 12.3936 62.7666 11.4456 62.7666 10.2471ZM64.4277 10.3906C64.4277 11.1426 64.5713 11.7305 64.8584 12.1543C65.1501 12.5736 65.5625 12.7832 66.0957 12.7832C66.7747 12.7832 67.2715 12.4801 67.5859 11.874V8.71582C67.2806 8.12337 66.7884 7.82715 66.1094 7.82715C65.5716 7.82715 65.1569 8.04134 64.8652 8.46973C64.5736 8.89355 64.4277 9.53385 64.4277 10.3906ZM74.8525 8.12109C74.6338 8.08464 74.4082 8.06641 74.1758 8.06641C73.4147 8.06641 72.902 8.35807 72.6377 8.94141V14H70.9766V6.60352H72.5625L72.6035 7.43066C73.0046 6.78809 73.5605 6.4668 74.2715 6.4668C74.5085 6.4668 74.7044 6.4987 74.8594 6.5625L74.8525 8.12109ZM79.0225 14.1367C77.9697 14.1367 77.1152 13.8063 76.459 13.1455C75.8073 12.4801 75.4814 11.596 75.4814 10.4932V10.2881C75.4814 9.5498 75.6227 8.89128 75.9053 8.3125C76.1924 7.72917 76.5934 7.27572 77.1084 6.95215C77.6234 6.62858 78.1976 6.4668 78.8311 6.4668C79.8382 6.4668 80.6152 6.78809 81.1621 7.43066C81.7135 8.07324 81.9893 8.98242 81.9893 10.1582V10.8281H77.1562C77.2064 11.4388 77.4092 11.9219 77.7646 12.2773C78.1247 12.6328 78.5758 12.8105 79.1182 12.8105C79.8792 12.8105 80.499 12.5029 80.9775 11.8877L81.873 12.7422C81.5768 13.1842 81.1803 13.5283 80.6836 13.7744C80.1914 14.016 79.6377 14.1367 79.0225 14.1367ZM78.8242 7.7998C78.3685 7.7998 77.9993 7.95931 77.7168 8.27832C77.4388 8.59733 77.2611 9.04167 77.1836 9.61133H80.3486V9.48828C80.3122 8.93229 80.1641 8.51302 79.9043 8.23047C79.6445 7.94336 79.2845 7.7998 78.8242 7.7998ZM87.4307 11.9902C87.4307 11.694 87.3076 11.4684 87.0615 11.3135C86.82 11.1585 86.4167 11.0218 85.8516 10.9033C85.2865 10.7848 84.8148 10.6344 84.4365 10.4521C83.6071 10.0511 83.1924 9.47005 83.1924 8.70898C83.1924 8.07096 83.4613 7.53776 83.999 7.10938C84.5368 6.68099 85.2204 6.4668 86.0498 6.4668C86.9339 6.4668 87.6471 6.68555 88.1895 7.12305C88.7363 7.56055 89.0098 8.12793 89.0098 8.8252H87.3486C87.3486 8.50618 87.2301 8.24186 86.9932 8.03223C86.7562 7.81803 86.4417 7.71094 86.0498 7.71094C85.6852 7.71094 85.3867 7.79525 85.1543 7.96387C84.9264 8.13249 84.8125 8.35807 84.8125 8.64062C84.8125 8.89583 84.9196 9.09408 85.1338 9.23535C85.348 9.37663 85.7809 9.52018 86.4326 9.66602C87.0843 9.80729 87.5947 9.97819 87.9639 10.1787C88.3376 10.3747 88.6133 10.6117 88.791 10.8896C88.9733 11.1676 89.0645 11.5049 89.0645 11.9014C89.0645 12.5667 88.7887 13.1068 88.2373 13.5215C87.6859 13.9316 86.9635 14.1367 86.0703 14.1367C85.4642 14.1367 84.9242 14.0273 84.4502 13.8086C83.9762 13.5898 83.6071 13.2891 83.3428 12.9062C83.0785 12.5234 82.9463 12.111 82.9463 11.6689H84.5596C84.5824 12.0609 84.7305 12.3639 85.0039 12.5781C85.2773 12.7878 85.6396 12.8926 86.0908 12.8926C86.5283 12.8926 86.861 12.8105 87.0889 12.6465C87.3167 12.4779 87.4307 12.2591 87.4307 11.9902ZM94.6631 11.9902C94.6631 11.694 94.54 11.4684 94.2939 11.3135C94.0524 11.1585 93.6491 11.0218 93.084 10.9033C92.5189 10.7848 92.0472 10.6344 91.6689 10.4521C90.8395 10.0511 90.4248 9.47005 90.4248 8.70898C90.4248 8.07096 90.6937 7.53776 91.2314 7.10938C91.7692 6.68099 92.4528 6.4668 93.2822 6.4668C94.1663 6.4668 94.8796 6.68555 95.4219 7.12305C95.9688 7.56055 96.2422 8.12793 96.2422 8.8252H94.5811C94.5811 8.50618 94.4626 8.24186 94.2256 8.03223C93.9886 7.81803 93.6742 7.71094 93.2822 7.71094C92.9176 7.71094 92.6191 7.79525 92.3867 7.96387C92.1589 8.13249 92.0449 8.35807 92.0449 8.64062C92.0449 8.89583 92.152 9.09408 92.3662 9.23535C92.5804 9.37663 93.0133 9.52018 93.665 9.66602C94.3167 9.80729 94.8271 9.97819 95.1963 10.1787C95.57 10.3747 95.8457 10.6117 96.0234 10.8896C96.2057 11.1676 96.2969 11.5049 96.2969 11.9014C96.2969 12.5667 96.0212 13.1068 95.4697 13.5215C94.9183 13.9316 94.196 14.1367 93.3027 14.1367C92.6966 14.1367 92.1566 14.0273 91.6826 13.8086C91.2087 13.5898 90.8395 13.2891 90.5752 12.9062C90.3109 12.5234 90.1787 12.111 90.1787 11.6689H91.792C91.8148 12.0609 91.9629 12.3639 92.2363 12.5781C92.5098 12.7878 92.8721 12.8926 93.3232 12.8926C93.7607 12.8926 94.0934 12.8105 94.3213 12.6465C94.5492 12.4779 94.6631 12.2591 94.6631 11.9902ZM107.727 10.377C107.727 11.5254 107.469 12.4391 106.954 13.1182C106.444 13.7972 105.74 14.1367 104.842 14.1367C103.976 14.1367 103.301 13.8245 102.818 13.2002L102.736 14H101.232V3.5H102.894V7.31445C103.372 6.74935 104.017 6.4668 104.828 6.4668C105.73 6.4668 106.439 6.80176 106.954 7.47168C107.469 8.1416 107.727 9.07812 107.727 10.2812V10.377ZM106.065 10.2334C106.065 9.43132 105.924 8.82975 105.642 8.42871C105.359 8.02767 104.949 7.82715 104.411 7.82715C103.691 7.82715 103.185 8.1416 102.894 8.77051V11.8193C103.19 12.4619 103.7 12.7832 104.425 12.7832C104.944 12.7832 105.345 12.5895 105.628 12.2021C105.91 11.8148 106.056 11.2292 106.065 10.4453V10.2334ZM108.813 10.2334C108.813 9.50879 108.957 8.8571 109.244 8.27832C109.531 7.69499 109.935 7.24837 110.454 6.93848C110.974 6.62402 111.571 6.4668 112.245 6.4668C113.243 6.4668 114.052 6.78809 114.672 7.43066C115.296 8.07324 115.633 8.92546 115.684 9.9873L115.69 10.377C115.69 11.1061 115.549 11.7578 115.267 12.332C114.989 12.9062 114.588 13.3506 114.063 13.665C113.544 13.9795 112.942 14.1367 112.259 14.1367C111.215 14.1367 110.379 13.7904 109.75 13.0977C109.126 12.4004 108.813 11.473 108.813 10.3154V10.2334ZM110.475 10.377C110.475 11.138 110.632 11.735 110.946 12.168C111.261 12.5964 111.698 12.8105 112.259 12.8105C112.819 12.8105 113.255 12.5918 113.564 12.1543C113.879 11.7168 114.036 11.0765 114.036 10.2334C114.036 9.486 113.874 8.89355 113.551 8.45605C113.232 8.01855 112.797 7.7998 112.245 7.7998C111.703 7.7998 111.272 8.01628 110.953 8.44922C110.634 8.8776 110.475 9.52018 110.475 10.377ZM116.784 10.2334C116.784 9.50879 116.928 8.8571 117.215 8.27832C117.502 7.69499 117.905 7.24837 118.425 6.93848C118.944 6.62402 119.541 6.4668 120.216 6.4668C121.214 6.4668 122.023 6.78809 122.643 7.43066C123.267 8.07324 123.604 8.92546 123.654 9.9873L123.661 10.377C123.661 11.1061 123.52 11.7578 123.237 12.332C122.959 12.9062 122.558 13.3506 122.034 13.665C121.515 13.9795 120.913 14.1367 120.229 14.1367C119.186 14.1367 118.35 13.7904 117.721 13.0977C117.096 12.4004 116.784 11.473 116.784 10.3154V10.2334ZM118.445 10.377C118.445 11.138 118.603 11.735 118.917 12.168C119.231 12.5964 119.669 12.8105 120.229 12.8105C120.79 12.8105 121.225 12.5918 121.535 12.1543C121.85 11.7168 122.007 11.0765 122.007 10.2334C122.007 9.486 121.845 8.89355 121.521 8.45605C121.202 8.01855 120.767 7.7998 120.216 7.7998C119.674 7.7998 119.243 8.01628 118.924 8.44922C118.605 8.8776 118.445 9.52018 118.445 10.377ZM127.469 10.8281L126.73 11.5869V14H125.069V3.5H126.73V9.55664L127.25 8.90723L129.294 6.60352H131.29L128.542 9.68652L131.584 14H129.663L127.469 10.8281Z" fill="#343434"/>
<path d="M23.2501 6.786V5.214H21.4111V1.969C21.4082 1.66008 21.2835 1.36479 21.064 1.14737C20.8445 0.929952 20.548 0.807985 20.2391 0.807999H3.76111C3.11811 0.807999 2.59511 1.326 2.58911 1.968V22.125C2.59201 22.4339 2.71677 22.7292 2.93625 22.9466C3.15573 23.164 3.45217 23.286 3.76111 23.286H20.2391C20.8821 23.286 21.4051 22.768 21.4111 22.126V18.786H23.2501V17.214H21.4111V12.786H23.2501V11.214H21.4111V6.786H23.2501ZM19.8391 11.214H17.6251V12.786H19.8391V17.214H17.6251V18.786H19.8391V21.714H4.16111V2.38H19.8391V5.214H17.6251V6.786H19.8391V11.214Z" fill="#AD49D2"/>
<path d="M14.702 14.387L13.355 13.511L14.003 11.933V9.455C14.003 8.63813 13.6785 7.85472 13.1009 7.27711C12.5232 6.6995 11.7398 6.375 10.923 6.375C10.1061 6.375 9.32269 6.6995 8.74508 7.27711C8.16747 7.85472 7.84297 8.63813 7.84297 9.455V11.919L8.43897 13.545L7.14297 14.387C6.82138 14.5953 6.55701 14.8807 6.37396 15.2173C6.19092 15.5538 6.095 15.9309 6.09497 16.314V18.75H15.751V16.319V16.315C15.751 15.511 15.338 14.803 14.712 14.393L14.703 14.388L14.702 14.387ZM14.25 17.25H7.59397V16.319V16.317C7.59397 16.037 7.73797 15.79 7.95697 15.647L7.95997 15.645L10.258 14.151L9.34197 11.653V9.456C9.34197 9.03696 9.50843 8.63508 9.80474 8.33877C10.101 8.04246 10.5029 7.876 10.922 7.876C11.341 7.876 11.7429 8.04246 12.0392 8.33877C12.3355 8.63508 12.502 9.03696 12.502 9.456V11.638L11.494 14.092L13.884 15.645C13.9961 15.7177 14.0883 15.8173 14.1522 15.9346C14.2161 16.0519 14.2497 16.1834 14.25 16.317V16.319V17.25Z" fill="#AD49D2"/>
</svg>
