<svg width="55" height="44" viewBox="0 0 55 44" fill="none" xmlns="http://www.w3.org/2000/svg">
<path d="M52.4844 9.15968L14.5234 5.55027C14.2745 5.55027 14.0256 5.55027 13.7766 5.55027L9.42044 1.8164C9.17152 1.56747 8.92259 1.56747 8.54921 1.56747H5.56211C5.43765 1.31855 5.31319 1.19409 5.06426 0.945161C4.06856 0.073925 2.45055 0.198389 1.57932 1.31855C0.70808 2.31425 0.832544 3.93226 1.95271 4.80349C2.9484 5.67473 4.56641 5.55027 5.43765 4.43011C5.56211 4.30565 5.56211 4.18118 5.68657 4.18118H7.80244C8.05136 4.18118 8.42474 4.30565 8.67367 4.43011L12.1586 7.29274C12.0342 7.66613 12.0342 8.03951 12.0342 8.53736L15.2702 27.4556C15.5191 28.7003 16.5148 29.5715 17.635 29.5715H20.6221L17.635 33.3054C17.0126 34.0521 17.2616 35.4212 18.7551 35.4212H48.6261C49.1239 35.4212 49.6218 35.0478 49.6218 34.4255C49.6218 33.9277 49.2484 33.4298 48.6261 33.4298H20.871C20.3731 33.4298 19.9997 33.0564 20.4976 32.4341L22.6135 29.447H47.6304C48.6261 29.447 49.6218 28.7003 49.9952 27.7046L54.7247 12.5202C55.0981 11.0266 54.1024 9.28414 52.4844 9.15968ZM15.768 13.2669L15.0212 8.66182L15.768 8.78629V13.2669ZM19.6264 26.4599H18.1328L17.7594 24.0952V22.2282H19.6264V26.4599ZM19.6264 20.3613H17.7594V16.0051H19.6264V20.3613ZM19.6264 14.1382H17.7594V8.91075L19.6264 9.03522V14.1382ZM23.3602 26.4599H21.4933V22.2282H23.3602V26.4599ZM23.3602 20.3613H21.4933V16.0051H23.3602V20.3613ZM23.3602 14.1382H21.4933V9.28414L23.3602 9.4086V14.1382ZM27.0941 26.4599H25.2272V22.2282H27.0941V26.4599ZM27.0941 20.3613H25.2272V16.0051H27.0941V20.3613ZM27.0941 14.1382H25.2272V9.65753L27.0941 9.78199V14.1382ZM30.828 26.4599H28.961V22.2282H30.828V26.4599ZM30.828 20.3613H28.961V16.0051H30.828V20.3613ZM30.828 14.1382H28.961V10.0309L30.828 10.1554V14.1382ZM34.5618 26.4599H32.6949V22.2282H34.5618V26.4599ZM34.5618 20.3613H32.6949V16.0051H34.5618V20.3613ZM34.5618 14.1382H32.6949V10.4043L34.5618 10.5288V14.1382ZM38.2957 26.4599H36.4288V22.2282H38.2957V26.4599ZM38.2957 20.3613H36.4288V16.0051H38.2957V20.3613ZM38.2957 14.1382H36.4288V10.7777L38.2957 10.9022V14.1382ZM42.0296 26.4599H40.1626V22.2282H42.0296V26.4599ZM42.0296 20.3613H40.1626V16.0051H42.0296V20.3613ZM42.0296 14.1382H40.1626V11.0266L42.0296 11.1511V14.1382ZM45.7634 26.4599H43.8965V22.2282H45.7634V26.4599ZM45.7634 20.3613H43.8965V16.0051H45.7634V20.3613ZM45.7634 14.1382H43.8965V11.4L45.7634 11.5245V14.1382ZM47.6304 24.3441V22.2282H48.2527L47.6304 24.3441ZM48.875 20.3613H47.6304V16.0051H50.2441L48.875 20.3613ZM50.8664 14.1382H47.7548V11.7734L51.4887 12.1468L50.8664 14.1382Z" fill="#2D3540"/>
<path d="M22.6135 35.9191C20.6221 35.9191 18.8796 37.5371 18.8796 39.6529C18.8796 41.6443 20.4977 43.3868 22.6135 43.3868C24.6049 43.3868 26.3474 41.7688 26.3474 39.6529C26.3474 37.6615 24.6049 35.9191 22.6135 35.9191ZM22.6135 41.022C21.8667 41.022 21.2444 40.3997 21.2444 39.6529C21.2444 38.9062 21.8667 38.2839 22.6135 38.2839C23.3603 38.2839 23.9826 38.9062 23.9826 39.6529C23.9826 40.3997 23.3603 41.022 22.6135 41.022Z" fill="#2D3540"/>
<path d="M43.2743 35.9191C41.2829 35.9191 39.5404 37.5371 39.5404 39.6529C39.5404 41.6443 41.1584 43.3868 43.2743 43.3868C45.2657 43.3868 47.0081 41.7688 47.0081 39.6529C47.0081 37.6615 45.2657 35.9191 43.2743 35.9191ZM43.2743 41.022C42.5275 41.022 41.9052 40.3997 41.9052 39.6529C41.9052 38.9062 42.5275 38.2839 43.2743 38.2839C44.021 38.2839 44.6434 38.9062 44.6434 39.6529C44.6434 40.3997 44.021 41.022 43.2743 41.022Z" fill="#2D3540"/>
<path d="M52.4844 8.78626L14.5234 5.17685C14.2745 5.17685 14.0255 5.17685 13.7766 5.17685L9.42044 1.44298C9.17152 1.19406 8.92259 1.19406 8.54921 1.19406H5.56211C5.43765 0.945136 5.31319 0.820674 5.06426 0.571749C4.06856 -0.299487 2.45055 -0.175026 1.57932 0.945135C0.70808 1.94083 0.832544 3.55885 1.9527 4.43008C2.9484 5.30132 4.56641 5.17685 5.43765 4.05669C5.56211 3.93223 5.56211 3.80777 5.68657 3.80777H7.80243C8.05136 3.80777 8.42474 3.93223 8.67367 4.05669L12.1586 6.91933C12.0342 7.29272 12.0342 7.6661 12.0342 8.16395L15.2702 27.0822C15.5191 28.3269 16.5148 29.1981 17.635 29.1981H20.6221L17.635 32.932C17.0126 33.6787 17.2616 35.0478 18.7551 35.0478H48.6261C49.1239 35.0478 49.6218 34.6744 49.6218 34.0521C49.6218 33.5543 49.2484 33.0564 48.6261 33.0564H20.871C20.3731 33.0564 19.9997 32.683 20.4976 32.0607L22.6134 29.0736H47.6304C48.6261 29.0736 49.6218 28.3268 49.9952 27.3311L54.6003 12.2712C55.0981 10.6532 54.1024 8.91073 52.4844 8.78626ZM15.768 12.8935L15.0212 8.28841L15.768 8.41288V12.8935ZM19.6264 26.0865H18.1328L17.7594 23.7217V21.9793H19.6264V26.0865ZM19.6264 20.1123H17.7594V15.7562H19.6264V20.1123ZM19.6264 13.7648H17.7594V8.53734L19.6264 8.6618V13.7648ZM23.3602 26.0865H21.4933V21.9793H23.3602V26.0865ZM23.3602 20.1123H21.4933V15.7562H23.3602V20.1123ZM23.3602 13.7648H21.4933V8.91072L23.3602 9.03519V13.7648ZM27.0941 26.0865H25.2272V21.9793H27.0941V26.0865ZM27.0941 20.1123H25.2272V15.7562H27.0941V20.1123ZM27.0941 13.7648H25.2272V9.28411L27.0941 9.40858V13.7648ZM30.828 26.0865H28.961V21.9793H30.828V26.0865ZM30.828 20.1123H28.961V15.7562H30.828V20.1123ZM30.828 13.7648H28.961V9.6575L30.828 9.78196V13.7648ZM34.5618 26.0865H32.6949V21.9793H34.5618V26.0865ZM34.5618 20.1123H32.6949V15.7562H34.5618V20.1123ZM34.5618 13.7648H32.6949V10.0309L34.5618 10.1553V13.7648ZM38.2957 26.0865H36.4288V21.9793H38.2957V26.0865ZM38.2957 20.1123H36.4288V15.7562H38.2957V20.1123ZM38.2957 13.7648H36.4288V10.4043L38.2957 10.5287V13.7648ZM42.0296 26.0865H40.1626V21.9793H42.0296V26.0865ZM42.0296 20.1123H40.1626V15.7562H42.0296V20.1123ZM42.0296 13.7648H40.1626V10.6532L42.0296 10.7777V13.7648ZM45.7634 26.0865H43.8965V21.9793H45.7634V26.0865ZM45.7634 20.1123H43.8965V15.7562H45.7634V20.1123ZM45.7634 13.7648H43.8965V11.0266L45.7634 11.151V13.7648ZM47.6304 24.0951V21.9793H48.2527L47.6304 24.0951ZM48.875 20.1123H47.6304V15.7562H50.2441L48.875 20.1123ZM50.8664 13.7648H47.7548V11.4L51.4887 11.7734L50.8664 13.7648Z" fill="#526378"/>
<path d="M22.6135 35.6702C20.6221 35.6702 18.8796 37.2882 18.8796 39.404C18.8796 41.5199 20.4977 43.1379 22.6135 43.1379C24.6049 43.1379 26.3474 41.5199 26.3474 39.404C26.3474 37.2882 24.6049 35.6702 22.6135 35.6702ZM22.6135 40.6487C21.8667 40.6487 21.2444 40.0263 21.2444 39.2796C21.2444 38.5328 21.8667 37.9105 22.6135 37.9105C23.3603 37.9105 23.9826 38.5328 23.9826 39.2796C23.9826 40.0263 23.3603 40.6487 22.6135 40.6487Z" fill="#526378"/>
<path d="M43.2743 35.6702C41.2829 35.6702 39.5404 37.2882 39.5404 39.404C39.5404 41.5199 41.1584 43.1379 43.2743 43.1379C45.2657 43.1379 47.0081 41.5199 47.0081 39.404C47.0081 37.2882 45.2657 35.6702 43.2743 35.6702ZM43.2743 40.6487C42.5275 40.6487 41.9052 40.0263 41.9052 39.2796C41.9052 38.5328 42.5275 37.9105 43.2743 37.9105C44.021 37.9105 44.6434 38.5328 44.6434 39.2796C44.6434 40.0263 44.021 40.6487 43.2743 40.6487Z" fill="#526378"/>
<path d="M30.828 20.1124H28.9611V20.4858H30.828V20.1124Z" fill="white"/>
<path d="M27.0941 26.0866H25.2272V26.46H27.0941V26.0866Z" fill="white"/>
<path d="M30.828 13.7647H28.9611V14.1381H30.828V13.7647Z" fill="white"/>
<path d="M30.828 26.0866H28.9611V26.46H30.828V26.0866Z" fill="white"/>
<path d="M34.5619 13.7647H32.6949V14.1381H34.5619V13.7647Z" fill="white"/>
<path d="M34.5619 26.0866H32.6949V26.46H34.5619V26.0866Z" fill="white"/>
<path d="M34.5619 20.1124H32.6949V20.4858H34.5619V20.1124Z" fill="white"/>
<path d="M11.9097 7.29272C11.9097 7.54165 11.9097 7.66611 11.9097 7.91504C11.7852 7.66611 11.9097 7.54165 11.9097 7.29272Z" fill="white"/>
<path d="M38.2958 13.7647H36.4288V14.1381H38.2958V13.7647Z" fill="white"/>
<path d="M20.4976 29.1982L17.5105 32.9321C17.2616 33.181 17.1371 33.5544 17.2616 33.9278C17.2616 33.6788 17.3861 33.4299 17.5105 33.3054L20.7465 29.1982H20.4976Z" fill="white"/>
<path d="M1.5793 1.31852C2.45053 0.322825 3.94408 0.198361 5.06424 0.945135C5.31317 1.0696 5.43763 1.31852 5.56209 1.56745H8.54919C8.79811 1.56745 9.1715 1.69191 9.42043 1.81637L13.7766 5.55024C14.0255 5.55024 14.2745 5.42578 14.5234 5.55024L52.4844 9.15965C53.729 9.28411 54.6002 10.4043 54.7247 11.5244C54.8492 10.1553 53.8535 8.91073 52.4844 8.78626L14.5234 5.17685C14.2745 5.17685 14.0255 5.17685 13.7766 5.17685L9.42043 1.44298C9.1715 1.19406 8.92258 1.19406 8.54919 1.19406H5.56209C5.43763 0.945136 5.31317 0.820674 5.06424 0.571749C4.06855 -0.299487 2.45053 -0.175026 1.5793 0.945135C1.20591 1.44298 0.956986 2.0653 1.08145 2.68761C1.08145 2.18976 1.20591 1.69191 1.5793 1.31852Z" fill="white"/>
<path d="M19.6263 13.7647H17.7594V14.1381H19.6263V13.7647Z" fill="white"/>
<path d="M27.0941 20.1124H25.2272V20.4858H27.0941V20.1124Z" fill="white"/>
<path d="M27.0941 13.7647H25.2272V14.1381H27.0941V13.7647Z" fill="white"/>
<path d="M19.6263 20.1124H17.7594V20.4858H19.6263V20.1124Z" fill="white"/>
<path d="M18.1328 26.4599H19.6263V26.0865H18.1328L17.7594 23.7217V24.0951L18.1328 26.4599Z" fill="white"/>
<path d="M38.2958 26.0866H36.4288V26.46H38.2958V26.0866Z" fill="white"/>
<path d="M48.875 20.3612L50.2441 16.0051H50.1196L48.875 20.1123H47.6304V20.3612H48.875Z" fill="white"/>
<path d="M48.3772 22.2282H48.2527L47.6304 24.0951V24.3441L48.3772 22.2282Z" fill="white"/>
<path d="M23.3602 20.1124H21.4933V20.4858H23.3602V20.1124Z" fill="white"/>
<path d="M23.3602 13.7647H21.4933V14.1381H23.3602V13.7647Z" fill="white"/>
<path d="M48.6261 33.1809H20.871C20.622 33.1809 20.3731 33.0564 20.2487 32.8075C20.2487 33.0564 20.4976 33.4298 21.2444 33.4298H48.6261C49.1239 33.4298 49.4973 33.8032 49.4973 34.1766V34.0521C49.6218 33.5543 49.1239 33.1809 48.6261 33.1809Z" fill="white"/>
<path d="M23.3602 26.0866H21.4933V26.46H23.3602V26.0866Z" fill="white"/>
<path d="M42.0297 26.0866H40.1627V26.46H42.0297V26.0866Z" fill="white"/>
<path d="M50.8664 14.1381L51.4887 12.1467H51.3642L50.8664 13.7647H47.6304V14.1381H50.8664Z" fill="white"/>
<path d="M42.0297 13.7647H40.1627V14.1381H42.0297V13.7647Z" fill="white"/>
<path d="M38.2958 20.1124H36.4288V20.4858H38.2958V20.1124Z" fill="white"/>
<path d="M42.0297 20.1124H40.1627V20.4858H42.0297V20.1124Z" fill="white"/>
<path d="M45.7634 26.0866H43.8965V26.46H45.7634V26.0866Z" fill="white"/>
<path d="M45.7634 20.1124H43.8965V20.4858H45.7634V20.1124Z" fill="white"/>
<path d="M45.7634 13.7647H43.8965V14.1381H45.7634V13.7647Z" fill="white"/>
<path d="M22.6135 35.919C24.6049 35.919 26.2229 37.537 26.3474 39.404V39.2795C26.3474 37.2881 24.7294 35.5456 22.6135 35.5456C20.4977 35.5456 18.8796 37.1636 18.8796 39.2795V39.404C19.0041 37.537 20.6221 35.919 22.6135 35.919Z" fill="white"/>
<path d="M22.6135 41.0219C23.3602 41.0219 23.9826 40.3996 23.9826 39.6528V39.5284C23.8581 40.2752 23.3602 40.773 22.6135 40.773C21.8667 40.773 21.3688 40.2752 21.2444 39.5284V39.6528C21.2444 40.3996 21.8667 41.0219 22.6135 41.0219Z" fill="white"/>
<path d="M43.2743 35.919C45.2657 35.919 46.8837 37.537 47.0081 39.404V39.2795C47.0081 37.2881 45.3901 35.5456 43.2743 35.5456C41.1584 35.5456 39.5404 37.1636 39.5404 39.2795V39.404C39.6649 37.537 41.2829 35.919 43.2743 35.919Z" fill="white"/>
<path d="M43.2742 41.0219C44.021 41.0219 44.6433 40.3996 44.6433 39.6528V39.5284C44.5189 40.2752 44.021 40.773 43.2742 40.773C42.5275 40.773 42.0296 40.2752 41.9052 39.5284V39.6528C41.9052 40.3996 42.5275 41.0219 43.2742 41.0219Z" fill="white"/>
<path d="M22.6135 37.6614C21.8667 37.6614 21.2444 38.2838 21.2444 39.0305V39.155C21.3688 38.4082 21.8667 37.9104 22.6135 37.9104C23.3602 37.9104 23.8581 38.4082 23.9826 39.155V39.0305C23.9826 38.1593 23.3602 37.6614 22.6135 37.6614Z" fill="#526378"/>
<path d="M22.6135 42.6399C20.6221 42.6399 19.0041 41.0219 18.8796 39.155V39.2794C18.8796 41.2708 20.4977 43.0133 22.6135 43.0133C24.7294 43.0133 26.3474 41.3953 26.3474 39.2794V39.155C26.2229 41.1464 24.6049 42.6399 22.6135 42.6399Z" fill="#526378"/>
<path d="M43.2742 37.6614C42.5275 37.6614 41.9052 38.2838 41.9052 39.0305V39.155C42.0296 38.4082 42.5275 37.9104 43.2742 37.9104C44.021 37.9104 44.5189 38.4082 44.6433 39.155V39.0305C44.6433 38.1593 44.021 37.6614 43.2742 37.6614Z" fill="#526378"/>
<path d="M43.2743 42.6399C41.2829 42.6399 39.6649 41.0219 39.5404 39.155V39.2794C39.5404 41.2708 41.1584 43.0133 43.2743 43.0133C45.3901 43.0133 47.0081 41.3953 47.0081 39.2794V39.155C46.8837 41.1464 45.2657 42.6399 43.2743 42.6399Z" fill="#526378"/>
</svg>
