<svg width="35" height="35" viewBox="0 0 35 35" fill="none" xmlns="http://www.w3.org/2000/svg">
<circle cx="17.5" cy="17.5" r="17.5" fill="#00733F"/>
<path d="M27.405 19.038L20.915 15.1336C20.0033 14.5852 18.9893 14.2371 17.9401 14.1062V13.1282C17.9401 12.5773 18.2556 12.0644 18.7633 11.7896C20.0249 11.1068 20.7678 9.7917 20.7017 8.35743C20.6143 6.45771 19.0784 4.91944 17.1763 4.8321C15.0441 4.73487 13.2994 6.43245 13.2994 8.5312C13.2994 9.04902 13.7193 9.4687 14.2369 9.4687C14.7548 9.4687 15.1744 9.04902 15.1744 8.5312C15.1744 7.49336 16.0371 6.65657 17.0901 6.70509C18.0221 6.74794 18.7858 7.51167 18.8287 8.44368C18.8615 9.15303 18.4943 9.80323 17.8707 10.1407C16.757 10.7435 16.0651 11.8883 16.0651 13.1282V14.1057C15.0203 14.2353 14.0099 14.5805 13.1008 15.1245L6.60163 19.0138H6.60144C5.61505 19.6041 5.00128 20.685 5 21.8347C4.99799 23.6541 6.46851 25.1282 8.28803 25.1304L25.7041 25.1508H25.7081C27.5214 25.1508 28.9978 23.6764 29 21.8626C29.0013 20.713 28.3901 19.6305 27.405 19.038ZM25.7081 23.2758C25.7076 23.2758 25.7069 23.2758 25.7065 23.2758L8.29041 23.2554C7.50891 23.2545 6.87409 22.6182 6.875 21.8369C6.87555 21.342 7.13977 20.8767 7.5644 20.6226H7.56421L14.0635 16.7334C15.8748 15.6494 18.1376 15.6511 19.9484 16.7402L26.4385 20.6445C26.8624 20.8996 27.1256 21.3656 27.125 21.8604C27.1241 22.6411 26.4887 23.2758 25.7081 23.2758Z" fill="white"/>
</svg>
