<svg width="20" height="20" viewBox="0 0 20 20" fill="none" xmlns="http://www.w3.org/2000/svg">
<path d="M13 0.25C9.29125 0.25 6.25 3.29125 6.25 7C6.25 7.39 6.31375 7.7335 6.367 8.0785L0.46 13.96L0.25 14.1955V19.75H5.5V17.5H7.75V15.25H10V13.0225C10.885 13.4575 11.9163 13.75 13 13.75C16.7087 13.75 19.75 10.7087 19.75 7C19.75 3.29125 16.7087 0.25 13 0.25ZM13 1.75C15.8912 1.75 18.25 4.10875 18.25 7C18.25 9.89125 15.8912 12.25 13 12.25C12.108 12.2406 11.2316 12.0154 10.4455 11.5938L10.258 11.5H8.5V13.75H6.25V16H4V18.25H1.75V14.8278L7.6795 8.875L7.96075 8.617L7.89175 8.2195C7.81675 7.7695 7.75075 7.36675 7.75075 7C7.75075 4.10875 10.1095 1.75 13.0007 1.75H13ZM14.5 4C14.3002 3.99548 14.1016 4.03092 13.9157 4.10423C13.7299 4.17754 13.5605 4.28724 13.4176 4.4269C13.2747 4.56656 13.1612 4.73336 13.0836 4.91751C13.0061 5.10165 12.9661 5.29944 12.9661 5.49924C12.966 5.69905 13.0059 5.89685 13.0834 6.08103C13.1608 6.26522 13.2743 6.43207 13.4171 6.57181C13.5599 6.71154 13.7292 6.82133 13.915 6.89473C14.1009 6.96813 14.2995 7.00367 14.4993 6.99925C14.8912 6.99058 15.2641 6.82883 15.5383 6.54862C15.8124 6.26841 15.966 5.89201 15.9661 5.49999C15.9662 5.10797 15.8128 4.7315 15.5388 4.45115C15.2648 4.1708 14.8919 4.00886 14.5 4Z" fill="#AD49D2"/>
</svg>
