<svg width="35" height="35" viewBox="0 0 35 35" fill="none" xmlns="http://www.w3.org/2000/svg">
<circle cx="17.5" cy="17.5" r="17.5" fill="#00733F"/>
<path d="M22 25.5C20.8542 25.5 19.9427 25.7507 19.2656 26.252C18.5885 26.7533 18.25 27.3359 18.25 28H15.75C15.75 27.3359 15.4115 26.7533 14.7344 26.252C14.0573 25.7507 13.1458 25.5 12 25.5C11.6745 25.5 11.248 25.6367 10.7207 25.9102C10.1934 26.1836 9.78646 26.4635 9.5 26.75L7 24.25C7.92448 23.7682 8.7806 22.9219 9.56836 21.7109C10.3561 20.5 10.75 19.263 10.75 18C10.75 16.0859 9.91667 14.4193 8.25 13L9.5 10.5C9.59115 10.5911 9.7181 10.7051 9.88086 10.8418C10.0436 10.9785 10.3464 11.1641 10.7891 11.3984C11.2318 11.6328 11.6354 11.75 12 11.75C12.7682 11.75 13.4453 11.5547 14.0312 11.1641C14.6172 10.7734 15.0501 10.2982 15.3301 9.73828C15.61 9.17839 15.75 8.59896 15.75 8H18.25C18.25 8.59896 18.39 9.17839 18.6699 9.73828C18.9499 10.2982 19.3828 10.7734 19.9688 11.1641C20.5547 11.5547 21.2318 11.75 22 11.75C22.3646 11.75 22.7552 11.6458 23.1719 11.4375C23.5885 11.2292 23.9141 11.0208 24.1484 10.8125L24.5 10.5L25.75 13C24.0833 14.4193 23.25 16.0859 23.25 18C23.25 19.263 23.6439 20.5 24.4316 21.7109C25.2194 22.9219 26.0755 23.7682 27 24.25L24.5 26.75C24.1615 26.4245 23.7448 26.1348 23.25 25.8809C22.7552 25.627 22.3385 25.5 22 25.5Z" fill="white"/>
</svg>
