<svg width="23" height="23" viewBox="0 0 23 23" fill="none" xmlns="http://www.w3.org/2000/svg">
<path d="M19.6318 14.3923C18.3792 13.1798 16.8883 12.2823 15.2617 11.739C17.0039 10.5775 18.1484 8.63362 18.1484 6.4356C18.1484 2.88702 15.1659 0 11.5 0C7.83406 0 4.85156 2.88702 4.85156 6.4356C4.85156 8.63362 5.99613 10.5775 7.73833 11.739C6.11171 12.2823 4.62084 13.1798 3.36829 14.3923C1.19622 16.4948 0 19.2903 0 22.2637H1.79688C1.79688 17.0846 6.14967 12.8712 11.5 12.8712C16.8503 12.8712 21.2031 17.0846 21.2031 22.2637H23C23 19.2903 21.8038 16.4948 19.6318 14.3923ZM11.5 11.1318C8.82486 11.1318 6.64844 9.02514 6.64844 6.4356C6.64844 3.84605 8.82486 1.73935 11.5 1.73935C14.1751 1.73935 16.3516 3.84605 16.3516 6.4356C16.3516 9.02514 14.1751 11.1318 11.5 11.1318Z" fill="#AD49D2"/>
</svg>
