<svg width="22" height="16" viewBox="0 0 22 16" fill="none" xmlns="http://www.w3.org/2000/svg">
<path d="M19 0.923706H3C1.89543 0.923706 1 1.81914 1 2.92371V12.9237C1 14.0283 1.89543 14.9237 3 14.9237H19C20.1046 14.9237 21 14.0283 21 12.9237V2.92371C21 1.81914 20.1046 0.923706 19 0.923706Z" stroke="#00733F" stroke-width="1.5" stroke-linecap="round" stroke-linejoin="bevel"/>
<path d="M2 1.92358L9.81 9.73358C9.99575 9.91954 10.2163 10.0671 10.4591 10.1677C10.7019 10.2684 10.9622 10.3202 11.225 10.3202C11.4878 10.3202 11.7481 10.2684 11.9909 10.1677C12.2337 10.0671 12.4543 9.91954 12.64 9.73358L20.42 1.92358" stroke="#00733F" stroke-width="1.5" stroke-linecap="round" stroke-linejoin="round"/>
</svg>
