<svg width="74" height="79" viewBox="0 0 74 79" fill="none" xmlns="http://www.w3.org/2000/svg">
<g opacity="0.2">
<path d="M0.593262 19.3168L16.9324 1.97998L21.1953 19.3168H0.593262Z" fill="#EF562B"/>
<path d="M0 24.5177L5.68305 33.9286L17.4055 24.5177H0Z" fill="#EEB71E"/>
<path d="M21.1951 0L31.9708 1.98004L24.9847 15.479L21.1951 0Z" fill="#B44726"/>
<path d="M9.70947 36.6505L22.7351 25.5071L26.5818 39.6234L9.70947 36.6505Z" fill="#01639B"/>
<path d="M34.694 6.31567L26.5815 21.7919L29.9576 35.7831L52.0995 9.65842L44.0469 7.73812L40.8504 10.6484L34.694 6.31567Z" fill="#01639B"/>
<path d="M56.1261 13.4958L53.2832 31.6975L64.5323 28.4799L56.1261 13.4958Z" fill="#008257"/>
<path d="M51.2698 17.829L35.0476 37.1458L48.9002 32.5655L51.2698 17.829Z" fill="#008257"/>
<path d="M53.9929 37.146L73.058 31.698L60.8621 56.0901L53.9929 37.146Z" fill="#EF562B"/>
<path d="M35.0476 42.4711L49.73 38.2493L55.1763 54.357L35.0476 42.4711Z" fill="#B34225"/>
<path d="M35.0476 47.547L47.2435 68.2265L55.1763 59.8057L35.0476 47.547Z" fill="#28282A"/>
<path d="M31.3782 49.4048L38.3644 77.2648L44.1671 71.0743L31.3782 49.4048Z" fill="#EEB71E"/>
<path d="M43.1604 79L55.1767 66.6162L49.7303 78.0072L43.1604 79Z" fill="#28282A"/>
</g>
</svg>
