<svg width="35" height="35" viewBox="0 0 35 35" fill="none" xmlns="http://www.w3.org/2000/svg">
<circle cx="17.5" cy="17.5" r="17.5" fill="#00733F"/>
<path d="M16.964 12.97C16.964 12.97 13.889 13.276 12.279 11.935C10.669 10.593 11.036 8.03005 11.036 8.03005C11.036 8.03005 14.111 7.72405 15.722 9.06505C17.332 10.407 16.964 12.97 16.964 12.97V12.97Z" stroke="white" stroke-width="2" stroke-linecap="round" stroke-linejoin="round"/>
<path d="M17.036 12.97C17.036 12.97 20.111 13.276 21.721 11.935C23.331 10.593 22.964 8.03005 22.964 8.03005C22.964 8.03005 19.889 7.72405 18.279 9.06505C16.669 10.407 17.036 12.97 17.036 12.97V12.97Z" stroke="white" stroke-width="2" stroke-linecap="round" stroke-linejoin="round"/>
<path d="M9 17C9 16.7348 9.10536 16.4804 9.29289 16.2929C9.48043 16.1054 9.73478 16 10 16H24C24.2652 16 24.5196 16.1054 24.7071 16.2929C24.8946 16.4804 25 16.7348 25 17V19C25 19.2652 24.8946 19.5196 24.7071 19.7071C24.5196 19.8946 24.2652 20 24 20H10C9.73478 20 9.48043 19.8946 9.29289 19.7071C9.10536 19.5196 9 19.2652 9 19V17Z" stroke="white" stroke-width="2" stroke-linecap="round" stroke-linejoin="round"/>
<path d="M10 20H24L22 28H12L10 20Z" stroke="white" stroke-width="2" stroke-linecap="round" stroke-linejoin="round"/>
</svg>
