<svg width="35" height="35" viewBox="0 0 35 35" fill="none" xmlns="http://www.w3.org/2000/svg">
<circle cx="17.5" cy="17.5" r="17.5" fill="#00733F"/>
<path d="M17 24C17 25.1 16.1 26 15 26C13.9 26 13 25.1 13 24C13 22.9 13.9 22 15 22C16.1 22 17 22.9 17 24ZM15 16C13.9 16 13 16.9 13 18C13 19.1 13.9 20 15 20C16.1 20 17 19.1 17 18C17 16.9 16.1 16 15 16ZM15 10C13.9 10 13 10.9 13 12C13 13.1 13.9 14 15 14C16.1 14 17 13.1 17 12C17 10.9 16.1 10 15 10ZM21 14C22.1 14 23 13.1 23 12C23 10.9 22.1 10 21 10C19.9 10 19 10.9 19 12C19 13.1 19.9 14 21 14ZM21 16C19.9 16 19 16.9 19 18C19 19.1 19.9 20 21 20C22.1 20 23 19.1 23 18C23 16.9 22.1 16 21 16ZM21 22C19.9 22 19 22.9 19 24C19 25.1 19.9 26 21 26C22.1 26 23 25.1 23 24C23 22.9 22.1 22 21 22Z" fill="white"/>
</svg>
