<svg width="20" height="24" viewBox="0 0 20 24" fill="none" xmlns="http://www.w3.org/2000/svg">
<path d="M19.5033 19.7915L18.4315 6.28603C18.3647 5.41594 17.6289 4.73433 16.7563 4.73433H14.6393V4.63917C14.6393 2.08111 12.5581 0 10.0001 0C7.44202 0 5.36091 2.08111 5.36091 4.63917V4.73433H3.24394C2.37127 4.73433 1.63538 5.41589 1.56882 6.2842L0.496692 19.7933C0.413723 20.8749 0.788957 21.9518 1.52611 22.7476C2.26327 23.5435 3.30825 24 4.39308 24H15.607C16.6918 24 17.7368 23.5435 18.474 22.7476C19.2112 21.9517 19.5864 20.8749 19.5033 19.7915ZM6.76669 4.63917C6.76669 2.85628 8.21724 1.40578 10.0001 1.40578C11.7829 1.40578 13.2335 2.85633 13.2335 4.63917V4.73433H6.76669V4.63917ZM17.4427 21.7924C16.9637 22.3095 16.3118 22.5942 15.607 22.5942H4.39313C3.68832 22.5942 3.03647 22.3095 2.5575 21.7924C2.07858 21.2753 1.84449 20.6035 1.8983 19.9027L2.97033 6.39352C2.98121 6.25139 3.10139 6.14011 3.24394 6.14011H5.36091V7.87144C5.36091 8.25961 5.67563 8.57433 6.0638 8.57433C6.45197 8.57433 6.76669 8.25961 6.76669 7.87144V6.14011H13.2335V7.87144C13.2335 8.25961 13.5482 8.57433 13.9364 8.57433C14.3245 8.57433 14.6393 8.25961 14.6393 7.87144V6.14011H16.7563C16.8988 6.14011 17.019 6.25144 17.03 6.39539L18.1018 19.9008C18.1557 20.6035 17.9216 21.2753 17.4427 21.7924Z" fill="#EF562B"/>
</svg>
