<svg width="35" height="35" viewBox="0 0 35 35" fill="none" xmlns="http://www.w3.org/2000/svg">
<circle cx="17.5" cy="17.5" r="17.5" fill="#DB3855"/>
<path d="M27 11H9C7.9 11 7 11.9 7 13V21C7 22.1 7.9 23 9 23H27C28.1 23 29 22.1 29 21V13C29 11.9 28.1 11 27 11ZM17 18H14V21H12V18H9V16H12V13H14V16H17V18ZM21.5 20C20.67 20 20 19.33 20 18.5C20 17.67 20.67 17 21.5 17C22.33 17 23 17.67 23 18.5C23 19.33 22.33 20 21.5 20ZM25.5 17C24.67 17 24 16.33 24 15.5C24 14.67 24.67 14 25.5 14C26.33 14 27 14.67 27 15.5C27 16.33 26.33 17 25.5 17Z" fill="white"/>
</svg>
