<svg width="20" height="20" viewBox="0 0 20 20" fill="none" xmlns="http://www.w3.org/2000/svg">
<path d="M17.8416 9.50829L10.4833 2.14996C10.175 1.84163 9.74996 1.66663 9.30829 1.66663H3.33329C2.41663 1.66663 1.66663 2.41663 1.66663 3.33329V9.30829C1.66663 9.74996 1.84163 10.175 2.15829 10.4833L9.51663 17.8416C10.1666 18.4916 11.225 18.4916 11.875 17.8416L17.85 11.8666C18.5 11.2166 18.5 10.1666 17.8416 9.50829ZM5.41663 6.66663C4.72496 6.66663 4.16663 6.10829 4.16663 5.41663C4.16663 4.72496 4.72496 4.16663 5.41663 4.16663C6.10829 4.16663 6.66663 4.72496 6.66663 5.41663C6.66663 6.10829 6.10829 6.66663 5.41663 6.66663Z" fill="white"/>
</svg>
