<svg width="35" height="35" viewBox="0 0 35 35" fill="none" xmlns="http://www.w3.org/2000/svg">
<circle cx="17.5" cy="17.5" r="17.5" fill="#00733F"/>
<path d="M26.7272 18.8073C26.7285 18.2031 26.5601 17.6106 26.2414 17.0973C25.9226 16.584 25.4663 16.1704 24.9241 15.9036C24.382 15.6367 23.7759 15.5274 23.1747 15.5879C22.5735 15.6484 22.0014 15.8764 21.5233 16.2459C21.0453 16.6154 20.6805 17.1117 20.4704 17.6782C20.2604 18.2448 20.2135 18.8589 20.3352 19.4507C20.4568 20.0426 20.742 20.5884 21.1585 21.0262C21.5749 21.464 22.1058 21.7762 22.6909 21.9273V22.8436C22.6909 23.917 22.2645 24.9465 21.5055 25.7055C20.7464 26.4645 19.717 26.8909 18.6436 26.8909C17.5702 26.8909 16.5408 26.4645 15.7817 25.7055C15.0227 24.9465 14.5963 23.917 14.5963 22.8436C14.6369 21.88 14.8724 20.9347 15.2887 20.0646C15.705 19.1946 16.2933 18.418 17.0181 17.7818H16.9091C17.6805 17.2785 18.3167 16.5936 18.7618 15.7872C19.2068 14.9807 19.4472 14.0774 19.4618 13.1564V9.90546C19.4618 9.26315 19.2066 8.64716 18.7524 8.19298C18.2983 7.7388 17.6823 7.48364 17.04 7.48364H15.8181C15.604 7.48364 15.3987 7.56869 15.2473 7.72009C15.0959 7.87148 15.0109 8.07681 15.0109 8.29092C15.0109 8.50502 15.0959 8.71035 15.2473 8.86174C15.3987 9.01314 15.604 9.09819 15.8181 9.09819H17.0181C17.2322 9.09819 17.4376 9.18324 17.589 9.33463C17.7404 9.48603 17.8254 9.69136 17.8254 9.90546V13.1564C17.8254 14.2231 17.4032 15.2465 16.6509 16.0028C15.8987 16.7592 14.8776 17.187 13.8109 17.1927V17.7818V17.1927C13.2808 17.1956 12.7554 17.094 12.2646 16.8938C11.7737 16.6937 11.3272 16.3987 10.9503 16.026C10.5735 15.6532 10.2738 15.2098 10.0683 14.7212C9.86278 14.2326 9.75555 13.7083 9.75269 13.1782V9.90546C9.75269 9.69136 9.83774 9.48603 9.98914 9.33463C10.1405 9.18324 10.3459 9.09819 10.56 9.09819H11.6945C11.9086 9.09819 12.1139 9.01314 12.2653 8.86174C12.4167 8.71035 12.5018 8.50502 12.5018 8.29092C12.5018 8.07681 12.4167 7.87148 12.2653 7.72009C12.1139 7.56869 11.9086 7.48364 11.6945 7.48364H10.56C9.92525 7.49508 9.3204 7.75528 8.87562 8.20822C8.43083 8.66117 8.18168 9.27064 8.18178 9.90546V13.1564C8.17942 14.0637 8.39643 14.9582 8.81432 15.7635C9.2322 16.5689 9.83858 17.2613 10.5818 17.7818C11.3027 18.42 11.8869 19.1974 12.2994 20.0673C12.7118 20.9372 12.944 21.8816 12.9818 22.8436C12.9818 23.5872 13.1282 24.3234 13.4128 25.0103C13.6973 25.6972 14.1143 26.3214 14.6401 26.8472C15.1658 27.3729 15.79 27.7899 16.4769 28.0745C17.1638 28.359 17.9001 28.5055 18.6436 28.5055C19.3871 28.5055 20.1234 28.359 20.8103 28.0745C21.4972 27.7899 22.1214 27.3729 22.6471 26.8472C23.1729 26.3214 23.5899 25.6972 23.8744 25.0103C24.159 24.3234 24.3054 23.5872 24.3054 22.8436V21.9273C24.9975 21.7486 25.6107 21.3453 26.049 20.7807C26.4872 20.2161 26.7258 19.522 26.7272 18.8073ZM23.4545 20.4218C23.1352 20.4218 22.823 20.3271 22.5575 20.1497C22.292 19.9723 22.0851 19.7202 21.9629 19.4251C21.8407 19.1301 21.8087 18.8055 21.871 18.4923C21.9333 18.1791 22.0871 17.8914 22.3129 17.6656C22.5386 17.4398 22.8263 17.2861 23.1395 17.2238C23.4527 17.1615 23.7773 17.1934 24.0724 17.3156C24.3674 17.4378 24.6195 17.6448 24.797 17.9103C24.9744 18.1758 25.0691 18.488 25.0691 18.8073C25.0691 19.0193 25.0273 19.2293 24.9462 19.4251C24.865 19.621 24.7461 19.799 24.5962 19.9489C24.4462 20.0989 24.2683 20.2178 24.0724 20.2989C23.8765 20.3801 23.6665 20.4218 23.4545 20.4218Z" fill="white"/>
</svg>
