<svg width="18" height="18" viewBox="0 0 18 18" fill="none" xmlns="http://www.w3.org/2000/svg">
<path fill-rule="evenodd" clip-rule="evenodd" d="M16.5801 1.15977L1.13014 6.99977C1.09409 7.01674 1.06361 7.04362 1.04226 7.07726C1.02092 7.1109 1.00958 7.14993 1.00958 7.18977C1.00958 7.22961 1.02092 7.26864 1.04226 7.30228C1.06361 7.33592 1.09409 7.3628 1.13014 7.37977L7.74014 10.2098C7.76489 10.2198 7.78738 10.2347 7.80627 10.2536C7.82517 10.2725 7.84008 10.295 7.85014 10.3198L10.6801 16.9298C10.6971 16.9658 10.724 16.9963 10.7576 17.0176C10.7913 17.039 10.8303 17.0503 10.8701 17.0503C10.91 17.0503 10.949 17.039 10.9827 17.0176C11.0163 16.9963 11.0432 16.9658 11.0601 16.9298L16.8401 1.41977C16.8547 1.38342 16.8583 1.34361 16.8504 1.30526C16.8425 1.26691 16.8236 1.23171 16.7959 1.20403C16.7682 1.17634 16.733 1.15739 16.6947 1.14953C16.6563 1.14166 16.6165 1.14522 16.5801 1.15977V1.15977Z" stroke="white" stroke-width="1.5" stroke-linecap="round" stroke-linejoin="round"/>
<path d="M17.0002 0.999878L7.81018 10.1899" stroke="white" stroke-width="1.5" stroke-linecap="round" stroke-linejoin="round"/>
</svg>
