<svg width="24" height="24" viewBox="0 0 24 24" fill="none" xmlns="http://www.w3.org/2000/svg">
<path d="M21.5033 19.7915L20.4315 6.28603C20.3647 5.41594 19.6289 4.73433 18.7563 4.73433H16.6393V4.63917C16.6393 2.08111 14.5581 0 12.0001 0C9.44202 0 7.36091 2.08111 7.36091 4.63917V4.73433H5.24394C4.37127 4.73433 3.63538 5.41589 3.56882 6.2842L2.49669 19.7933C2.41372 20.8749 2.78896 21.9518 3.52611 22.7476C4.26327 23.5435 5.30825 24 6.39308 24H17.607C18.6918 24 19.7368 23.5435 20.474 22.7476C21.2112 21.9517 21.5864 20.8749 21.5033 19.7915ZM8.76669 4.63917C8.76669 2.85628 10.2172 1.40578 12.0001 1.40578C13.7829 1.40578 15.2335 2.85633 15.2335 4.63917V4.73433H8.76669V4.63917ZM19.4427 21.7924C18.9637 22.3095 18.3118 22.5942 17.607 22.5942H6.39313C5.68832 22.5942 5.03647 22.3095 4.5575 21.7924C4.07858 21.2753 3.84449 20.6035 3.8983 19.9027L4.97033 6.39352C4.98121 6.25139 5.10139 6.14011 5.24394 6.14011H7.36091V7.87144C7.36091 8.25961 7.67563 8.57433 8.0638 8.57433C8.45197 8.57433 8.76669 8.25961 8.76669 7.87144V6.14011H15.2335V7.87144C15.2335 8.25961 15.5482 8.57433 15.9364 8.57433C16.3245 8.57433 16.6393 8.25961 16.6393 7.87144V6.14011H18.7563C18.8988 6.14011 19.019 6.25144 19.03 6.39539L20.1018 19.9008C20.1557 20.6035 19.9216 21.2753 19.4427 21.7924Z" fill="#AD49D2"/>
<path d="M15.1667 11.9196C14.8923 11.6451 14.4472 11.6451 14.1728 11.9196L11.0342 15.0581L9.82735 13.8513C9.55289 13.5768 9.10782 13.5768 8.83332 13.8513C8.55882 14.1258 8.55882 14.5708 8.83332 14.8453L10.5372 16.5492C10.6744 16.6864 10.8543 16.7551 11.0341 16.7551C11.214 16.7551 11.3939 16.6865 11.5311 16.5492L15.1666 12.9136C15.4412 12.6391 15.4412 12.1941 15.1667 11.9196Z" fill="#AD49D2"/>
</svg>
