<svg width="18" height="22" viewBox="0 0 18 22" fill="none" xmlns="http://www.w3.org/2000/svg">
<path d="M16.13 20.5937L12.74 17.9937C12.699 17.9604 12.6478 17.9422 12.595 17.9422C12.5422 17.9422 12.491 17.9604 12.45 17.9937L9.24 20.7437C9.19827 20.7796 9.14505 20.7993 9.09 20.7993C9.03495 20.7993 8.98173 20.7796 8.94 20.7437L5.3 17.9937C5.2615 17.9593 5.21166 17.9402 5.16 17.9402C5.10834 17.9402 5.0585 17.9593 5.02 17.9937L1.88 20.5737C1.84517 20.5988 1.80423 20.6142 1.76145 20.6181C1.71868 20.622 1.67563 20.6144 1.63681 20.596C1.59799 20.5776 1.56482 20.5491 1.54076 20.5135C1.51669 20.478 1.50262 20.4366 1.5 20.3937V3.03369C1.5 2.50326 1.71071 1.99455 2.08579 1.61948C2.46086 1.24441 2.96957 1.03369 3.5 1.03369H14.5C15.0304 1.03369 15.5391 1.24441 15.9142 1.61948C16.2893 1.99455 16.5 2.50326 16.5 3.03369V20.4137C16.4995 20.4564 16.4872 20.4982 16.4643 20.5342C16.4415 20.5703 16.409 20.5994 16.3706 20.618C16.3322 20.6367 16.2894 20.6444 16.2469 20.6401C16.2044 20.6358 16.1639 20.6197 16.13 20.5937V20.5937Z" stroke="#00733F" stroke-width="1.5" stroke-linecap="round" stroke-linejoin="round"/>
<path d="M4.08997 5.14392H12.09" stroke="#00733F" stroke-width="1.5" stroke-linecap="round" stroke-linejoin="round"/>
<path d="M4.08997 9.1438H9.08997" stroke="#00733F" stroke-width="1.5" stroke-linecap="round" stroke-linejoin="round"/>
<path d="M4.08997 13.1437H13.09" stroke="#00733F" stroke-width="1.5" stroke-linecap="round" stroke-linejoin="round"/>
</svg>
